<?xml version="1.0" standalone="no"?>
<!DOCTYPE svg PUBLIC "-//W3C//DTD SVG 1.1//EN" "http://www.w3.org/Graphics/SVG/1.1/DTD/svg11.dtd" >
<svg xmlns="http://www.w3.org/2000/svg">
<metadata>Generated by IcoMoon</metadata>
<defs>
<font id="motion" horiz-adv-x="1024">
<font-face units-per-em="1024" ascent="1024" descent="0" />
<missing-glyph horiz-adv-x="1024" />
<glyph unicode="&#x20;" horiz-adv-x="0" d="" />
<glyph unicode="&#xe000;" glyph-name="absence" d="M192 0h-128v1024h128zM704 766l254 256h-702v-510h704z" />
<glyph unicode="&#xe001;" glyph-name="add-type" d="M1024 614l-410 2v408h-206v-408h-408v-206h408v-410h206v410h410z" />
<glyph unicode="&#xe002;" glyph-name="appraisal" d="M388 352c-8-14-24-24-98-56 2-2 6-4 10-4l228-140 156 188c-6 4-14 6-18 10-16 12-32 32 0 74 26 38 52 76 72 116 4 6 6 10 6 16 4 4 4 8 6 12s4 10 8 16c18 44 32 90 30 134-6 108-100 268-270 268-168 0-252-124-264-258-12-142 104-250 136-296 28-42 8-62-2-80zM180 38h294l-196 120zM158 240c-190-82-156-202-156-202h16l180 218zM888 248c-14 10-48 24-86 40l-206-250c226 0 428 0 428 0 0 128-98 188-136 210zM956 580l-180-26 54-36 28-20-22-26-284-340-18-24-24 14-228 144c-4 2-10 4-16 4-10 0-20-4-24-10l-182-220h80l112 140 20 22 22-14 228-140 6-2h20l6 2c2 0 4 0 4 0h2l8 8 338 410 24-18 28-18 22-18h4z" />
<glyph unicode="&#xe003;" glyph-name="arrow-down" d="M0 768h1024l-512-512z" />
<glyph unicode="&#xe004;" glyph-name="arrow-fat-left" d="M428 514l350-382c34-36 36-76 0-108-36-34-74-32-108 4l-424 430c-34 36-34 76 0 108l424 430c34 36 76 36 108 0 36-36 34-70 0-106z" />
<glyph unicode="&#xe005;" glyph-name="arrow-fat-right" d="M596 514l-350-382c-32-36-36-74 0-108 36-36 74-30 108 6l426 430c32 36 32 74 0 108l-426 430c-32 36-74 36-108 0-36-36-32-70 0-106z" />
<glyph unicode="&#xe006;" glyph-name="arrow-left" d="M256 512l512 512v-1024z" />
<glyph unicode="&#xe007;" glyph-name="arrow-right" d="M256 0v1024l512-512z" />
<glyph unicode="&#xe008;" glyph-name="arrow-up" d="M512 768l512-512h-1024z" />
<glyph unicode="&#xe009;" glyph-name="attachment" d="M394 12c-18 0-32 14-32 34 0 8 2 16 8 22l538 546c70 72 70 184 2 256l-26 24c-32 34-78 54-124 54-48 0-94-20-126-54l-536-536c-44-46-44-118 0-164l16-18c24-22 54-36 86-36 30 0 58 12 78 32l480 488c18 18 18 48 0 66l-10 10c-8 8-18 12-32 12-12 0-22-4-30-12l-444-452c-12-12-34-12-46 0s-14 34 0 46l442 452c42 42 112 44 156 0 0 0 0 0 0 0l10-10c42-44 42-112 0-156l-480-490c-32-32-78-50-124-50-48 0-96 20-132 56l-16 16c-70 72-70 184 0 254l534 538c92 94 246 96 340 4 0-2 2-2 2-4l26-24c94-96 94-252-2-348l-536-546c-6-6-14-10-22-10z" />
<glyph unicode="&#xe00a;" glyph-name="bell" d="M512 0c-78 0-150 52-172 124h-282c-32 0-58 26-58 58 0 40 16 78 46 102 84 74 160 176 160 434 0 172 134 306 306 306s306-134 306-306c0-258 76-356 160-428 30-26 46-62 46-104 0-30-26-56-58-56h-282c-22-78-94-130-172-130zM476 124c10-6 26-10 36-10 16 0 26 4 36 10zM864 238c-110 114-160 264-160 476 0 104-88 192-192 192s-192-88-192-192c0-218-46-362-156-476z" />
<glyph unicode="&#xe00b;" glyph-name="bell-2" d="M36 220c74 60 128 136 164 226 38 90 56 186 56 286 0 62 18 112 56 148 36 38 86 60 150 68-4 6-4 14-4 20 0 16 4 30 16 40s22 16 38 16c16 0 28-6 38-16 12-10 18-24 18-40 0-6-2-14-4-20 64-8 114-30 150-68 36-36 56-86 56-148 0-100 18-196 54-286 38-90 92-166 164-226 0-20-8-38-22-52s-32-22-50-22h-256c0-40-14-74-44-102-28-30-64-44-102-44-40 0-76 14-104 44-30 28-44 62-44 102h-256c-18 0-36 8-50 22s-24 32-24 52zM412 146c0-28 10-50 30-70 18-20 42-30 70-30 6 0 10 4 10 10s-4 8-10 8c-22 0-42 8-58 26-16 16-24 34-24 58 0 6-4 8-10 8s-8-4-8-10z" />
<glyph unicode="&#xe00c;" glyph-name="bicycle" d="M0 404c0-108 88-196 196-196s196 88 196 196c0 78-46 144-112 176l30 102 196-312c6-10 16-14 26-14 2 0 2 0 2 0l104 6c20-88 98-154 192-154 106 0 196 88 196 196s-90 196-196 196c-22 0-40-4-58-10l-36 70 12 20c2 4 4 6 4 10h6c18 0 32 14 32 30 0 18-14 32-32 32h-76c-18 0-32-14-32-32 0-10 4-18 12-24l-284 4c0 0-2 0-4 0l-34 52h84c18 0 32 14 32 32s-14 32-32 32h-132c-18 0-32-14-32-32 0-8 4-14 8-20l-50-168c-8 2-16 2-24 2-106-2-194-88-194-194zM712 560c-42-32-72-80-78-138l-44-2 106 174zM828 272c-60 0-110 38-126 92l128 8c10 0 20 6 26 16 4 8 4 20 0 28l-58 116c8 2 20 2 30 2 72 0 132-58 132-132 0-72-60-130-132-130zM698 428c6 30 22 56 44 76l36-70zM412 634l232-4-112-184zM64 404c0 72 58 132 132 132 2 0 4 0 4 0l-36-124c-4-16 6-34 22-38 16-6 36 4 40 22l36 122c38-22 64-66 64-114 0-72-58-132-132-132-72 0-130 58-130 132z" />
<glyph unicode="&#xe00d;" glyph-name="bicycle-parts" d="M994 394v-74c0-12-8-24-22-24h-148c-12 0-26 12-26 24v12h-76c-12 0-22 10-22 24 0 12 10 22 22 22h76v16c0 12 14 24 26 24h148c14 0 22-12 22-24zM860 902c0 26-22 48-48 48h-174c-10 0-18-6-22-16h-100c-2 10-14 20-24 20h-50c-10 0-20-8-24-20h-100c-4 10-12 16-24 16h-172c-26 0-48-22-48-48s22-48 48-48h172c12 0 20 6 22 16h102v-18c0-92-2-20 0-110v-52c-54-20-90-70-90-128v-210c0-18 16-32 32-32 18 0 32 14 32 32v208c0 26 14 48 32 62 6-4 12-6 18-6h48c6 0 12 2 16 6 20-14 32-36 32-62v-210c0-18 14-32 32-32s32 14 32 32v210c0 58-38 108-88 128v52c-4 72 0 18 0 112v18h102c2-10 12-16 22-16h172c28 0 50 22 50 48zM466 534c-24 0-46-18-46-44v-444c0-26 22-44 46-44s44 18 44 44v444c0 26-20 44-44 44zM300 220h-74v14c0 14-10 24-24 24h-146c-14 0-26-10-26-24v-72c0-14 12-24 26-24h146c14 0 24 10 24 24v10h74c14 0 24 10 24 24 0 12-10 24-24 24zM252 980c0 24-24 44-56 44-30 0-56-20-56-44z" />
<glyph unicode="&#xe00e;" glyph-name="bookmark-2" d="M236 1024v-1024l278 322 274-316v1018z" />
<glyph unicode="&#xe00f;" glyph-name="bus" d="M932 774c-8 82-20 144-42 170-86 102-696 110-764 0-18-26-28-90-36-170-26-4-46-26-46-52v-100c0-22 14-42 32-48-4-158 0-322 6-404 0-64 42-52 42-52h40v-68c0-28 28-50 64-50 34 0 62 22 62 50v68h462v-68c0-28 28-50 64-50 34 0 62 22 62 50v68h12c0 0 52-8 54 22 0 82 6 262 2 434 20 6 34 26 34 48v100c0 28-20 50-48 52zM274 930h468v-70h-468zM280 198c-36 0-66 30-66 66 0 38 30 66 66 66 38 0 68-28 68-66 0-36-30-66-68-66zM740 198c-38 0-68 30-68 66 0 38 30 66 68 66 36 0 66-28 66-66 0-36-30-66-66-66zM824 488h-632v332h632z" />
<glyph unicode="&#xe010;" glyph-name="business" d="M940 772h-152v142c0 32-26 58-58 58h-438c-30 0-56-26-56-58v-144h-152c-46 0-84-38-84-84v-548c0-48 38-86 84-86h854c48 0 84 38 84 86v548c2 46-36 86-82 86zM350 858h324v-86h-324z" />
<glyph unicode="&#xe011;" glyph-name="calendar" d="M612 282h104v-108h-104zM462 566h108v-106h-108zM612 424h104v-108h-104zM760 566h108v-106h-108zM462 424h108v-108h-108zM612 566h104v-106h-104zM760 424h108v-108h-108zM166 282h108v-108h-108zM166 424h108v-108h-108zM166 942v-112c-2-116 176-116 176 0v112h350v-112c0-118 176-118 176 0 0 26 2 66 0 66v46h156v-942h-1024v942zM930 94v590h-836v-590zM316 566h104v-106h-104zM316 282h104v-108h-104zM462 282h108v-108h-108zM316 424h104v-108h-104zM210 820v160c0 58 88 58 88 0v-160c-2-58-88-58-88 0zM736 820v160c0 58 86 58 86 0v-160c0-58-86-58-86 0z" />
<glyph unicode="&#xe012;" glyph-name="call-in-sick" d="M284 870c-4 52 40 106 104 128 18 6 42 10 62 10 42 2 82 2 124 0 88 0 162-60 166-132 0-2 0-4 0-6-36 0-72 0-108 0-2 4-2 8-4 12-8 22-30 36-58 36-38 0-78 0-118 0-30 0-52-16-60-40 0-2-4-8-8-8-34 0-66 0-100 0zM898 842h-772c-68 0-126-64-126-140v-546c0-78 58-140 126-140h772c68 0 126 62 126 140v546c2 76-56 140-126 140zM754 352h-164v-166h-154v166h-164v152h164v164h154v-164h164z" />
<glyph unicode="&#xe013;" glyph-name="care-leave" d="M512 1024c-282 0-512-230-512-512s230-512 512-512c282 0 512 230 512 512s-230 512-512 512zM512 56c-252 0-456 204-456 456s204 456 456 456c252 0 456-204 456-456s-204-456-456-456zM790 614h-176v176c0 16-12 28-28 28h-148c-16 0-28-12-28-28v-176h-176c-16 0-28-12-28-28v-148c0-16 12-28 28-28h176v-176c0-16 12-28 28-28h148c16 0 28 12 28 28v176h176c16 0 28 12 28 28v148c0 16-12 28-28 28zM762 466h-176c-16 0-28-12-28-28v-176h-92v176c0 16-12 28-28 28h-176v92h176c16 0 28 12 28 28v176h92v-176c0-16 12-28 28-28h176z" />
<glyph unicode="&#xe014;" glyph-name="chart-bar" d="M46 924c-26 0-46-16-46-40v-740c0-26 18-44 46-44h940c24 0 38 20 38 44 0 22-16 42-38 42h-886c-4 0-10 4-10 10v688c0 24-18 40-44 40zM176 550h226v-314h-226zM446 822h224v-586h-224zM716 642h226v-406h-226z" />
<glyph unicode="&#xe015;" glyph-name="chat" d="M636 368h-430v338h-206v-488h116v-190l170 190h368v132zM1024 996v-570h-136v-224l-198 222h-428v572zM872 870h-456v-104h456zM872 656h-456v-104h456z" />
<glyph unicode="&#xe016;" glyph-name="check-alt" d="M512 1024c-282 0-512-230-512-512s230-512 512-512c282 0 512 230 512 512s-230 512-512 512zM434 276l-236 234 90 92 146-146 308 308 90-90z" />
<glyph unicode="&#xe017;" glyph-name="checkmark" d="M866 912l-480-480-226 224-160-160 384-384 640 640z" />
<glyph unicode="&#xe018;" glyph-name="circle" d="M1024 512c0-282-230-512-512-512s-512 230-512 512c0 282 230 512 512 512s512-230 512-512z" />
<glyph unicode="&#xe019;" glyph-name="clock-2" d="M512 1024c-282 0-512-230-512-512s230-512 512-512c282 0 512 230 512 512s-230 512-512 512zM658 274l-210 212v282h128v-230l174-172z" />
<glyph unicode="&#xe01a;" glyph-name="clock-3" d="M704 576h-128v128c0 36-28 64-64 64s-64-28-64-64v-192c0-36 28-64 64-64h192c36 0 64 28 64 64s-28 64-64 64zM512 1024c-282 0-512-230-512-512s230-512 512-512c282 0 512 230 512 512s-230 512-512 512zM512 128c-212 0-384 172-384 384s172 384 384 384c212 0 384-172 384-384s-172-384-384-384z" />
<glyph unicode="&#xe01b;" glyph-name="close" d="M1024 890l-134 134-378-376-378 376-134-134 376-378-376-378 134-134 378 378 378-378 134 134-376 378z" />
<glyph unicode="&#xe01c;" glyph-name="cloud-download" d="M890 676c-2 130-108 234-236 234-76 0-144-36-188-92-24 32-62 52-106 52-74 0-134-58-134-134 0-6 0-12 2-20-12 2-24 4-36 4-104 0-192-86-192-192 0-108 88-196 194-196h98l220-218 218 218h120c96 0 174 78 174 174 0 84-56 152-134 170zM512 204l-192 194h128v190h128v-192h128z" />
<glyph unicode="&#xe01d;" glyph-name="coffee" d="M0 266h990c0-40-14-74-42-102-28-26-60-40-100-40h-706c-40 0-74 14-102 40-26 28-40 62-40 102zM142 458v408c0 8 2 16 10 24 6 8 14 10 24 10h636c58 0 108-20 150-62 40-42 62-92 62-150s-20-108-62-150c-42-40-92-62-150-62h-34v-18c0-34-14-62-38-86s-52-38-86-38h-388c-34 0-64 14-88 38s-36 52-36 86zM778 582h34c30 0 54 10 74 32 22 20 32 46 32 74 0 30-10 54-32 74-20 22-46 32-74 32h-34z" />
<glyph unicode="&#xe01e;" glyph-name="collapse" d="M786 146l148-146 90 90-146 148 146 146h-384v-384zM0 640h384v384l-146-146-146 144-90-90 144-146zM0 90l90-90 148 146 146-146v384h-384l146-146zM640 640h384l-146 146 144 146-90 90-146-144-146 146z" />
<glyph unicode="&#xe01f;" glyph-name="colleagues" d="M488 490c-8 8-18 18 0 42 16 24 62 96 62 150-2 56-50 140-136 140-84 0-128-68-132-134-8-76 50-130 68-156 16-22 2-32-2-40-6-10-20-16-116-58-10-4-18-8-24-14 52-52 124-86 202-86 82 0 156 36 208 94-8 6-12 10-18 10-20 12-106 46-112 52zM994 176l-212 214c-36-62-86-110-148-148l212-212c40-40 106-40 148 0 40 42 40 108 0 146zM762 408c36 60 58 132 58 206 0 228-186 410-410 410-226 0-410-184-410-410 0-224 184-410 410-410 74 0 146 22 206 58 62 34 112 84 146 146zM410 308c-40 0-78 6-114 20-44 18-80 44-112 76-50 56-82 128-82 210 0 170 138 308 306 308 170 0 306-138 308-308 0-78-30-152-80-206-32-36-72-62-116-80-34-14-72-20-110-20z" />
<glyph unicode="&#xe020;" glyph-name="commuting" d="M1022 586c-4 18-22 28-42 24l-18-6-48 94c-12 26-48 48-78 48h-246c-28 0-64-22-76-48l-48-94-20 6c-16 4-36-6-42-24-4-16 6-36 24-42h4c-2-6-2-12-2-18v-116c0-2 0-4 0-4 0-2 0-4 0-4v-108c0-20 16-36 34-36h54c20 0 36 16 36 36v50c44-6 100-8 160-8s116 2 160 8v-50c0-20 16-36 36-36h52c20 0 36 16 36 36v106c0 2 0 4 0 4 0 2 0 4 0 4v118c0 6 0 12-2 18h4c18 6 28 26 22 42zM562 674c4 8 20 18 28 18h246c8 0 26-10 30-18l40-80c0-14-86-24-194-24-106 0-192 10-192 24zM524 448c-32 2-56 12-54 44 4 38 24 38 60 32 20-4 66-22 62-52-2-32-36-26-68-24zM758 378h-92c-10 0-18 10-18 20s8 18 18 18h92c12 0 20-8 20-18 2-10-8-20-20-20zM902 448c-32-4-66-8-70 24-2 30 44 48 62 52 38 6 58 6 62-32 2-32-22-42-54-44zM4 294c-8-12-6-26 6-34s26-6 34 6c4 6 42 62 80 116l-30 44c-42-64-86-128-90-132zM74 724c0-24 20-44 44-44s44 20 44 44c0 26-20 46-44 46s-44-22-44-46zM340 478h-34v16c0 6-4 8-8 8h-18c0 4 0 8-4 14-2 4-92 136-92 136-8 10-18 14-28 14h-70c-10 0-18-4-24-12 0 0-42-58-52-70-2-4-4-8-2-12 0-10 0-56 0-70 0-10 8-18 18-18s18 8 18 18c0 4 0 44 0 66 6 6 16 20 26 36v-88c0-22 4-38 14-52 30-46 128-188 136-198 6-12 22-14 32-6 12 8 16 22 8 34-2 2-24 32-50 72h132c6 0 12 4 12 10v90c-2 6-6 12-14 12zM220 494v-16h-34c-6 0-10-6-10-12v-50c-4 4-8 12-12 16v182c24-36 62-90 76-112h-12c-4 2-8-2-8-8zM288 478h-50v8h50z" />
<glyph unicode="&#xe021;" glyph-name="compensation-leave" d="M710 826c-58 0-118-18-160-46v-70c42 36 100 58 160 58 140 0 254-114 254-254 0-142-114-254-252-254-62 0-120 22-162 58v-72c42-28 102-46 160-46 174-2 314 138 314 312s-140 314-314 314zM708 722c-64 0-126-28-158-74v-270c32-46 94-74 158-74 116 0 210 94 210 208 0 116-94 210-210 210zM766 626l-6-44c-10 8-22 14-40 14s-32-2-44-16c-6-6-10-12-12-22h92l-6-30h-88c0 0 0-6 0-10s0-12 0-12h84l-6-30h-76c4-10 8-20 12-28 12-12 24-18 42-18 22 0 28 6 48 18v-50c-20-6-28-10-48-10-30 0-56 10-76 32-16 16-24 34-28 56h-26l6 30h16c0 0 0 4 0 8 0 6 0 12 0 12h-22l6 32h20c4 20 12 34 28 50 20 22 46 30 78 30 20 0 26-6 46-12zM448 858v-102c-10 14-44 28-74 38h2v32h62v-6c0 50-36 90-88 90h-66c-50 0-94-38-94-90v6h72v-40c-144-28-262-156-262-312 0-174 136-318 312-318 50 0 106 12 136 34v-74h82v742zM312 230c-136 0-242 108-242 244 0 134 106 242 240 242 52 0 108-16 138-44v-196h-134v200c-114 0-200-92-200-202 0-112 86-202 198-202 54 0 116 22 136 58v-54c-32-30-84-46-136-46z" />
<glyph unicode="&#xe022;" glyph-name="consignment" d="M482 118h-224c-10 0-20 4-26 12-6 6-10 16-10 26v224c162 0 294 132 294 294 0 2 0 4 0 6l40 34 334-276c0 0 0-2 0-2v-280c0-20-16-36-36-36h-224v224h-148v-226zM972 424h-2c-4 0-10 0-12 4l-402 334-46-38c-6 34-16 66-32 94l34 30c26 20 62 20 88 0l142-118v112c0 4 2 10 4 14 4 2 8 4 14 4h112c4 0 10-2 12-4 4-4 6-10 6-14v-236l126-106c4-4 6-8 6-12 0-6 0-10-4-14l-34-42c-4-4-8-8-12-8zM302 564l-98 96v130h60v-104l78-80zM234 906c-128 0-234-104-234-234s104-234 234-234c130 0 234 104 234 234s-104 234-234 234zM234 496c-96 0-174 80-174 176 0 98 78 174 174 174 98 0 176-78 176-174s-80-176-176-176z" />
<glyph unicode="&#xe023;" glyph-name="contacts-tel" d="M158 980c-40 0-70-32-70-70v-104h62c54 0 98-50 98-110s-44-110-98-110h-62v-170h62c54 0 98-50 98-110s-44-110-98-110h-62v-82c0-40 30-70 70-70h646c40 0 72 30 72 70v796c0 38-32 70-72 70zM440 818c4 0 6 2 10 0 6-2 10-8 14-14l76-126c4-6 6-14 6-20-2-6-6-12-12-16l-52-30c-2-2-6-6-10-10s-6-12-6-20c0-14 6-26 12-42 20-42 44-80 66-110 18-24 30-42 40-50 12-6 22-10 34-2l52 32c12 6 28 4 36-8l72-126c6-10 2-28-10-36l-56-36c-10-4-22-8-42-8-20 2-44 8-70 22-56 26-124 84-194 204-66 116-82 200-78 258 4 60 26 90 44 102l58 34c2 2 6 2 10 2zM926 882v-188h98v188zM926 634v-186h98v186zM926 390v-188h98v188zM40 738h124c24 0 42-18 42-42s-18-42-42-42h-124c-22 0-40 18-40 42s18 42 40 42zM40 348h124c24 0 42-18 42-42 0-22-18-42-42-42h-124c-22 0-40 18-40 42s18 42 40 42z" />
<glyph unicode="&#xe024;" glyph-name="contracts" d="M604 164v-164l50 50 50-50v164c-16-8-34-10-50-10s-34 4-50 10zM738 272c0-46-38-84-84-84s-84 38-84 84c0 46 38 84 84 84s84-38 84-84zM704 790h168l-202 234v-200c0-22 18-34 34-34zM638 824v200h-418c-38 0-68-30-68-66v-770c0-38 30-68 68-68h350v72c-20 20-34 50-34 80 0 62 54 116 118 116 62 0 116-54 116-116 0-34-14-62-34-80v-72h66c38 0 68 30 68 68v568h-166c-36 0-66 30-66 68zM252 908h282v-54h-282zM772 476h-520v54h520zM772 596h-520v54h520z" />
<glyph unicode="&#xe025;" glyph-name="cutlery" d="M484 982v-288c0-16-46-54-80-76v-86c16-6 30-22 30-38v-452c0-24-20-42-42-42h-30c-24 0-42 18-42 42v452c0 18 12 34 28 38v84c-34 24-86 62-86 78v288c0 24 12 42 36 42h16v-302c0-6 8-12 20-12s20 6 20 12v302h38v-302c0-6 10-12 20-12 12 0 22 6 22 12v302h6c24 0 44-18 44-42zM718 1016c0 0-112-72-112-264 0-16 0-30 0-38 0-190 42-274 70-322v-362c0-16 14-30 30-30h22c18 0 30 14 30 30v380c2 2 2 4 2 8v556c0 24-8 56-42 42z" />
<glyph unicode="&#xe026;" glyph-name="datepicker" d="M898 1024v-194h-260v194h-254v-194h-258v194h-126v-1024h1024v1024zM126 124v580h772v-580h-772zM192 1024h128v-128h-128zM704 1024h128v-128h-128zM254 576h128v-128h-128zM254 382h128v-128h-128zM446 576h128v-128h-128zM448 382h128v-128h-128zM638 578h128v-128h-128zM640 386h128v-128h-128z" />
<glyph unicode="&#xe027;" glyph-name="deduct-type" d="M0 616h1024v-206h-1024z" />
<glyph unicode="&#xe028;" glyph-name="disability" d="M700 178c-18 18-46 20-66 4-46-40-106-62-168-62-148 0-270 122-270 272 0 66 26 128 68 178 14 14 14 38 0 52-10 10-20 20-28 30-8 8-18 12-30 12-10 0-20-4-28-12-22-24-42-50-58-80-28-56-44-118-44-180 0-214 176-388 390-388 62 0 124 14 178 42 24 12 46 28 66 44 10 8 18 22 18 34 2 14-4 28-14 38zM344 834c52 0 96 42 96 94s-44 96-96 96c-52 0-96-44-96-96s44-94 96-94zM948 70l-60 328c-4 20-16 38-32 50-14 8-28 12-44 12-6 0-10 0-16 0l-272-54c0 0-2 0-2 0-8 0-14 4-16 10l-22 112 190 32c30 6 50 34 44 64-4 26-26 44-54 44-2 0-6 0-8 0l-194-34-24 122c-4 30-30 50-58 50-4 0-8 0-12-2-14-2-30-10-38-24s-12-28-8-44l78-400c4-20 14-36 32-48 12-8 28-14 44-14 4 0 10 0 14 2l274 54c4 0 8 0 12-2 2-2 4-6 6-10l48-268c4-30 30-50 58-50 4 0 6 0 12 2 14 2 28 10 36 24 10 12 14 28 12 44z" />
<glyph unicode="&#xe029;" glyph-name="document-file" d="M798 858c-10 10-20 20-28 28-12 10-20 20-30 30-68 68-108 106-150 106h-314c-86 0-158-70-158-156v-708c0-88 72-158 158-158h472c86 0 158 70 158 158v550c0 42-40 82-108 150zM826 158c0-42-34-78-78-78h-472c-42 0-78 34-78 78v710c0 42 34 78 78 78h288c28-6 26-42 26-76v-122c0-22 18-40 40-40h118c38 0 78 0 78-38z" />
<glyph unicode="&#xe02a;" glyph-name="document-financial" d="M876 736l-206 248c-24 28-44 42-82 42h-380c-54 0-98-52-98-116v-794c0-64 44-116 98-116h610c54 0 98 52 98 116v520c-2 50-10 68-40 100zM474 854h152c20 0 32-16 32-32v-22c0-20-12-32-32-32h-152zM158 684v20c0 4 4 8 8 8h24v16h-24c-6 0-8 4-8 8v18c0 6 4 8 8 8h30v4c8 26 22 48 44 64 16 12 36 20 56 22 30 6 60 2 86-10 4 0 4 0 6-2 8-4 8-8 6-16-4-6-6-16-10-22s-8-8-14-8c-4 2-8 2-12 4-6 0-10 2-16 4-20 4-40 4-60-4-16-6-26-18-34-34 0 0 0 0 0-2h58c6 0 8-4 8-8v-18c0-6-4-8-8-8h-66c0-4 0-8 0-12v-4h66c6 0 8-4 8-8v-20c0-6-4-8-8-8h-60c6-20 20-38 40-44 18-6 36-6 54-2 6 2 12 2 16 4s8 2 12 4 12 0 14-8c4-6 8-14 12-22 2-6 0-12-6-16-8-2-16-6-24-8-30-8-60-8-90 2-36 10-60 36-74 70-2 6-2 10-4 16l-2 6h-30c-2-2-6 0-6 6zM848 224c0-20-16-32-32-32h-612c-18 0-30 16-30 32v22c0 20 12 32 30 32h612c20 0 32-16 32-32zM848 416c0-20-16-32-32-32h-612c-18 0-30 16-30 32v22c0 20 12 32 30 32h612c20 0 32-16 32-32zM820 576h-342v86h338c20 0 32-16 32-32l2-22c0-20-14-32-30-32z" />
<glyph unicode="&#xe02b;" glyph-name="document-new" d="M894 854c-10 10-18 18-30 30-10 10-18 18-32 32-64 70-108 108-146 108h-316c-82-4-152-74-152-162v-332h78v332c0 44 36 80 80 80h288c26-10 26-44 26-80v-118c0-22 18-38 40-38h116c40 0 80 0 80-40v-510c0-44-36-78-80-78h-462v-80h462c86 0 156 70 156 158v550c2 44-38 82-108 148zM450 280h-154v152c0 10-4 14-12 14h-84c-8 0-12-4-12-14v-152h-154c-8 0-12-4-12-14v-82c0-10 4-14 12-14h154v-152c0-10 4-14 12-14h84c8 0 12 4 12 14v152h154c8 0 12 4 12 14v82c0 8-4 14-12 14z" />
<glyph unicode="&#xe02c;" glyph-name="document-person" d="M642 0c0 0-14 46 56 78 68 32 78 36 82 42 2 8 10 16 0 32-10 18-52 58-48 114 4 52 34 100 94 100s94-62 96-104c2-42-32-98-44-114-10-16-4-24 0-30 6-4 68-30 80-38 14-8 48-32 48-82 2 0-364 2-364 2zM656 1024c12 0 28-8 36-16l106-124c6-8 14-24 14-38v-462c-4 0-8 0-10 0-62 0-106-50-110-102-4-44 22-80 40-102 4-4 6-8 8-12 8-14 4-20 2-26-2-2-2-2-2-4-4-6-14-12-84-42-70-32-56-78-56-78s0-6 0-16h-470c-64 0-114 50-114 112v798c0 62 50 112 114 112zM172 198h484c14 0 28 12 28 28 0 14-14 26-28 26h-484c-16 0-28-12-28-26 0-16 12-28 28-28zM172 426h484c14 0 28 12 28 26 0 16-14 28-28 28h-484c-16 0-28-14-28-28s12-26 28-26zM172 654h484c14 0 28 12 28 26 0 16-14 28-28 28h-484c-16 0-28-12-28-28 0-14 12-26 28-26zM650 834h94c14 0 18 8 8 18l-110 120c-10 12-18 8-18-6v-106c0-16 10-26 26-26z" />
<glyph unicode="&#xe02d;" glyph-name="document-single" d="M790 1008c-6 8-24 16-36 16h-528c-62 0-114-50-114-112v-800c0-62 50-112 114-112h572c62 0 112 50 112 112v734c0 14-6 30-14 38 2 0-106 124-106 124zM756 198h-488c-16 0-26 12-26 28 0 14 12 26 26 26h488c16 0 26-12 26-26 0-16-10-28-26-28zM756 426h-488c-16 0-26 12-26 26 0 16 12 28 26 28h488c16 0 26-14 26-28s-10-26-26-26zM756 654h-488c-16 0-26 12-26 26 0 16 12 28 26 28h488c16 0 26-12 26-28 0-14-10-26-26-26zM844 834h-96c-14 0-26 12-26 26v106c0 12 8 16 18 6l110-120c10-10 8-18-6-18z" />
<glyph unicode="&#xe02e;" glyph-name="document-travel" d="M88 948v-948h686c26 0 52 14 66 36 54 2 96 46 96 100v788c0 56-44 100-98 100h-684zM358 344h100v-142c-44 8-80 64-100 142zM400 210c-76 20-138 68-176 132h108c16-58 38-104 68-132zM352 366c-6 34-12 70-12 110h118v-110zM340 498c0 40 6 76 12 110h106v-110zM358 630c20 78 56 132 100 142v-142zM332 630h-108c38 66 100 114 176 132-30-26-52-72-68-132zM328 608c-8-34-10-72-12-110h-132c2 38 12 76 26 110zM316 476c2-40 6-76 12-110h-118c-14 34-24 70-26 110zM540 762c74-18 138-66 176-132h-110c-14 60-38 106-66 132zM716 344c-38-66-102-114-176-134 28 30 52 76 66 134zM582 630h-100v142c42-10 80-64 100-142zM588 608c6-34 12-72 12-110h-118v110zM600 476c-2-40-6-76-14-110h-104v110zM582 344c-20-78-58-134-100-142v142zM728 366h-116c6 34 10 70 10 110h132c0-40-10-76-26-110zM622 498c0 40-4 76-10 110h116c16-34 24-70 26-110zM898 136c0-28-20-52-46-58 0 0 0 2 0 2v788c0 44-36 80-80 80h-624l32 36h658c32 0 60-26 60-60z" />
<glyph unicode="&#xe02f;" glyph-name="dossier" d="M968 94h-902l-66 520c0 34 34 38 34 38h944c46 0 46-44 46-44zM86 900c0 0 34 30 52 30s232 0 232 0c0 0 56-10 72-106h484c0 0 36 6 46-20l28-84-964 4z" />
<glyph unicode="&#xe030;" glyph-name="drawer" d="M898 1024l68-572-76-8-60 510h-636l-60-510-76 10 68 570zM256 896h512v-64h-512zM256 768h512v-64h-512zM256 640h512v-64h-512zM256 512h512v-64h-512zM992 384h-960c-18 0-28-14-22-30l108-324c4-16 24-30 42-30h704c16 0 36 14 42 30l108 324c6 16-4 30-22 30zM640 256h-256v64h256z" />
<glyph unicode="&#xe031;" glyph-name="edit" d="M0 312l310-312h-310zM1024 714l-658-660-308 312 654 658zM776 884l-560-562 42-44 562 564z" />
<glyph unicode="&#xe032;" glyph-name="edit-document-file" d="M740 274l88 88v-362h-828v816l244 208h582v-110l-86-88v124h-402v-214h-250v-664h652zM378 410l198-198h-198zM1014 652l-418-420-194 200 416 416zM856 758l-356-356 28-28 356 358zM860 830c0-14-12-26-26-26s-26 12-26 26c0 14 12 26 26 26s26-12 26-26zM1024 670c0-14-12-24-26-24s-26 10-26 24c0 16 12 26 26 26 14 2 26-10 26-26zM848 850l168-162-28-32-162 160z" />
<glyph unicode="&#xe033;" glyph-name="education" d="M1024 622v24l-512 246-512-246v-24l512-246zM178 492v-148l308-148h52l306 148c0 2 2 2 2 2v146l-334-162zM970 266v286l-40-20v-266l-26-80 40-54h12l40 54z" />
<glyph unicode="&#xe034;" glyph-name="envelope" d="M0 224c0-50 38-86 84-86h854c50 0 84 40 84 86v576c0 50-38 86-84 86h-854c-48 0-84-40-84-86zM316 512l-198 196c-16 16-16 44 0 60s42 16 60 0l310-312c12-12 34-12 48 0l308 312c18 16 44 16 60 0s16-44 0-60l-194-196 196-194c16-16 16-44 0-60-18-16-44-16-60 0l-194 194c0 0-62-60-72-72-16-16-40-26-66-26s-50 10-68 26c-12 10-72 70-72 70l-194-194c-16-16-42-16-60 0-16 16-16 44 0 60z" />
<glyph unicode="&#xe035;" glyph-name="error" d="M512 1024c-282 0-512-230-512-512s230-512 512-512c282 0 512 230 512 512s-230 512-512 512zM512 96c-230 0-416 186-416 416s186 416 416 416c230 0 416-186 416-416s-186-416-416-416zM512 800c-36 0-64-20-64-50v-284c0-30 28-50 64-50s64 20 64 50v284c0 30-28 50-64 50zM512 352c-34 0-64-28-64-64 0-34 30-62 64-62s64 28 64 62c0 36-30 64-64 64z" />
<glyph unicode="&#xe036;" glyph-name="error-alt" d="M512 1024c-282 0-512-230-512-512s230-512 512-512c282 0 512 230 512 512s-230 512-512 512zM576 402v-94c0-4 0-8-4-12-2-4-6-4-10-4h-98c-4 0-8 0-12 4-2 4-4 6-4 12v94c0 4 2 8 4 12 4 2 8 4 12 4h98c4 0 8-2 10-4 4-4 6-8 4-12zM576 492c0-2 0-4-4-8-4-2-8-2-12-2h-94c-4 0-8 0-12 2-4 4-6 6-6 8l-8 224c0 4 0 6 4 10s8 6 12 6h112c4 0 8-2 12-6s4-6 4-10z" />
<glyph unicode="&#xe037;" glyph-name="euro" d="M144 374v82c0 6 2 10 8 16 4 4 10 8 16 8h48c-2 26-2 52 0 76h-50c-6 0-12 2-16 6s-6 10-6 16v84c0 6 2 12 6 16s10 6 16 6h72c34 102 92 184 178 246s182 94 290 94c50 0 96-6 142-16 4-2 10-6 14-12 4-4 4-10 2-18l-32-114c0-6-4-12-10-16-4-2-10-4-18-2l-2 2c-2 0-6 0-8 2l-12 2c0 0-6 0-18 2-10 2-16 2-18 2 0 0-8 0-22 2-12 2-18 2-20 2-62 0-116-16-166-46-48-32-84-74-108-128h340c8 0 14-4 18-10 6-6 6-12 6-18l-18-84c-2-12-10-18-24-18h-354c0-18 0-42 0-76h334c8 0 14-4 18-10s6-12 4-20l-16-82c-2-4-4-10-8-12-6-4-10-6-16-6h-280c22-56 58-102 108-134 48-34 104-52 166-52 8 0 16 0 26 2 10 0 16 2 24 2s16 2 22 4c8 0 12 2 18 4 4 0 8 2 14 2l8 2 4 2c6 2 12 2 18-2 6-2 10-8 12-16l26-112c0-6 0-12-2-18-4-4-8-8-12-10h-4c-2-2-4-2-8-2s-8-2-12-4c-4 0-10-2-14-4-6 0-12-2-20-4-6 0-12-2-20-4-8 0-16-2-26-2-8-2-16-2-26-2-8 0-18-2-28-2-114 0-212 32-296 96-86 62-142 148-174 256h-68c-6 0-12 2-16 6-8 4-10 10-10 16z" />
<glyph unicode="&#xe038;" glyph-name="exclamation" d="M398 228h228v-228h-228zM398 1024h228v-684h-228z" />
<glyph unicode="&#xe039;" glyph-name="eyeglasses" d="M1022 554c0 20-16 38-36 40l-16 2-212 156c-40 30-92 40-140 26-18-4-28-22-24-40 6-18 24-28 40-24 30 8 62 2 86-16l126-94c-26 0-52-2-78-6-40-6-78-14-116-24l-22-4c-78-16-156-16-234-2l-24 4c-38 12-78 20-118 24-24 6-52 6-76 8l126 92c24 18 56 24 84 16 18-4 36 6 42 24 4 18-8 36-24 42-50 12-100 2-142-28l-210-154-16-2c-20-4-36-20-36-42l-2-34c-2-18 10-34 24-40 6-2 10-8 10-14l6-70c8-84 78-148 162-150l78-2c58 0 110 30 142 80l62 110c4 6 16 8 26 8 0 0 6 0 6 0 10 0 20-4 24-8l64-112c30-48 84-78 140-78l78 2c84 2 154 68 162 152l6 68c0 6 4 12 8 14 16 6 28 22 26 40zM824 530c12 0 22 0 32-2 26-4 56-22 58-54l2-72c2-26-6-48-24-66-16-18-40-28-64-30 0 0-60-2-64-2-110 0-142 110-144 114-4 22 0 44 10 62 12 18 32 30 52 34 62 12 108 16 142 16zM260 306c-4 0-64 2-64 2-24 2-48 12-64 30s-26 40-24 66l2 72c2 32 30 50 58 54 36 4 94 0 174-12 22-4 40-18 52-34 10-20 14-40 10-62-2-6-34-116-144-116z" />
<glyph unicode="&#xe03a;" glyph-name="family" d="M146 698c0 0-30 2-44-66-16-68 24-294 24-294l44-64 8-270 224 2v162l-44 64c0 0-20 204-22 224-10 74 58 62 58 62s240 4 264 0c24-4 30-16 38-42 8-28-16-240-16-240l-42-62-4-174h230v254l46 64c0 0 22 266 16 294-14 68-60 68-60 68l-240 2c0 0 18-122-116-122-132 0-102 138-102 138zM438 878c0-82-66-146-146-146-82 0-146 64-146 146 0 80 66 146 146 146s146-66 146-146zM880 840c0-76-60-138-138-138-76 0-138 62-138 138 0 78 62 138 138 138s138-62 138-138z" />
<glyph unicode="&#xe03b;" glyph-name="filter-off" d="M1024 88l-134 134 130 130-56 58-130-132-132 132-60-58 132-132-132-134 60-56 130 132 132-132zM632 938h-420v-60h418zM848 992v-108l-316-314v-316h-216v316l-316 316v108z" />
<glyph unicode="&#xe03c;" glyph-name="filter-on" d="M720 826h-418v-60h416zM936 880v-106l-316-316v-316h-216v316l-316 318v106z" />
<glyph unicode="&#xe03d;" glyph-name="finances" d="M982 460c8 12 14 26 10 42l-122 458c-6 28-34 42-60 36l-774-204c-26-6-42-34-34-60l120-460c8-26 34-42 62-36l272 74v-154c0-86 142-130 284-130 140 0 284 46 284 130v234c-2 28-16 52-42 70zM894 618l12-46-154-42-12 48c0 0 154 40 154 40zM804 920l24-90-240-66-22 92c0 0 238 64 238 64zM696 566l12-46c-56-4-112-14-156-30l-10 36zM164 374l-12 46 154 42 12-48c0 0-154-40-154-40zM348 474l152 40 14-44c-4-2-8-6-12-8l-140-36zM972 160c0-50-104-92-232-92s-232 42-232 92v58c0 2 2 2 2 4 8-46 108-84 230-84 124 0 222 38 232 84 0-2 2-2 2-4zM972 270c0-50-104-90-232-90s-232 40-232 90v56c0 2 2 2 2 4 8-46 108-84 230-84 124 0 222 38 232 84 0-2 2-2 2-4zM740 300c-128 0-232 40-232 90s104 92 232 92c128 0 230-42 230-92s-102-90-230-90z" />
<glyph unicode="&#xe03e;" glyph-name="fitness" d="M436 642c0-64-52-114-114-114-64 0-116 50-116 114s52 114 116 114c62 0 114-50 114-114zM900 326v-268c0-32 24-56 56-56s58 24 58 56v300c0 16-8 34-22 46-4 2-112 84-190 120l-256 118v144c46 18 78 62 78 116 2 66-54 122-122 122s-124-56-124-124c0-54 34-100 82-116v-170c-6-12-26-54-26-88 0-24 14-44 38-54l238-94M502 856c-24 0-46 20-46 44s22 46 46 46c24 0 44-22 44-46s-20-44-44-44zM844 312l-716 186v456c0 34-26 60-60 60-32 0-58-26-58-60v-890c0-34 26-60 60-60 32 0 60 26 60 60v312l518-136v-176c0-32 26-58 60-58 32 0 58 26 58 58v144l50-12c30-8 62 10 72 42 6 32-12 66-44 74z" />
<glyph unicode="&#xe03f;" glyph-name="flag" d="M800 852c76 0 146 42 192 72v-596c-46-30-116-72-192-72-78 0-144 22-192 54-46 32-116 54-192 54-78 0-146-38-192-70v596c46 32 114 70 192 70 76 0 146-22 192-54 48-32 116-54 192-54zM96 1024c36 0 64-28 64-64v-960h-128v960c0 36 28 64 64 64z" />
<glyph unicode="&#xe040;" glyph-name="food" d="M798 268h-38c-18 0-22 10-24 18 0 2 0 4 0 6 0 38-12 166-80 266l-8 14c-2 4-2 12 12 2 60-52 152-154 156-290 0-6-4-16-18-16zM598 712c0-6-2-28-30-24 0 0-2 0-2 0-18 2-36 2-54 2-20 0-40-2-60-4-2 0-4 0-6 0-22-2-26 10-26 16v34c0 26 22 48 48 48h84c26 0 48-22 48-48zM1000 268h-26c-28 0-28 28-28 28-16 164-122 302-270 362 0 0-2 0-2 0-22 10-24 34-24 34v62c0 40-32 74-72 74h-132c-40 0-72-34-72-74v-70c-2-8-4-18-20-24 0 0-2 0-2 0-150-60-258-198-276-364 0 0-2-28-30-28h-18c-6 0-28-2-28-26v-18c0-8 4-28 30-28h962c26 0 30 18 32 26v20c0 22-16 26-24 26z" />
<glyph unicode="&#xe041;" glyph-name="generate" d="M942 1024h-860c-46 0-82-36-82-78v-864c0-46 36-82 82-82h860c46 0 82 36 82 82v864c-6 42-40 78-82 78zM150 956c30 0 56-26 56-56 0-36-26-64-56-64-32 0-58 28-58 58 0 36 26 62 58 62zM890 118h-766v664h762zM380 316l16-16c6-72 6-72 16-72l46-16h10c0 0 10 6 46 52h20c52-46 56-46 62-40l46 24c6 6 10 6 0 74l16 14c40 6 60 6 66 12h6l14 52c6 4 6 10-50 52v20c46 52 46 58 40 62l-26 46c-4 6-4 10-76 0l-16 16c-4 72-4 72-14 72l-46 16h-12c0 0-10-6-46-52h-20c-50 46-56 46-62 40l-46-24c-4-6-10-6 0-74l-10-10c-40-4-60-4-66-10h-6l-16-52c0-6-4-10 52-52v-20c-46-54-46-58-42-64l26-46c2-10 2-14 72-4zM474 528c40 20 92 4 112-36 22-42 6-94-36-114-40-20-92-6-112 36-26 40-10 92 36 114zM298 956c30 0 56-26 56-56 0-32-26-58-56-58s-56 26-56 58c0 30 26 56 56 56z" />
<glyph unicode="&#xe042;" glyph-name="gift-box" d="M0 704v-128h448v192h-384c-36 0-64-28-64-64zM896 928c0 52-40 96-128 96-82 0-148-36-192-80-18 10-42 18-66 18-22 0-44-6-62-18-46 44-110 80-192 80-88 0-128-44-128-96 0-54 40-96 128-96h512c88 0 128 42 128 96zM398 896h-142c-28 0-64 6-64 32s36 32 64 32c64 0 112-30 144-60zM622 900c32 30 82 60 146 60 28 0 64-4 64-32 0-26-36-30-64-30h-146zM64 64c0-36 28-62 62-62h320v510h-382zM960 768h-382v-192h446v128c0 36-28 64-64 64zM578 0h318c36 0 64 28 64 64v448h-382z" />
<glyph unicode="&#xe043;" glyph-name="go" d="M768 956c-244 140-558 56-700-188-140-244-56-558 188-700 244-140 558-56 700 188 140 244 56 558-188 700zM866 308c-112-196-364-264-558-150-196 112-264 364-150 558 112 196 364 264 558 150 196-112 264-364 150-558zM484 694c-20 20-52 20-72 0s-20-52 0-74l110-108-110-108c-20-22-20-52 0-74 20-20 52-20 74 0l144 146c2 2 4 4 6 8 6 8 8 18 8 28 0 14-6 26-16 36z" />
<glyph unicode="&#xe044;" glyph-name="group" d="M220 366c0 72 0 366 0 366s0 16 8 36c-76 0-154 0-154 0s-74 0-74-72v-256c0-74 72-74 72-74v-366h220v292c0 0-72 0-72 74zM220 804c18 0 36 6 52 14 2 2 4 2 6 4 32 20 50 54 50 92 0 60-48 110-108 110-62 0-110-50-110-110s48-110 110-110zM952 768h-156c8-20 8-36 8-36s0-294 0-366c0-74-72-74-72-74v-292h218v366c0 0 72 0 72 72s0 256 0 256c0 0 2 74-70 74zM746 822c2 0 4-2 6-4 16-8 34-14 52-14 62 0 110 50 110 110s-48 110-110 110c-60 0-108-50-108-110 0-38 18-72 50-92zM622 914c0-60-50-110-110-110s-110 50-110 110c0 60 50 110 110 110s110-50 110-110zM732 696c0 0 0 72-74 72-18 0-292 0-292 0s-74 0-74-72v-256c0-74 74-74 74-74v-366h292v366c0 0 74 0 74 72s0 258 0 258z" />
<glyph unicode="&#xe045;" glyph-name="hamburger" d="M0 962h1024v-182h-1024zM0 608h1024v-184h-1024zM0 244h1024v-182h-1024z" />
<glyph unicode="&#xe046;" glyph-name="hammer-law" d="M1024 198v-52c0-18-16-34-34-34h-400c-18 0-34 16-34 34v52c0 18 16 34 34 34h400c18-2 34-16 34-34zM966 456l-12 34c-8 18-26 30-46 32 0 2-2 4-2 6l-12 24c8 6 14 10 16 18s2 16 0 24l-54 130c-6 18-24 24-40 20l-10 26c-2 2-2 4-4 6 14 14 20 36 12 54l-14 34c-12 28-42 48-72 48-12 0-22-2-30-6l-172-70c-40-16-60-62-44-102l14-34c8-18 26-30 46-32 0-2 0-4 2-6l10-26c-8-4-12-8-16-16-2-6-2-14 0-20l-8-4c-8-4-14-10-20-18-2-6-2-12-2-18l-126-52c-4 2-6 4-10 6-8 2-16 2-24 0l-328-136c-16-6-26-26-18-44l26-62c2-8 10-14 18-20 4-2 8-2 14-2 4 0 8 0 12 2l328 136c12 6 18 16 20 28l126 52c4-4 10-8 16-10 4-2 8-4 12-4s8 2 12 2l8 4c8-10 18-18 30-18 2 0 6 0 8 2l12-26c0-2 2-4 2-6-14-14-18-36-10-54l14-34c12-30 40-48 72-48 10 0 20 2 30 6l172 70c40 18 60 64 42 104z" />
<glyph unicode="&#xe047;" glyph-name="handshake" d="M260 736l178 136c24 18 52 30 82 36 30 4 60 0 90-10l284-110c18-6 38-10 58-10h48c2 0 6 0 8-2 4 0 6-2 8-4s4-6 6-10c0-2 2-6 2-8v-348c0-6-4-14-8-18-4-6-10-8-16-8h-64c-8 0-16-2-24-8l-14-10c-2-2-4-2-6-2s-4 0-6 2l-330 402c-6 6-10 8-18 10-6 0-12 0-18-4l-152-84c-14-10-32-14-48-16-18 0-36 2-50 10-6 2-10 6-14 10s-6 10-8 16c0 4 0 10 2 16 0 6 4 12 10 14zM24 380h54l36 46c12 14 26 24 42 30 18 6 34 6 52 2s32-12 46-22c12-14 22-28 26-44 16-4 32-14 42-26 12-10 22-26 26-42 22-6 42-22 54-44 20-2 40-12 54-28 16-14 24-34 26-56s-2-44-14-62l-4-10c10-6 20-8 30-10 12 0 22 4 32 10 8 6 16 14 20 24s4 22 2 32c0 0 0 2 0 2s0 0 2 0c0 0 0 0 0 0s2 0 2 0l4-4c10-10 22-16 34-16 14-2 26 2 36 10 8 6 16 14 20 24s6 20 4 30c0 0 0 2 0 2s0 0 0 0 2 0 2 0c0 0 0 0 0 0l4-4c10-8 22-16 34-16 14-2 26 2 38 10 8 6 14 14 18 24s6 20 4 30c0 0 0 2 0 2s0 0 0 0 2 0 2 0c0 0 0 0 0 0l4-4c10-8 22-14 32-16 12-2 26 2 36 8 6 4 12 10 16 16 4 8 8 14 8 24 2 8 2 16-2 22-2 8-6 16-10 22l-34 40-270 326c0 2-2 4-4 4s-4 0-6-2l-130-72c-20-12-42-18-66-20s-48 0-70 10c-12 4-24 12-32 20-10 10-18 20-22 32-2 12-4 26-2 38 2 14 4 26 12 36 0 2 0 4 0 6s0 6-2 8c0 2-2 2-4 4-2 0-4 2-6 2h-176c-2 0-6-2-8-2-4-2-6-4-8-6s-4-6-6-8c0-4-2-6-2-10v-348c0-6 4-12 8-16 4-6 10-8 16-8zM214 404c-10 6-22 8-32 6-12-2-22-8-30-18l-36-44c-4-4-6-10-8-16s-2-12-2-18c2-6 2-12 6-18 2-6 6-10 12-14l6-4c6-6 16-10 24-10 10 0 20 2 28 6 0 0 0 0 0 0s2 0 2 0c0 0 0 0 0 0s0-2 0-2c-2-8 0-18 2-24 4-8 8-16 14-20l4-4c8-4 16-8 26-8 8-2 16 0 24 4 0 0 2 0 2 0s2 0 2 0c0 0 0 0 0 0s0-2 0-2c0-8 0-16 4-24 2-6 8-12 14-18l2-2c8-6 16-10 26-10 8-2 16 0 24 4 0 0 2 0 2 0s0 0 0 0 2 0 2 0c0 0 0-2 0-2 2-10 8-20 18-28l2-2c4-4 10-8 18-10 6-2 12-2 20 0s14 4 18 8c6 4 10 10 14 16l8 12c4 10 8 20 6 32-2 10-6 20-16 28-6 6-14 10-24 12-8 0-18 0-26-4 0 0 0 0-2 0 0 0 0 0 0 0s0 0 0 0 0 0 0 2c0 8-2 14-4 22-4 8-8 14-14 18s-14 6-22 8c-8 0-16 0-22-4-8 0-6 6-6 6 4 8 4 18 2 28-2 8-8 16-14 24-8 6-16 10-26 12-10 0-20-2-28-6-4-2-4 4-4 4 6 10 8 22 6 34-4 10-12 20-22 26z" />
<glyph unicode="&#xe048;" glyph-name="help" d="M642 402c12 22 42 52 86 88 66 52 112 96 132 134 22 36 32 72 32 112 0 94-42 170-126 226-60 42-142 62-242 62-126 0-222-28-286-90-62-60-98-138-106-236l266-32c4 52 20 90 40 112s46 34 80 34c30 0 52-8 66-22 16-14 22-32 22-58s-18-54-56-84c-70-58-114-98-136-120-20-22-34-46-44-76-12-28-14-64-14-108v-26h268c0 34 4 62 18 84zM354 246h278v-246h-278z" />
<glyph unicode="&#xe049;" glyph-name="help-documents" d="M954 84h-882v796h882zM578 372c6 10 22 26 46 46 36 28 58 50 70 70 10 18 16 38 16 58 0 48-22 88-66 118-32 22-74 32-126 32-66 0-116-16-148-46-34-32-52-74-56-124l140-18c2 28 10 48 22 58 10 12 24 16 42 16 14 0 26-4 34-10 8-8 12-18 12-32 0-12-10-26-30-42-36-30-58-52-70-64-10-12-18-26-22-40-6-14-8-32-8-56v-14h136c0 22 2 36 8 48zM430 160h144v130h-144zM72 866c-2 6-8 60 32 104 30 36 78 54 142 54 56 0 90 0 130-2 86 0 194-2 558 2l2-66c-366-4-474-2-560-2-40 0-74 2-128 2-46 0-76-10-94-32s-16-52-16-52zM72 100c0 0 0-100 78-100 44 0 804 0 804 0v100z" />
<glyph unicode="&#xe04a;" glyph-name="home-dashboard" d="M0 1024h446v-448h-446zM0 444h446v-444h-446c0 0 0 444 0 444zM578 1024h446v-448h-446zM578 444h446v-444h-446z" />
<glyph unicode="&#xe04b;" glyph-name="hotel-bed" d="M1004 532h-50c-12 0-20-10-20-20v-44h-34v176c0 10-10 18-20 18h-530c-12 0-20-8-20-18v-176h-86c42 12 74 50 74 96 0 54-44 98-98 98-56 0-100-44-100-98 0-46 32-84 74-96h-104v306c0 12-10 20-20 20h-50c-12 0-20-10-20-20v-524c0-12 10-20 20-20h50c12 0 20 10 20 20v78h844v-78c0-12 10-20 20-20h50c12 0 20 10 20 20v262c0 12-10 20-20 20z" />
<glyph unicode="&#xe04c;" glyph-name="id" d="M978 768h-188c0-76-62-140-138-140h-280c-78 0-140 64-140 140h-186c-26 0-46-22-46-48v-652c0-24 20-46 46-46h932c26 0 46 22 46 46v652c0 26-20 48-46 48zM488 164c0-12-10-24-24-24h-324c-14 0-24 12-24 24v348c0 12 10 24 24 24h324c14 0 24-12 24-24zM884 232h-278c-26 0-46 20-46 46s20 46 46 46h278c26 0 46-20 46-46s-20-46-46-46zM884 396h-278c-26 0-46 20-46 46 0 24 20 46 46 46h278c26 0 46-22 46-46 0-26-20-46-46-46zM304 488c-52 0-94-42-94-92s42-92 94-92c50 0 92 42 92 92s-42 92-92 92zM376 304c-20-16-46-26-72-26s-52 10-72 26c-38-24-64-66-68-114 14-2 38-4 72-4h136c34 0 58 2 72 4-4 48-32 90-68 114zM652 862c0 78-62 140-138 140-78 0-140-62-140-140-52 0-92-42-92-92s42-92 92-92h280c50 0 92 42 92 92s-42 92-94 92zM514 814c-26 0-48 20-48 46s22 46 48 46c24 0 46-20 46-46s-22-46-46-46z" />
<glyph unicode="&#xe04d;" glyph-name="ikb" d="M350 724c14-22 100-34 140-34 42 2 128 20 124 56-6 66 34 156 42 168 16 26 18 78-50 54-16-6-56-46-72 0-28 86-96 62-110 6-10-36-52-40-98-34-54 6-60-30-42-58 8-18 50-130 66-158zM642 680c-10 4-26-42-148-46-112-4-144 36-150 36-164-58-302-224-302-394 0-218 124-276 470-276s470 58 470 276c0 180-168 354-340 404zM626 506l-16-78c-16 16-40 24-72 24-30 0-56-12-74-34-10-14-18-22-22-50h154l-8-44h-152c0 0 0-6 0-12 0-8 0-16 0-16h144l-8-44h-130c4-28 10-38 20-50 20-20 44-34 76-34 36 0 58 10 86 32v-86c-28-14-54-18-86-18-54 0-100 20-136 58-24 26-40 56-48 98h-42l8 44h28c0 0 0 4 0 10 0 8 0 18 0 18h-36l8 44h32c8 42 22 70 48 96 36 36 82 58 140 58 36 0 58-4 86-16z" />
<glyph unicode="&#xe04e;" glyph-name="ikb-payout" d="M968 294c-56-32-136-62-216-74-68-12-202 16-202 48 0 12 116-30 186-10 54 14 46 64 18 70-30 8-200 70-272 72-36 2-120-12-160-18-14-2-22-2-24-16-4-62-12-188-16-256 0-2 2-20 18-8 16 14 40 32 62 26 36-8 336-64 378-54 60 16 228 114 260 146 50 46 10 98-32 74zM216 382l-158 10c-12 0-26-10-28-22l-28-260c-4-12 4-22 16-22h174c12-2 24 8 24 20l20 252c0 12-8 22-20 22zM122 122c-24 0-44 20-44 44s20 44 44 44c24 0 44-20 44-44s-20-44-44-44zM750 404c-150 0-274 122-274 272 0 152 124 274 274 274 152 0 274-122 274-274 0-150-122-272-274-272zM750 900c-122 0-222-100-222-224 0-122 100-222 222-222 124 0 222 100 222 222 0 124-98 224-222 224zM806 778l-10-40c-8 8-20 12-36 12-14 0-28-6-38-18-4-6-8-14-12-24h80l-4-22h-78c0-2 0-6 0-8 0-4 0-8 0-10h74l-4-22h-66c2-12 6-20 12-26 10-10 22-16 38-16 18 0 32 6 44 16v-44c-12-6-26-8-44-8-28 0-52 8-70 28-12 14-20 30-24 50h-22l4 22h14c0 2 0 4 0 6 0 4 0 10 0 14h-18l4 22h18c4 20 12 34 24 48 18 20 42 28 72 28 16 0 30-2 42-8zM748 862c-102 0-184-82-184-184s82-184 184-184c100 0 182 82 182 184s-82 184-182 184z" />
<glyph unicode="&#xe04f;" glyph-name="inbox" d="M816 968h-608l-208-534v-380h1024v386zM700 420v-120c0-32-26-58-56-58h-264c-32 0-58 26-58 58v120h-210l170 440h458l172-440zM586 788h-140v-170h-134l204-248 204 248h-134c0 0 0 170 0 170z" />
<glyph unicode="&#xe050;" glyph-name="info" d="M512 1024c-282 0-512-230-512-512s230-512 512-512c282 0 512 230 512 512s-230 512-512 512zM602 162h-180v426h180zM512 664c-56 0-100 44-100 98 0 56 44 100 100 100s100-44 100-100c0-54-44-98-100-98z" />
<glyph unicode="&#xe051;" glyph-name="info-square" d="M0 1020v-1016h1024v1016c0 0-1024 0-1024 0zM606 166h-178v422h178zM520 664c-56 0-100 44-100 98 0 56 44 100 100 100 54 0 98-44 98-100 0-54-44-98-98-98z" />
<glyph unicode="&#xe052;" glyph-name="key-2" d="M632 596c10 32 18 66 18 102 0 180-146 326-326 326-180-2-324-146-324-326 0-178 144-326 326-326 36 0 70 6 102 18l74-74h158v-158h158v-158h206v206zM254 658c-58 0-108 48-108 108s50 108 108 108c60 0 110-48 110-108s-46-108-110-108z" />
<glyph unicode="&#xe053;" glyph-name="layers" d="M1024 606l-512-256-508 254h-2l-2-124 512-256 512 256zM0 792l512 232 512-228v-92l-512-256-512 256zM1024 380l-512-256-508 256h-2l-2-124 512-256 512 256z" />
<glyph unicode="&#xe054;" glyph-name="leave" d="M950 40c-62 72-172 128-304 150-14 78-36 114-38 116 10 4 22 6 36 2 18-4 28-14 36-24 2-4 8-2 8 2 2 6 2 12 0 18-6 18-20 30-36 34-12 2-24 2-32-4 8 8 18 14 32 20 28 8 54 4 74-8 4-2 8 0 6 4-2 12-10 24-22 34-20 18-48 26-74 18-8-4-14-8-22-12 0 2 2 2 2 2 18 22 40 32 62 32 6 0 8 6 4 10-8 6-18 10-30 14-28 6-58-2-76-26-6-8-10-18-12-26-8 6-18 10-28 12-28 8-56-2-76-22-8-10-14-20-16-30 0-4 4-8 8-6 20 12 42 18 70 10 2 0 2 0 2 0-8 0-16-2-24-4-26-8-44-30-50-56-4-16-2-28 2-38 0-4 6-4 8 0 8 20 26 38 54 48 14 4 26 4 36 4-10-2-20-6-28-16-12-14-14-32-8-50 2-6 6-12 10-16 4-2 8 0 8 4-2 12 2 28 14 40 10 10 20 16 30 16 0 0 16-40 18-96-26 2-56 4-84 4-68 0-136-8-194-24 12 270 178 450 178 450 22-12 38-34 50-62 14-38 12-74-2-102-4-8 6-16 14-12 12 6 24 14 34 26 28 32 38 76 22 114-10 24-28 44-50 56 26-8 52-20 78-40 54-44 78-98 80-150 0-10 12-14 20-8 16 22 30 48 36 84 8 62-14 126-64 166-16 12-34 20-50 26 2 0 4 0 4 0 68-8 114-38 144-80 8-10 22-6 24 6 2 24 0 48-12 74-24 66-78 114-146 120-24 2-48-2-70-8 2 22 0 46-6 70-22 64-80 106-146 116-30 6-56 2-78-6-10-4-12-18-2-22 48-20 90-60 114-122 0-2 0-4 2-6-10 16-24 32-40 44-48 40-116 46-174 24-34-14-58-32-74-56-6-6 0-16 10-14 54 10 112 0 166-44 26-20 44-42 58-66-18 18-40 32-68 36-40 6-80-14-104-48-12-12-16-26-20-40-2-8 8-14 16-10 24 20 58 30 98 24 32-6 58-18 76-38-2-2-204-152-336-612-8-10-16-16-24-26-12-16-2-40 20-40h834c22 0 34 24 22 40z" />
<glyph unicode="&#xe055;" glyph-name="license-car" d="M1022 652c-10 28-40 46-68 38l-34-12-78 156c-20 44-80 80-128 80h-404c-48 0-106-36-128-80l-78-156-34 12c-28 8-58-10-68-38-8-28 8-60 36-68l10-2c-4-10-6-20-6-32v-190c0-2 0-6 0-8s0-4 0-6v-178c0-32 26-58 60-58h88c32 0 58 26 58 58v82c74-8 164-12 264-12s190 4 264 12v-82c0-32 26-58 58-58h88c34 0 60 26 60 58v178c0 2 0 4-2 6 0 2 2 6 2 8v190c0 12-2 22-6 32l10 2c28 8 44 40 36 68zM262 796c6 12 32 30 48 30h404c16 0 42-16 48-30l68-132c0-22-142-38-318-38s-318 18-318 38zM200 422c-52 6-94 22-90 72 6 66 40 64 100 52 32-6 108-32 104-86-4-50-62-42-114-38zM588 308h-152c-18 0-32 14-32 32 0 20 14 34 32 34h152c18 0 32-14 32-34 0-16-14-32-32-32zM824 422c-52-4-110-12-114 38-4 54 70 80 104 86 60 12 94 14 98-52 4-50-36-66-88-72z" />
<glyph unicode="&#xe056;" glyph-name="life-savings" d="M536 690c-56 0-112-10-164-26-52 64-126 86-218 60-6-2-14-8-16-16-4-4 0-16 4-18 42-42 60-84 52-128-24-24-44-52-58-82h-16c-30 0-58-28-58-56v-124c0-32 28-60 58-60h56c10-14 24-28 38-38v-144c0-32 24-60 58-60h60c32 0 60 26 60 60v50c96-28 210-26 310 4v-54c0-32 24-60 58-60h58c32 0 60 28 60 62v156c50 50 78 114 78 174-6 166-194 300-420 300zM252 482c-14 0-24 10-24 24s12 24 24 24c16 0 26-10 26-24s-10-24-26-24zM680 560c-4-12-16-18-28-18-36 8-74 18-114 18-50 0-96-6-140-24-6-4-8-4-12-4-8 0-16 4-20 16s4 24 14 28c48 16 100 24 156 24 44 0 86-6 126-16 12 0 20-14 18-24zM682 722c-60 0-110 50-110 110s50 112 110 112c60 0 110-50 110-110-2-62-52-112-110-112zM682 922c-50 0-88-40-88-88 0-50 38-88 88-88s88 38 88 88c0 48-40 88-88 88zM704 872l-4-14c-4 2-8 4-14 4-8 0-12-2-18-4-2-2-2-6-6-8h32l-4-8h-30v-4c0 0 0-2 0-4h30l-2-8h-28c0-4 2-8 4-12 4-6 8-6 14-6 10 0 16 4 18 6v-16c-6-4-12-4-18-4-10 0-18 4-26 12-6 6-8 12-12 20h-8l2 8h6v2c0 4 0 4 0 6h-8l2 8h6c4 8 6 14 8 20 8 8 16 10 28 10 18-2 22-6 28-8zM680 908c-42 0-72-34-72-72 0-40 34-72 72-72s74 28 74 70c0 42-34 74-74 74zM876 656c-48 0-86 40-86 86 0 48 38 86 86 86 46 0 86-38 86-86 0-50-40-86-86-86zM876 812c-40 0-70-32-70-70 0-40 30-70 70-70 38 0 70 30 70 70 0 38-32 70-70 70zM892 772l-2-14c-4 2-6 2-12 2s-8-2-10-4-4-6-4-8h24l-2-8h-24v-6h22l-4-10h-18c0-2 2-4 2-8 4-2 8-4 12-4s10 2 14 4v-14c-4-2-8-2-14-2-8 0-16 2-24 8-2 2-4 8-8 16h-4l2 8h6v4c0 2 0 2 0 2h-6l4 8h4c0 6 4 12 10 14 4 6 14 10 22 10 2 6 8 6 10 2zM874 800c-32 0-58-24-58-58s24-58 58-58c30 0 58 24 58 58s-26 58-58 58zM876 852c-48 0-86 38-86 86s38 86 86 86c46 0 86-38 86-86s-40-86-86-86zM876 1010c-40 0-70-32-70-70s30-70 70-70c38 0 70 32 70 70 0 36-32 70-70 70zM892 972l-2-14c-4 2-6 4-12 4s-8-2-10-4-4-6-6-8h24l-2-8h-24v-8h22l-4-8h-18c0-2 2-4 2-8 4-2 8-4 12-4s10 2 14 4v-10c-4-4-8-4-14-4-8 0-16 4-24 8-2 4-4 8-8 16h-4l4 6h6v4c0 4 0 4 0 4h-6l4 8h4c0 4 4 10 10 14 4 4 14 8 22 8 2 2 8 0 10 0zM874 996c-32 0-58-24-58-58s24-58 58-58c30 0 58 24 58 58s-26 58-58 58z" />
<glyph unicode="&#xe057;" glyph-name="lifetime-leave" d="M326 574l258-42c14-2 28 6 30 20l2 8c2 14-8 28-22 30l-258 44c-14 2-28-8-30-22l-2-8c-2-14 8-26 22-30zM978 250c-102-62-196-98-284-114l28 238 12 94c66 364 138 400 146 402 0 0 4 2 8-2l-2 2 66 58c-16 16-52 40-96 26-56-18-140-84-206-474l-242 40-58 10-36 8-10 2-82-308c-104 68-162 142-168 150-10 12-30 16-42 6s-16-28-6-40c56-76 176-184 330-240 80-28 158-42 240-42 142 0 288 44 434 134 12 8 18 26 10 40-10 12-26 18-42 10zM588 122c-102-2-194 22-270 56l64 248 238-38z" />
<glyph unicode="&#xe058;" glyph-name="link" d="M436 588c8 8 20 14 32 14s24-6 32-14l88-88c4-2 8-4 12-4s8 2 12 4l88 88c2 4 4 8 4 12s-2 8-4 12l-88 88c-40 38-90 58-144 58s-106-20-144-58l-264-264c-38-38-60-90-60-144s22-106 60-144l88-88c38-38 88-58 142-58 56 0 106 20 144 58l150 150c4 6 6 12 2 18-2 6-8 10-14 10 0 0 0 0 0 0-6 0-10 0-16 0-40 0-82 10-118 32-2 0-4 2-8 2s-8-2-12-6l-94-94c-8-8-20-14-32-14s-24 6-32 14l-88 88c-10 10-14 20-14 32 0 14 4 24 14 34zM964 876l-88 88c-38 38-90 60-144 60s-106-22-144-60l-148-148c-6-6-6-14-4-20 4-6 8-8 14-8 0 0 2 0 2 0 4 0 10 0 16 0 42 0 82-12 118-32 2-2 4-2 8-2s8 2 12 4l94 94c8 10 20 14 32 14s24-4 32-14l88-88c20-18 20-46 0-64l-264-264c-8-10-20-14-32-14s-24 6-32 14l-88 88c-4 2-8 4-12 4s-8-2-12-4l-88-88c-6-6-6-18 0-24l88-88c38-38 90-58 144-58s106 20 144 58l264 264c38 38 58 90 58 144s-20 106-58 144z" />
<glyph unicode="&#xe059;" glyph-name="list-ul" d="M0 220c0 30 10 56 32 76 22 22 46 32 78 32 30 0 56-10 78-32 20-20 32-46 32-76 0-32-12-58-32-78-22-22-48-32-78-32-32 0-56 10-78 32-22 20-32 48-32 78zM0 512c0 30 10 56 32 78s46 32 78 32c30 0 56-10 78-32 20-22 32-48 32-78s-12-56-32-78c-22-22-48-32-78-32-32 0-56 10-78 32s-32 48-32 78zM0 804c0 32 10 58 32 78 22 22 46 32 78 32 30 0 56-10 78-32 20-20 32-46 32-78 0-30-12-56-32-76-22-22-48-32-78-32-32 0-56 10-78 32-22 20-32 46-32 76zM292 164v110c0 6 2 10 6 14s8 4 14 4h694c6 0 10-2 14-4 4-4 6-8 6-14v-110c0-4-4-8-6-12-4-4-8-6-14-6h-694c-6 0-10 2-14 6-4 2-6 8-6 12zM292 456v112c0 4 2 8 6 12s8 6 14 6h694c6 0 10-2 14-6s6-8 6-12v-110c0-6-4-10-6-14-4-4-8-4-14-4h-694c-6 0-10 2-14 4-4 4-6 8-6 12zM292 750v110c0 4 2 8 6 12s8 6 14 6h694c6 0 10-2 14-6s6-8 6-12v-110c0-6-4-10-6-14-4-4-8-4-14-4h-694c-6 0-10 2-14 4-4 4-6 8-6 14z" />
<glyph unicode="&#xe05a;" glyph-name="location" d="M512 1024c-208 0-376-168-376-376 0-54 10-106 30-152 4-8 10-18 14-28l326-468 338 468c4 10 10 18 14 28 20 46 30 98 30 152 0 208-168 376-376 376zM510 868c120 0 220-98 220-220 0-120-100-220-220-220s-220 98-220 220c0 122 98 220 220 220z" />
<glyph unicode="&#xe05b;" glyph-name="lock" d="M930 490v-420c0-38-30-68-68-68h-700c-38 0-68 30-68 68v420c0 38 30 70 68 70h24v138c0 90 32 166 96 230s140 96 230 96c90 0 166-32 230-96 62-64 96-140 96-230v-138h22c40 0 70-32 70-70zM326 698v-138h372v138c0 102-84 186-186 186s-186-84-186-186z" />
<glyph unicode="&#xe05c;" glyph-name="logout" d="M0 846h414l-162-116-132-2v-554h688v184l126 100v-402h-934zM1024 680l-360-288v144c-240 8-386-98-506-218 0 284 250 506 506 508v142z" />
<glyph unicode="&#xe05d;" glyph-name="man-profile" d="M348 382c0 2 0 2-2 2-6 6-12 2-18-10-10-16-42-40-78-56 0 0-190-68-250-106v-212h1024v208c-50 34-246 104-246 104-4 0-8 2-10 4-34 14-64 36-74 52v0c-2 2-2 2-2 4v0l-2 2c-4 8-10 12-14 8-6-2-4 0-6 8-6 14-14 30-16 34-2 8-2 12-6 20l2 36c4 4 6 8 8 10 12 14 14 52 20 60 6 10 18 12 30 56 12 42 28 104 12 104-4 0-8-2-14-6 4 16 10 52 10 78 2 36-4 124-22 158-14 20-38 40-62 56-14 8-26 16-42 22-34 16-148 8-186 0-44-10-74-38-94-70-20-34-28-132-26-166 0-16 10-42 12-60 0-8 2-8 4-14 0 2-4 2-6 2-16-2 0-62 12-106 12-42 24-44 30-54 8-10 8-48 20-62 2-2 6-4 8-8l2-30c0-6-2-10-2-16-6-18-10-34-16-52z" />
<glyph unicode="&#xe05e;" glyph-name="management" d="M366 974c-12 12-30 12-42 0-10-10-10-28 0-40l52-52c-188-8-342-158-358-344l4 8c12 22 36 34 60 34 0 0 0 0 0 0 34 134 150 236 292 244l-50-50c-10-12-10-30 0-40 6-6 14-10 22-10 6 0 14 4 20 10l100 100c6 4 8 12 8 20s-2 16-8 20c0 0-100 100-100 100zM1006 478c-2-32-30-54-62-56-26-144-148-254-296-264l50 50c10 12 10 30 0 40-12 12-30 12-42 0l-100-100c-12-10-12-30 0-40l100-100c6-6 14-10 20-10 8 0 16 4 22 10 10 10 10 28 0 40l-52 52c200 10 360 176 360 378zM780 1024c-62-2-114-56-106-122 4-58 46-120 106-122 0 0 0 0 2 0 60 2 100 64 106 122 6 64-46 120-106 122-2 0-2 0-2 0zM706 780c-70-18-130-18-130-110v-124c0-38 24-50 54-50h304c28 0 50 26 50 50v124c0 94-66 94-128 110-20-20-48-70-76-70-30 0-58 52-74 70zM244 564c-60 0-112-56-106-122 6-58 46-120 106-122 0 0 0 0 2 0 60 2 100 64 106 122 6 64-44 122-106 122-2 0-2 0-2 0zM170 320c-68-16-130-16-130-110v-124c0-36 24-50 54-50h306c28 0 48 26 48 50v124c0 94-66 96-128 110-20-18-48-70-76-70s-56 52-74 70z" />
<glyph unicode="&#xe05f;" glyph-name="manager" d="M4 22c0 0-36 122 154 208 190 84 220 94 230 114 8 20 32 38 2 82-34 50-150 160-136 310 12 134 94 268 264 268s264-168 270-282c6-110-92-256-122-300-34-46-14-66 0-80 14-12 184-82 224-104 38-20 134-86 134-216 2-4-1020 0-1020 0zM512 322l-122-236h246z" />
<glyph unicode="&#xe060;" glyph-name="map-process" d="M404 816h-360v82h444v-246h-84zM806 374c-22-2-42-2-64 0-24 4-42 26-42 50 2 10-4 18-12 22-8 2-20 0-24-6-18-18-46-20-66-4-16 12-32 28-46 44-14 20-12 48 6 64 6 6 10 16 6 24s-12 14-20 14h-2c-14 0-30 6-40 20h-414c-48 0-88-40-88-88v-308c0-48 38-88 88-88h670c48 0 88 40 88 88v204c-4-18-20-34-40-36zM1022 626c-2-6-8-12-14-12h-4c-22 0-42-12-50-34-10-20-4-46 14-62 4-4 6-14 0-18-12-14-24-28-40-40-6-4-14-4-18 2-14 16-40 22-62 14-20-10-34-30-32-54 0-6-6-12-14-14-18-2-38-2-56 0-6 2-12 8-12 14 2 24-12 46-34 56-20 8-46 2-62-16-6-4-14-6-18 0-14 12-28 26-40 40-4 6-4 14 2 18 18 16 22 40 14 62-10 22-30 34-52 34-6 0-14 4-16 12-2 18-2 38 0 56 2 8 8 12 14 12 26 0 46 14 54 34 10 22 4 46-14 62-4 6-6 14 0 20 12 14 26 26 40 38 6 6 14 6 18-2 14-16 40-22 62-14 20 10 34 30 34 54 0 6 4 14 12 14 18 2 38 2 56 0 8 0 12-8 12-14 0-24 12-46 34-54 20-8 48-2 62 14 6 4 14 6 18 0 16-10 28-24 40-40 4-6 4-14-2-18-22-20-24-54-4-78 10-10 26-18 42-18 6 0 14-4 16-12 4-18 4-36 0-56zM858 656c0 46-36 82-82 82s-84-36-84-82c0-46 38-84 84-84s82 38 82 84z" />
<glyph unicode="&#xe061;" glyph-name="maternity-leave" d="M294 458h4l314 286h-170v252h-148c-162 0-294-120-294-268 0-150 132-270 294-270zM932 926l-698-636 62-54 132 120 132-120 60 54-132 122 52 46h208c54 0 100 42 100 92v188l120 108h56v80zM812 136c0-60-48-106-106-106s-104 46-104 106c0 58 46 104 104 104s106-46 106-104zM144 240c-60 0-106-46-106-104 0-60 46-106 106-106 58 0 104 46 104 106 0 58-46 104-104 104z" />
<glyph unicode="&#xe062;" glyph-name="menu-2" d="M0 914h1024v-218h-1024zM0 622h1024v-220h-1024zM0 328h1024v-218h-1024z" />
<glyph unicode="&#xe063;" glyph-name="message-bubble" d="M898 922h-756c-66 0-142-58-142-116v-456c0-52 64-90 126-96l-40-152 260 152h552c64 0 126 40 126 98v454c0 58-62 116-126 116zM258 538c-38 0-68 30-68 68s32 66 68 66c38 0 68-30 68-66 0-38-30-68-68-68zM512 538c-38 0-68 30-68 68s32 66 68 66c38 0 68-30 68-66 0-38-30-68-68-68zM766 538c-38 0-68 30-68 68 0 36 32 66 68 66 38 0 68-30 68-66 0-38-30-68-68-68z" />
<glyph unicode="&#xe064;" glyph-name="moon" d="M902 232c-50-16-102-26-154-26-268 0-486 220-486 488 0 108 34 212 100 298 4 4 4 8 0 12-2 4-8 6-12 4-210-68-350-262-350-484 0-282 230-510 510-510 160 0 308 74 404 200 4 4 4 10 0 14-2 4-6 4-12 4zM652 722l74 54 74-54-28 88 74 54h-92l-28 88-28-88h-92l74-54zM1024 704h-38l-12 36-12-36h-38l32-22-12-36 30 22 32-22-12 36z" />
<glyph unicode="&#xe065;" glyph-name="navicon" d="M0 128v84c0 12 4 22 12 30s18 14 32 14h938c12 0 22-4 30-12s12-18 12-30v-84c0-12-4-22-12-30s-18-12-30-12h-938c-12 0-22 4-30 12-10 6-14 16-14 28zM0 468v86c0 12 4 22 12 30s18 12 30 12h938c12 0 22-4 30-12s12-18 12-30v-86c0-10-4-20-12-28s-18-12-30-12h-936c-12 0-22 4-30 12-10 8-14 18-14 28zM0 812v84c0 12 4 22 12 30s18 14 32 14h938c12 0 22-6 30-14s12-18 12-28v-86c0-12-4-22-12-30-10-10-18-14-32-14h-936c-12 0-22 4-30 12s-14 18-14 32z" />
<glyph unicode="&#xe066;" glyph-name="network-people" d="M798 504c-20 0-38-2-58-8-8 40-28 78-54 106 32 40 52 90 52 146 0 124-102 224-226 224s-226-100-226-226c0-54 20-104 52-144-26-30-46-66-54-106-18 4-38 6-58 6-124 2-226-100-226-224s102-226 226-226c106 0 194 72 218 170 22-6 44-10 68-10 22 0 46 6 68 10 24-98 112-170 218-170 124 0 226 100 226 226 0 124-102 226-226 226zM512 958c114 0 210-94 210-212 0-114-94-210-210-210-114 0-210 94-210 210s94 212 210 212zM226 66c-114 0-210 94-210 212 0 114 94 210 210 210 114 0 212-94 212-210-2-118-98-212-212-212zM512 242c-22 0-40 4-60 10 0 8 2 16 2 22 0 94-56 174-138 210 8 34 22 66 46 92 40-38 92-58 150-58s112 22 152 58c22-26 38-58 46-92-82-36-138-116-138-210 0-8 0-14 2-22-22-6-42-10-62-10zM798 66c-114 0-212 94-212 212 0 114 94 210 212 210 114 0 210-94 210-210-2-118-96-212-210-212zM376 634c0 0-10 32 42 56 52 22 60 26 62 30 4 6 8 10 0 22-10 14-40 44-38 84 4 36 24 70 72 70 46 0 70-44 72-74 2-32-24-70-34-82-6-10-4-18 0-22 6-4 52-22 60-28 10-6 38-22 38-58 2 2-274 2-274 2zM510 962c-118 0-214-96-214-214s98-212 214-212c116 0 212 94 212 210 0 118-96 216-212 216zM664 166c0 0-10 32 42 56 52 22 58 26 60 30 6 6 10 10 0 22-8 14-38 44-36 82 4 38 24 72 70 72s72-46 74-76c2-30-26-68-34-80s-4-18 0-22c4-4 50-22 60-28s36-24 36-58c4 0-272 2-272 2zM798 492c-120 0-214-96-214-214 0-116 96-212 214-212 116 0 212 94 212 210 0 118-96 216-212 216zM92 166c0 0-10 32 42 56 52 22 60 26 62 30 4 6 8 10 0 22-10 14-40 44-38 82 4 38 26 72 72 72s70-46 72-76c2-30-24-68-32-80s-4-18 0-22c4-4 50-22 58-28 10-6 38-24 38-58 2 0-274 2-274 2zM226 492c-118 0-212-96-212-216 0-118 96-212 212-212 118 0 214 96 214 212 0 118-96 216-214 216z" />
<glyph unicode="&#xe067;" glyph-name="new" d="M1024 616h-410v408h-204v-408h-410v-208h410v-408h204v408h410z" />
<glyph unicode="&#xe068;" glyph-name="new-multi-doc" d="M930 658c0 18-18 36-38 36 0 0-504 0-504 0-34 0-42 18-42 34s12 32 44 32c0 0 408 0 408 0 14 0 24 10 24 22s-10 22-24 22h-510c-34 0-42 20-42 34 0 16 14 34 44 34 0 0 412 0 412 0 12 0 22 8 22 20 0 14-10 22-22 22h-514c-34 0-40 18-40 34s12 32 42 32c0 0 414 0 414 0 12 0 24 12 24 22 0 12-12 22-24 22h-428c-46 0-82-40-82-84v-638c0-46 36-82 82-82h16v-28c0-46 38-82 82-82h18v-28c0-46 38-82 82-82h472c44 0 82 36 82 82 2 0 2 576 2 576z" />
<glyph unicode="&#xe069;" glyph-name="newfield" d="M1002 686l-94 164-302-174v348h-188v-348l-302 174-94-164 300-174-300-174 94-164 302 174v-348h188v348l302-174 94 164-300 174z" />
<glyph unicode="&#xe06a;" glyph-name="news" d="M138 696l-84-74 84-72zM832 498v386h-638v-386l320-278zM310 786h410c16 0 30-12 30-28 0-14-12-28-28-28h-412c-16 0-28 14-28 28 0 16 12 28 28 28zM310 650h410c16 0 30-12 30-28 0-14-12-28-28-28h-412c-16 0-28 14-28 28s12 28 28 28zM282 486c0 14 14 28 30 28h410c16 0 28-12 28-28 0-14-12-28-28-28h-412c-16 0-28 12-28 28zM888 696v-148l84 74zM38 560v-522l280 278zM664 278l-132-118c-10-10-26-10-36 0l-136 118-282-278h868zM514 1024l-96-82h190zM708 314l278-276v520z" />
<glyph unicode="&#xe06b;" glyph-name="no-file-uploaded" d="M878 694c10 30 14 60 12 92-8 130-118 236-246 238-104 0-198-64-234-162-38 30-88 46-136 42-74-10-134-58-158-128-10-30-14-64-8-96-66-32-108-100-108-174 0-108 80-186 192-186h22v320h432l166-166v-154h20c112 0 194 78 194 186 0 88-62 166-148 188zM596 596h-340v-596h512v428h-172zM340 406h194v-44h-194zM684 106h-344v44h342v-44zM684 278v-44h-344v44z" />
<glyph unicode="&#xe06c;" glyph-name="no-results" d="M666 706c-4 4-12 8-20 8h-302c-36 0-64-28-64-64v-458c0-36 28-66 64-66h326c36 0 66 30 66 66v422c0 6-4 16-8 20zM648 240h-280c-8 0-14 8-14 16s6 16 14 16h280c8 0 14-8 14-16s-6-16-14-16zM648 372h-280c-8 0-14 6-14 16 0 8 6 14 14 14h280c8 0 14-6 14-14 0-10-6-16-14-16zM648 502h-280c-8 0-14 8-14 16s6 16 14 16h280c8 0 14-8 14-16s-6-16-14-16zM696 606h-54c-8 0-14 6-14 14v62c0 8 4 10 8 4l64-68c6-8 4-12-4-12zM520 794h6v12h10v6h-10v12h-6v-12h-10v-6h10zM268 770h-4v-12h-12v-6h12v-12h4v12h12v6h-12zM160 636h-6v-10h-10v-6h10v-12h6v12h12v6h-12zM88 792c-30 0-56-26-56-56 0-12 2-22 8-30l-40-38 20-20 40 40c8-6 18-10 30-10 30 0 56 26 56 58 0 30-28 56-58 56zM88 694c-24 0-42 18-42 42 0 22 18 42 42 42s42-20 42-42c0-24-18-42-42-42zM896 752l20 20-40 40c6 8 8 18 8 28 0 32-24 58-56 58-30 0-56-26-56-58 0-30 26-56 56-56 10 0 20 4 30 8zM828 798c-24 0-42 18-42 42s18 42 42 42c22 0 42-18 42-42s-20-42-42-42zM1024 302l-40 38c6 10 8 20 8 30 0 30-26 56-56 56s-56-26-56-56c0-32 26-56 56-56 10 0 20 2 28 8l40-40zM936 326c-24 0-42 20-42 42 0 24 18 42 42 42s42-18 42-42c0-22-20-42-42-42zM784 666c0-10-8-18-18-18-8 0-16 8-16 18s8 18 16 18c10 0 18-8 18-18zM850 638h-4v-12h-12v-6h12v-12h4v12h12v6h-12zM806 764h-6v-12h-10v-4h10v-12h6v12h10v4h-10zM802 540c0-10-8-18-18-18s-18 8-18 18c0 10 8 18 18 18s18-8 18-18zM228 684c0-10-8-18-18-18-8 0-16 8-16 18s8 18 16 18c10 0 18-8 18-18zM232 570c0-10-8-18-16-18-10 0-18 8-18 18 0 8 8 16 18 16 8 0 16-8 16-16zM422 792c0-10-6-16-16-16s-18 6-18 16c0 10 8 18 18 18s16-8 16-18zM680 770c0-10-8-18-18-18s-16 8-16 18c0 10 6 18 16 18s18-8 18-18z" />
<glyph unicode="&#xe06d;" glyph-name="ok" d="M122 692l298-300 482 484 122-124-604-604-420 420z" />
<glyph unicode="&#xe06e;" glyph-name="organization" d="M512 1004l-512-274v-84h1024v84zM86 588h170v-356h-170zM426 588h170v-360h-170zM768 588h170v-360h-170zM0 180h1024v-160h-1024z" />
<glyph unicode="&#xe06f;" glyph-name="overdue" d="M728 728c-16 16-48 46-100 68-38 16-78 24-116 24v-308c104 14 206 28 310 40-10 40-32 112-94 176zM512 1024c-282 0-512-230-512-512s230-512 512-512c282 0 512 230 512 512s-230 512-512 512zM512 102c-226 0-410 184-410 410s184 410 410 410c226 0 410-184 410-410s-184-410-410-410z" />
<glyph unicode="&#xe070;" glyph-name="overtime2" d="M1024 72h-782v336c24-2 48-2 72 2v-266h640v458h-414c10 30 16 62 16 94 0 36-8 74-20 106h234v-86c0-38 30-68 68-68 36 0 68 30 68 68 0 6 0 16 0 24s0 18 0 28v36h118zM788 206h-80v84h80zM676 206h-80v84h80c0 0 0-84 0-84zM562 206h-80v84h80zM450 206h-82v84h82c0 0 0-84 0-84zM904 318h-82v84h82zM788 318h-80v84h80zM676 318h-82v84h82zM562 318h-80v84h80zM450 318h-82v84h82zM904 430h-82v80h82zM788 430h-78v80h80zM676 430h-82v80h82zM562 430h-78v72c2 4 4 6 6 8h74zM838 674c-18 0-32 14-34 32 0 0 0 2 0 2v124c0 18 14 34 32 34 20 2 34-14 34-32 0 0 0-2 0-2v-126c2-16-12-32-30-34-2 2-2 2-2 2zM250 452c-138 0-250 112-250 250 0 136 112 250 250 250s250-114 250-250c0-138-112-250-250-250zM250 906c-112 0-202-92-202-204s90-202 202-202c112 0 202 90 202 202s-90 204-202 204zM382 730h-106v106h-52v-106h-108v-54h108v-106h52v106h106z" />
<glyph unicode="&#xe071;" glyph-name="overtime3" d="M108 476c28 0 54-10 74-30l36-34 34 32c42 42 110 42 152 0s42-108 0-150c-42-42-110-42-152 0l-36 32-34-32c-42-42-108-42-150 0s-42 108 0 150c20 20 46 32 76 32zM296 336c16-18 46-18 64 0s18 46 0 64c-8 8-20 14-32 14s-24-6-32-14l-34-32zM76 336c18-18 46-18 64 0l32 32-34 32c-16 18-46 18-64 0-16-16-16-46 2-64zM530 674v-212l188-112 44 68-154 92v164zM596 938c-146 0-284-74-360-198l-114 112v-332h334l-136 134c56 102 162 164 276 164 172-2 308-140 310-310 0-172-138-310-310-310-62 0-124 18-176 54-10 6-62-32-70-88 72-50 158-80 246-80 238 0 428 192 428 428 0 234-190 424-424 424-2 2-2 2-4 2z" />
<glyph unicode="&#xe072;" glyph-name="parental-leave" d="M390 852c0-40-34-72-74-72s-72 32-72 72c0 40 32 72 72 72s74-32 74-72zM780 590c-6 38-22 72-32 108 0 2 0 4 0 8 0 54-6 108-14 162-4 26-36 42-60 34-10-2-18-8-24-14-18 6-38 10-58 10-38 0-38-60 0-60 18 0 34-2 50-10 0-2 0-6 0-8-8-2-14-8-20-16-32-48-98-30-146-26-26 18-62 18-88-2-28-26-32-68-8-98 58-66 56-174 56-276 0-14 0-30 0-46 0-20 8-36 20-48-6-88-28-176-60-258-22-50 60-72 82-22 32 84 56 176 62 268 20 14 34 34 34 60 0 14 0 28 0 44 0 88 2 194-40 288 42 0 80 4 114 24-8-28-24-56-38-82-20-34 32-62 50-30 12 18 22 38 32 58 2-2 6-2 8-2 10-26 18-52 22-82 6-36 62-20 58 16zM746 968c0-32-26-56-56-56-32 0-58 24-58 56 0 30 26 56 58 56 30 0 56-26 56-56z" />
<glyph unicode="&#xe073;" glyph-name="parking" d="M838 442h-288c-28 0-50 20-52 48-20-2-40-2-62-2-150 0-272 14-272 34l58 110c6 12 28 26 42 26h234v74h-232c-42 0-92-30-110-68l-68-130-26 8c-26 8-50-6-60-30-8-24 8-52 32-58l6-2c-2-8-4-18-4-26v-320c0-28 24-50 52-50h74c28 0 50 22 50 50v68c62-8 140-10 226-10 84 0 162 4 224 10v-68c0-28 24-50 50-50h76c28 0 50 22 50 50v320c2 6 0 10 0 16zM268 352c-4-40-44-38-84-34-4 0-8 0-12 0-46 4-80 18-78 60 4 54 32 54 86 44 26-4 92-26 88-70zM502 222h-130c-16 0-28 12-28 26 0 16 14 28 28 28h130c16 0 28-12 28-28 0-12-12-26-28-26zM704 318h-6c-44-4-88-8-92 32-4 44 60 66 88 72 52 10 82 10 86-44 4-42-32-54-76-60zM808 796c-4 0-16 2-32 2h-22v-64h26c18 0 28 0 36 2 6 2 10 6 14 12 2 4 4 10 4 16 0 10-2 16-6 22-6 6-12 8-20 10zM972 966h-370c-28 0-52-22-52-50v-372c0-28 24-50 52-50h370c30 0 52 22 52 50v372c0 28-22 50-52 50zM874 732c-4-10-10-18-18-24-10-4-16-8-24-10-12-2-28-2-48-2h-30v-86h-44v226h72c28 0 46-2 54-4 14-2 24-10 34-22 8-12 12-26 12-44 0-14-2-26-8-34z" />
<glyph unicode="&#xe074;" glyph-name="payment" d="M984 460c8 12 12 28 8 42l-120 460c-6 26-34 42-60 36l-776-204c-26-8-42-36-34-60l120-460c8-28 36-42 62-36l272 72v-154c0-86 144-132 284-132s284 46 284 132v234c0 26-16 50-40 70zM896 618l12-48-154-40-12 48zM806 920l24-90-240-64-24 92zM698 566l12-46c-56-2-112-14-156-30l-10 36zM162 374l-12 48 154 40 12-48zM348 474l152 40 12-44c-4-2-8-6-10-8l-142-38zM972 160c0-50-102-92-232-92-128 0-232 42-232 92v56c0 2 0 4 0 6 8-48 108-86 232-86s222 38 230 86c0-2 0-4 0-6v-56zM972 272c0-50-102-92-232-92-128 0-232 42-232 92v56c0 2 0 4 0 4 8-46 108-84 232-84s222 38 230 84c0-2 0-2 0-4v-56zM740 300c-128 0-232 40-232 90s104 92 232 92c128 0 232-42 232-92s-104-90-232-90z" />
<glyph unicode="&#xe075;" glyph-name="payroll" d="M640 0c-202 0-368 164-368 368 0 202 166 368 368 368s368-166 368-368c0-204-166-368-368-368zM640 666c-164 0-300-134-300-298 0-166 136-300 300-300s300 134 300 300c0 164-136 298-300 298zM714 502l-10-52c-12 10-28 16-48 16-22 0-38-8-52-22-8-8-12-20-16-32h108l-6-30h-106c0-4 0-8 0-12s0-8 0-14h100l-8-30h-88c4-14 8-24 16-32 14-16 30-22 50-22 24 0 46 6 60 22v-60c-16-8-38-12-58-12-38 0-70 14-94 40-16 16-28 40-32 64h-30l6 30h20c0 4 0 6 0 10 0 6 0 12 0 16h-26l6 30h24c6 26 16 46 34 64 24 26 56 40 96 40 20-2 38-6 54-14zM636 614c-134 0-244-110-244-246s108-246 244-246c138 0 246 110 246 246s-110 246-246 246zM334 164h-318v860h888v-400h-90v308h-706v-678h226zM162 872h562v-62h-562zM164 758h242v-62h-242z" />
<glyph unicode="&#xe076;" glyph-name="pdf" d="M886 860c-10 10-18 18-28 28-10 12-20 20-28 30-68 68-108 106-150 106h-314c-88 0-158-72-158-156v-284h78v284c0 42 36 78 80 78h286c28-6 28-42 28-76v-120c0-22 18-40 40-40h120c40 0 78 0 78-40v-512c0-44-36-80-78-80h-474c-42 0-78 36-78 80v124h-80v-126c0-86 72-156 158-156h472c86 0 156 70 156 156v552c2 44-36 84-108 152zM192 480c-2 0-6 2-10 2s-6 2-10 2h-28v-46h28c4 0 6 0 10 0s8 2 10 4c4 0 4 4 8 6 0 4 2 8 2 12s0 8-2 12c-4 4-4 6-8 8zM348 468c-2 4-8 8-14 10-6 4-14 4-22 4h-24v-96h30c4 0 10 0 14 2s8 4 14 8c4 4 6 8 8 14s2 14 2 22c0 8 0 14-2 22 2 4-2 10-6 14zM584 586h-520c-18 0-36-16-36-36v-234c0-20 16-36 36-36h520c20 0 36 16 36 36v234c-2 20-16 36-36 36zM234 440c-2-6-6-10-10-16-4-4-12-8-18-10-8-4-16-4-26-4h-36v-58h-36v158h72c10 0 18 0 24-4 8-2 14-6 18-10s8-10 10-16c2-6 4-14 4-18 0-8 0-14-2-22zM396 400c-4-10-8-18-14-26-6-6-14-12-22-16s-20-6-32-6h-68v158h68c10 0 20 0 28-4 8-2 18-8 22-14 8-6 12-14 16-24s6-22 6-34c0-14-2-24-4-34zM526 446v-28h-66v-64h-36v156h112v-28h-76v-36z" />
<glyph unicode="&#xe077;" glyph-name="pending" d="M728 728c-58 60-140 92-216 92v-308l-216-216c118-116 314-116 436 0 118 118 118 314-4 432zM512 1024c-282 0-512-230-512-512s230-512 512-512c282 0 512 230 512 512s-230 512-512 512zM512 102c-226 0-410 184-410 410s184 410 410 410c226 0 410-184 410-410s-184-410-410-410z" />
<glyph unicode="&#xe078;" glyph-name="people" d="M244 470h-132c-38 0-68-28-68-68v-178c0-36 28-68 68-68v-90c0-36 28-68 68-68 38 0 66 30 66 68v90c38 0 68 30 68 68v178c-2 38-32 68-70 68zM180 512c62 0 112 50 112 112 0 64-48 114-112 114s-112-50-112-114c0-62 48-112 112-112zM578 470h-134c-36 0-68-28-68-68v-178c0-36 30-68 68-68v-90c0-36 30-68 68-68s68 30 68 68v90c36 0 68 30 68 68v178c-4 38-34 68-70 68zM400 624c0-62 48-112 112-112s112 50 112 112c0 64-48 114-112 114-60-2-112-50-112-114zM912 470h-134c-36 0-68-28-68-68v-178c0-36 30-68 68-68v-90c0-36 28-68 68-68 36 0 68 30 68 68v90c36 0 66 30 66 68v178c-2 38-30 68-68 68zM734 624c0-62 50-112 112-112 64 0 114 50 114 112 0 64-50 114-114 114-64-2-112-50-112-114zM778 912c0 62-48 112-112 112-62 0-114-50-114-112 0-64 50-114 114-114 64 2 112 52 112 114zM468 912c0 62-48 112-112 112s-112-50-112-112c0-64 48-114 112-114 62 2 112 52 112 114z" />
<glyph unicode="&#xe079;" glyph-name="percentage-discount" d="M444 626c40 44 62 102 62 162 0 118-84 236-244 236-74 0-138-26-182-74-40-42-60-100-60-162 0-116 82-236 242-236 74 0 138 26 182 74zM262 914c88 0 128-66 128-126 0-32-12-64-32-86-22-26-54-38-94-38-90 0-130 66-130 126 0 62 40 124 128 124zM844 932c-14 0-34-8-44-20l-720-800c-10-10-2-24 12-24h94c14 0 34 8 44 18l716 800c8 12 8 28-16 28zM764 462c-72 0-134-24-178-72-38-42-58-98-58-158 0-116 82-232 236-232 74 0 136 24 180 72 40 42 60 100 60 160 0 114-82 230-240 230zM766 106c-86 0-126 66-126 128 0 32 12 62 32 86 22 26 56 38 94 38 86 0 126-66 126-126 0-34-10-64-30-86-24-26-56-40-96-40z" />
<glyph unicode="&#xe07a;" glyph-name="person" d="M4 22c0 0-36 122 154 208 192 84 220 94 230 114 8 20 32 38 2 82-34 50-150 160-136 310 12 134 94 268 264 268s264-168 270-282c6-110-92-256-122-300-34-46-14-66 0-80 14-12 184-82 224-104 38-20 134-86 134-216 2-4-1020 0-1020 0z" />
<glyph unicode="&#xe07b;" glyph-name="person-2" d="M510 1024c-116-2-218-110-204-238 10-112 88-232 204-234 2 0 4 0 4 0 116 2 194 122 206 234 12 128-88 236-206 238 0 0-2 0-4 0zM368 552c-132-32-252-34-252-212v-242c0-72 48-96 104-98h590c54 0 96 52 96 98v242c0 180-130 182-250 212-38-38-92-134-148-136-52 0-106 102-140 136z" />
<glyph unicode="&#xe07c;" glyph-name="phone" d="M750 410c-68-70-68-136-136-136s-136 66-204 136c-70 68-136 136-136 204 0 70 68 70 136 136 68 68-136 274-206 274-68 0-204-204-204-204 0-136 140-414 274-546 132-132 410-274 546-274 0 0 204 136 204 204 0 70-204 274-274 206z" />
<glyph unicode="&#xe07d;" glyph-name="portal" d="M0 1024h446v-448h-446c0 2 0 448 0 448zM0 446h446v-446h-446c0 0 0 446 0 446zM578 1024h446v-448h-446c0 2 0 448 0 448zM578 446h446v-446h-446c0 0 0 446 0 446z" />
<glyph unicode="&#xe07e;" glyph-name="process" d="M974 106h-380c-26 0-50 24-50 50v172c0 28 24 50 50 50h380c28 0 50-22 50-50v-172c0-26-22-50-50-50zM748 480h-476v-72h-66v138h272v72h66v-72h270v-138h-66zM698 648h-374c-28 0-50 22-50 50v170c0 28 22 50 50 50h374c28 0 50-22 50-50v-170c0-28-22-50-50-50zM474 328v-172c0-28-24-50-52-50h-372c-28 0-50 22-50 50v172c0 28 22 50 50 50h374c28 0 50-22 50-50z" />
<glyph unicode="&#xe07f;" glyph-name="process-info" d="M54 984h536v-298h-100v198h-436zM918 40h-812c-58 0-106 48-106 108v370c0 58 48 106 106 106h812c58 0 106-48 106-106v-372c0-58-48-106-106-106zM558 292c4 10 14 20 30 32 24 20 38 36 46 48 8 14 12 26 12 40 0 34-16 60-44 80-22 14-52 22-86 22-48 0-80-10-102-32s-36-48-38-84l96-10c2 18 6 32 14 40 6 6 16 10 28 10s18-2 24-6c6-6 8-14 8-22s-6-18-18-30c-26-20-42-34-48-42-8-8-14-18-18-26-4-10-4-24-4-40v-8h92c0 12 2 22 8 28zM454 150h100v88h-100z" />
<glyph unicode="&#xe080;" glyph-name="process-new" d="M490 884h-436v100h534v-298h-100v198zM1024 518v-372c0-58-48-106-106-106h-812c-58 0-106 48-106 108v370c0 58 48 106 106 106h812c58 0 106-48 106-106zM690 386h-118v120h-90v-120h-126v-96h126v-116h90v116h118z" />
<glyph unicode="&#xe081;" glyph-name="products" d="M446 900h142c-24-16-44-40-54-70l-166-486c-2-2-2-4-2-6v482c0 44 36 80 80 80zM28 512c-34 28-38 80-8 112l78 92c2-4 2-8 4-10l162-398c0 2-236 204-236 204zM308 820l-2-460-150 368c-16 42 4 88 44 104l122 50c-10-18-14-40-14-62zM1020 664l-168-486c-10-32-42-54-74-54-8 0-18 0-26 4l-278 96c-42 14-66 60-52 100l168 486c12 32 42 54 76 54 8 0 18 0 26-4l278-96c42-14 64-58 50-100z" />
<glyph unicode="&#xe082;" glyph-name="question" d="M672 498l66 66c36 44 66 104 66 170-2 160-132 290-292 290s-290-130-290-290h146c0 82 66 146 148 146s148-64 148-146c0-44-14-84-44-106l-86-94c-56-52-88-126-88-204v-36h148c-8 110 22 152 78 204zM438 148h148v-148h-148z" />
<glyph unicode="&#xe083;" glyph-name="recovery" d="M834 668h-136v-156h-154v-136h154v-154h136v154h156v136h-156zM476 580h156v156h270v-156h78c82 132 42 306-90 388-126 80-290 48-378-72-90 126-266 158-394 68-126-90-156-266-66-394 4-6 8-12 12-18l448-542 120 144v156h-156z" />
<glyph unicode="&#xe084;" glyph-name="redo" d="M512 716v164c0 18 6 34 18 46s30 18 46 18c16 0 32-6 44-18l404-398-404-396c-12-14-28-20-44-20s-34 6-46 20c-12 12-18 28-18 44v160c-176-4-368-36-512-256v64c-2 296 224 542 512 572z" />
<glyph unicode="&#xe085;" glyph-name="refresh-3" d="M1024 940v-300c0-22-22-44-44-44h-296c-38 0-56 46-30 72l90 94c-66 62-144 90-232 90-120 0-230-58-290-162-6-8-18-32-36-78-2-10-10-16-22-16h-132c-10 0-22 10-22 22v4c62 240 256 402 502 402 128 0 260-54 352-142l88 86c26 26 72 8 72-28zM1008 406v-6c-56-238-254-400-500-400-130 0-256 54-348 142l-88-86c-26-26-72-8-72 30v298c0 22 22 44 44 44h298c36 0 56-46 30-72l-92-94c64-56 148-90 234-90 118 0 228 58 290 162 4 8 16 32 34 78 4 10 10 16 22 16h128c10 0 20-12 20-22z" />
<glyph unicode="&#xe086;" glyph-name="reimbursement" d="M948 508c-28 184-168 330-348 366 0 0 18 98 4 114-16 14-38 14-54 0l-126-118c-2-2-4-4-4-4s0 0 0-2v0c0-2-2-2-2-4 0 0 0-2-2-4 0-2-2-2-2-4s0-4 0-6c0 0 0 0 0-2 0-4 0-6 0-8 0-4 0-6 2-8 0-2 2-2 2-4 0 0 2-4 4-4 0 0 0-2 0-2l114-138c6-8 14-12 24-12h4c20 0 36 14 38 34 0 10-10 100-10 100 196-46 320-242 278-440-44-198-242-324-440-278s-322 240-278 438c20 80 64 150 128 204 8 6-30 70-48 58-120-98-180-254-158-410 32-214 216-372 434-374 24 0 46 2 68 6 242 38 408 262 372 502zM510 0c-224 2-414 164-448 388-24 156 38 318 164 418 6 6 22 14 44-16 4-6 38-46 18-60-96-80-144-206-126-330 28-194 206-328 400-302 192 26 328 206 302 398 0 4 0 6 0 10-24 140-124 252-258 290 4-30 8-78 6-86 0-12-8-24-18-34-20-16-52-14-70 8l-114 140c-2 2-4 4-4 6 0 0-2 2-2 2 0 6-2 10-2 14s0 10 0 12v2c0 4 0 6 0 8s2 4 2 4c0 4 0 4 2 6s2 4 4 4l4 6-2-2c2 2 4 4 4 6l126 118c20 20 50 20 70 0 14-16 8-72 2-112 180-42 318-190 346-374 40-248-130-478-378-518-26-2-48-6-72-6zM240 786c-118-96-176-248-152-396 32-208 212-364 422-366 22 0 42 2 66 6 234 36 394 254 358 488-26 178-162 320-338 356l-12 4 2 12c10 46 14 94 6 102-8 10-24 10-32 0l-130-126c0 0-2-2-2-2 0-2 0-4 0-6s0-6 0-6c0-2 0-4 0-6 2 0 2-4 4-4v-4l112-136c4-4 10-8 18-8h2c12 0 22 8 22 22 0 6-4 56-8 98l-2 18 18-4c204-46 334-248 288-454-34-154-158-270-312-294-208-32-402 112-432 318-20 132 28 264 130 348-6 16-18 28-28 40zM624 596l-14-68c-18 14-40 22-62 20-24 0-50-12-66-30-12-12-18-28-20-44h138l-10-38h-134v-26h126l-6-36h-114c0-18 8-32 18-46 16-18 42-28 66-28 28 0 56 8 78 26v-76c-24-10-50-14-76-14-46 0-88 18-118 50-22 24-38 56-42 86h-38l8 38h24v26h-34l8 38h30c4 30 18 60 42 84 32 34 76 52 122 50 24 4 52 0 74-12z" />
<glyph unicode="&#xe087;" glyph-name="remove" d="M704 928v66h-384v-66h-320v-128h1024v128zM836 736v-578h-644v578h-128v-706h900v706zM320 738h130v-516h-130zM576 738h130v-516h-130z" />
<glyph unicode="&#xe088;" glyph-name="remove-2" d="M0 928h1024v-128h-1024zM320 994h384v-118h-384zM64 736h128v-704h-128zM188 158h772v-128h-772zM836 736h128v-704h-128zM320 738h130v-516h-130zM576 738h130v-516h-130z" />
<glyph unicode="&#xe089;" glyph-name="rocking-chair" d="M952 208c-20 18-48 18-66 2-22-18-48-34-72-50l-66 222h26c44 0 48 32 56 98 2 14 4 28 6 48 6 54 38 322 52 420 4 36-20 68-60 74h-2c-40 8-78-16-86-52l-28-222h-602c-16 0-48-8-48-38 0-38 20-44 44-50h46l24-134c-20-16-32-38-32-62v-2c0-44 40-78 90-78h44l-66-222c-24 16-48 32-72 50-18 16-46 16-66-2-8-8-12-18-12-30 0-14 4-22 14-32 118-94 274-148 434-148 162 0 318 54 436 150 10 8 16 18 16 30 2 8-2 20-10 28zM270 546l-22 118h454l-14-118zM378 384h274l78-264c-68-24-142-38-212-38-74 0-146 14-212 38zM432 784c-64 0-118 52-118 118 0 64 52 116 118 116 64 0 118-52 118-116 0-66-52-118-118-118zM432 996c-52 0-96-42-96-96s42-96 96-96c52 0 96 42 96 96s-42 96-96 96zM458 944l-4-16c-4 2-8 4-14 4-8 0-12-2-18-8-2-2-2-6-4-10h32l-2-10h-34c0-2 0-2 0-2 0-2 0-4 0-6h32l-2-10h-28c2-6 2-8 4-10 4-6 12-8 18-8 8 0 12 2 18 8v-18c-6-4-12-4-18-4-14 0-22 4-32 12-4 6-8 14-10 20h-8l2 12h8c0 2 0 2 0 2 0 2 0 4 0 6h-8l2 10h6c2 8 6 14 10 20 8 8 20 12 32 12 6 0 12 0 18-4zM432 978c-44 0-78-34-78-78s36-78 78-78c44 0 78 36 78 78 0 46-34 78-78 78z" />
<glyph unicode="&#xe08a;" glyph-name="rotate-right" d="M0 512c0 70 14 136 40 198 28 64 64 118 110 164s100 82 164 110c64 28 128 40 198 40 66 0 130-12 190-36 60-26 116-60 162-106l88 86c12 14 28 18 46 10s26-20 26-38v-300c0-12-4-22-12-30s-18-12-30-12h-298c-20 0-32 10-40 26-8 18-4 34 10 46l92 92c-66 62-144 92-232 92-48 0-92-10-134-26-42-20-76-42-108-74-30-30-54-66-72-108s-26-86-26-132c0-46 8-90 26-132s42-78 72-108c32-32 66-56 108-74s86-26 134-26c52 0 102 12 148 34 48 24 88 56 120 100 4 4 8 6 16 8 6 0 12-2 16-6l92-92c4-4 6-10 6-14 0-6-2-10-6-16-48-62-108-108-176-140s-142-48-218-48c-70 0-136 14-198 40-64 28-118 64-164 110s-82 100-110 164c-28 64-40 128-40 198z" />
<glyph unicode="&#xe08b;" glyph-name="salary" d="M864 672h92v228c0 24-22 46-46 46h-60c10-14 14-30 14-46zM956 352h-92v-228c0-16-4-30-14-46h60c24 0 46 22 46 46zM956 648h-272c-42 0-96-30-118-68v0c-22-38-22-98 0-136v0c22-38 76-68 118-68h272c38 0 70 30 70 68v136c-2 38-32 68-70 68zM706 444c-38 0-70 30-70 68s32 68 70 68c38 0 68-30 68-68s-30-68-68-68zM750 512c0-26-20-46-44-46-26 0-46 22-46 46s20 46 46 46c24 0 44-20 44-46zM820 352v-228c0-24-22-46-46-46h-728c-26 0-46 22-46 46v776c0 24 20 46 46 46h728c26 0 46-22 46-46v-228h-136c-52 0-112-36-138-80v0c-24-44-24-114 0-158v0c26-44 86-80 138-80zM336 710c-56 0-102-18-136-54-22-26-38-54-44-90h-34l-8-44h36c0-6-2-14-2-22 0-6 0-10 0-14h-26l-8-42h40c8-38 24-68 46-92 34-36 78-56 132-56 32 0 58 8 82 18v84c-20-22-48-32-82-32-28 0-52 10-70 32-10 10-18 26-22 46h124l8 42h-140c0 6 0 12 0 18s0 14 0 18h146l10 42h-150c4 18 10 32 22 44 18 22 42 32 72 32s52-8 68-24l16 76c-24 12-50 18-80 18z" />
<glyph unicode="&#xe08c;" glyph-name="save-disquette" d="M880 1024h-76v-368h-584v368h-218v-1024h1020v880zM876 142h-732v368h732zM582 1024h148v-292h-148z" />
<glyph unicode="&#xe08d;" glyph-name="search" d="M600 1024c234 0 424-190 424-424 0-236-190-426-424-426-80 0-156 22-222 60l-204-206c-38-38-104-38-144 0-40 40-40 106 0 146l206 206c-40 64-62 140-62 220 0 234 190 424 426 424zM602 860c-144 0-262-116-262-260s118-260 262-260c142 0 258 118 258 262 0 142-116 258-258 258z" />
<glyph unicode="&#xe08e;" glyph-name="search-x" d="M502 1024c198 0 358-160 358-356s-160-356-358-356c-66 0-130 18-184 50l-172-170c-34-34-86-34-120 0-34 32-34 86 0 120l172 174c-34 54-52 116-52 184 2 194 162 354 356 354zM504 886c-118 0-218-98-218-218 0-122 96-218 218-218 120 0 218 98 218 218 0 122-96 218-218 218zM1024 48l-114 112 112 112-48 50-112-112-112 112-50-50 112-112-114-114 52-46 112 112 112-112z" />
<glyph unicode="&#xe08f;" glyph-name="send" d="M222 674h-82c-16 0-28-12-28-26v-20c0-16 12-28 28-28h82c16 0 28 12 28 28v20c0 14-12 26-28 26zM222 552h-140c-14 0-26-12-26-26v-20c0-16 12-28 26-28h140c16 0 28 12 28 28v20c0 14-12 26-28 26zM222 430h-194c-16 0-28-12-28-28v-20c0-14 12-26 28-26h194c16 0 28 12 28 26v20c0 16-12 28-28 28zM300 308c0-34 26-60 60-60h604c34 0 60 26 60 60v408c0 34-26 60-60 60h-604c-34 0-60-26-60-60zM522 510l-140 140c-10 12-10 30 0 42 12 12 30 12 42 0l222-220c8-10 22-10 32 0l222 220c10 12 28 12 42 0 10-12 10-30 0-42l-140-140 138-138c12-10 12-28 0-42-12-10-30-10-42 0l-138 140c0 0-44-44-52-52-12-12-28-20-48-20-18 0-36 8-48 20-8 8-50 50-50 50l-138-136c-12-12-30-12-42 0s-12 30 0 42c0-2 140 136 140 136z" />
<glyph unicode="&#xe090;" glyph-name="send-message" d="M0 614l238-238 582 444-444-582 238-238 410 1024z" />
<glyph unicode="&#xe091;" glyph-name="settings" d="M648 1024c-16 0-26-10-32-20 0 0-40-56-54-78-6-12-22-16-30-16-18 2-34 0-50 0h-4c-6 0-30 0-38 16-18 20-60 78-60 78-8 12-24 20-46 10l-82-34c-14-8-18-26-14-44 0 0 8-68 12-94 2-20-6-32-8-38-14-12-26-24-38-40-6-2-16-8-32-8-26 4-96 10-96 10-16 2-36-6-42-22l-28-80c-10-22 2-38 14-46 0 0 58-40 78-54 14-8 18-28 18-38 0-14 0-28 2-44 0-2 0-4 0-4 0-4 0-30-16-40-20-16-78-60-78-60-12-8-20-24-10-48l36-78c8-16 24-20 40-16 0 0 72 8 96 12 20 2 30-6 36-8 10-12 24-22 38-34 4-6 18-22 14-40-4-26-12-96-12-96-2-16 2-32 26-40l80-32c18-6 32 4 42 18 0 0 42 58 58 80 12 14 24 16 30 18 18 0 34 2 52 4 6-2 20-6 32-20 14-22 62-74 62-74 8-12 26-20 42-14l78 34c24 10 24 26 24 44 0 0-12 70-18 94-6 18 10 38 12 40l4 2c8 10 16 20 26 28l2 2c4 4 22 24 42 18 24-2 92-10 92-10 16-2 32 0 44 22l30 82c8 16-4 32-16 40 0 0-56 46-76 60-14 12-18 24-20 30 0 18-2 36-2 52 2 8 4 22 18 32 22 16 76 64 76 64 12 8 22 24 14 40l-36 80c-8 22-28 26-42 24 0 0-72-12-96-18-16-6-34 12-40 14l-4 4c-10 12-22 24-34 32-4 6-10 18-8 34 2 26 8 98 8 98 2 16-2 34-20 40l-80 30c-10 0-12 2-16 2zM500 780c150 6 276-112 282-260 4-150-112-276-260-282-150-4-274 112-280 264-6 112 60 210 156 254 30 16 64 24 102 24zM670 516c4-88-64-160-152-166-86-2-162 66-166 152-2 68 36 126 92 152 20 10 40 12 62 12 84 8 162-60 164-150z" />
<glyph unicode="&#xe092;" glyph-name="show-more" d="M518 768c70 0 128 58 128 128s-58 128-128 128c-72 0-128-58-128-128s56-128 128-128zM518 640c-72 0-128-58-128-128s56-128 128-128c70 0 128 58 128 128s-58 128-128 128zM518 256c-72 0-128-58-128-128s56-128 128-128c70 0 128 58 128 128s-58 128-128 128z" />
<glyph unicode="&#xe093;" glyph-name="speedometer" d="M938 240h-194l2 2v2l198 6v-6c0-2-2-2-2-4-2 0-2 0-4 0zM940 334l-188 38v2c0 2 0 2 0 2v8c0 2 0 2 0 4v0l-2 6c0 2 0 6 2 6l160 46c2 0 4-2 6-4v-4l2-2v-4l2-2c0-2 0-4 0-4l2-2v-6l2-2v-4l2-4v-4c2-6 2-10 4-16l2-10c0-4 0-6 0-8l2-4c0-6 2-14 2-20l2-4v-2zM894 488c2 2 4 4 4 6l-2 4-2 6-4 6-4 10c0 0 0 2-2 4l-2 4c0 2-2 4-6 8l-4 8-4 6-2 4-6 10c-4 6-10 12-14 18l-4 6-4 4-6 10c-4 4-6 6-8 10-2 2-4 2-4 4l-8 8c-2 2-4 4-4 4l-10 8c-2 4-4 6-8 8-2 4-4 6-8 8l-6 8c-2 2-6 4-8 6l-6 6-6 4-4 4c-2 2-4 2-6 4l-4 4c-2 2-6 2-8 0l-86-104c-2-2 0-6 0-6l2-2c2-2 2-2 4-4l2-4 6-4 4-4c0-2 2-4 4-6l4-4c2-2 4-4 6-6s2-4 4-6l6-6c0-2 2-2 2-4l2-2 2-4c0 0 2-2 2-4s2-4 4-8l4-6v-2l2-2 2-4c2-6 4-10 6-14l4-8 2-2v-4l4-6 2-6v-2c0-2 2-2 2-4l4-8 2-6v-4c2-2 4-4 6-2zM620 606l-4 2-2 2h-2l-4 4-4 2-6 6c-2 0-2 0-2 0-36 22-74 38-116 48-2 0-4 0-4 0l-6 2h-4l-8 2c-2 0-4 4-4 6l4 102c0 2 2 4 6 4h26c4 0 6 0 8 0l10-2h10l6-2c2 0 2 0 4 0l8-2c30-6 62-14 92-24h2c2-2 6-4 10-4 2-2 6-4 10-4l10-4c2-2 6-4 8-4l8-4 6-6 6-4h2l2-2 4-2c2 0 4-4 2-6l-70-108c-2-4-6-4-8-2zM366 674c2 0 4 0 4 0h4l8 2h10c0 0 2 0 2 0h20c2 0 4 2 4 4l-6 96c0 4-2 6-4 4h-4l-6-2h-6l-8-2c-2 0-4 0-4 0l-4-2-20-4h-4c-2 0-4-2-6-2l-10-2-10-4c-2 0-4 0-4-2l-6-2-4-2c-2 0-4 0-6-2l-10-4c-6 0-8-2-12-4l-6-2-4-2-6-2c-2 0-2-2-4-2l-10-4c-4-4-6-4-10-6-2-2-6-4-8-6l-8-4c-4-2-6-4-8-6l-8-4-6-4-4-4c-2 0-4-2-4-2l-6-4c-2-2-2-4 0-6l40-60c2-2 4-2 6 0l4 2c2 0 2 0 4 2l6 2 4 2 6 4c2 0 4 2 6 2l8 4c2 0 4 2 6 2 4 2 6 2 8 4l10 2c0 2 2 2 4 2h4l8 4c2 0 6 2 8 2l10 2c0 0 2 0 4 0l8 2c0 0 2 2 4 2h8zM92 598l-6-8c0-2-2-4-2-6-2-4-4-6-6-10l-8-8v-2l-2-2-2-6c-4-6-8-12-10-18l-4-10-12-24c0-4-2-6-2-8l-6-18-2-4c-2-2 0-6 2-6l38-14c2-2 6 0 6 2l4 8 4 4 2 6c2 2 2 4 4 6l4 8 4 6 8 16c4 6 8 10 12 16l2 4 2 2v2l6 6c2 2 4 6 6 8 2 0 2 2 4 4l6 6c0 0 2 2 4 2l6 6c2 2 4 4 6 6s4 4 6 6l6 6c2 2 4 4 6 6l10 8 4 2c0 0 0 2 2 2l4 4c2 2 4 6 2 8l-42 50c-2 2-6 2-8 0l-2-2-4-2c0-2 0-2-2-4l-10-10-4-6c-2-2-4-4-6-6l-6-6c-2-2-4-6-6-8-2-4-4-6-6-8l-6-8c-4-4-4-6-6-6zM16 422l-2-4v-4c0-2-2-4-2-6v-8c0 0 0-2-2-4v-4c-2-4-2-10-2-16l-2-10c0-4 0-6 0-10-2-8-2-14-2-20v-12c0-2 0-4 0-4v-34l2-10v-4l2-10v-10c0-2 2-6 2-8v-2c0-2 2-4 6-4h12c4 0 6 2 6 6 0 0 0 0 0 2s0 4 0 8v8c0 4 0 6 0 10v40l2 4 2 10v4c0 6 2 12 2 18 2 4 2 6 2 10l2 8c2 6 4 12 4 16l2 2c0 2 0 2 0 4l2 6c2 2 2 4 2 4l2 6 2 4c0 2 0 4-4 6l-32 8c-4 4-6 4-6 0zM378 346c-8-42 18-82 58-90 8 0 12-2 18 0l342 12 130 4 80 4c6 0 12 6 12 12 0 2 0 2-2 4 0 6-4 8-10 10l-82 16-122 22-338 66c-40 8-78-18-86-60zM490 338c6-20-6-40-26-44-20-6-40 6-46 26-4 20 6 40 28 44 18 6 38-6 44-26z" />
<glyph unicode="&#xe094;" glyph-name="star" d="M964 676l-280 4-112 288c-22 54-98 54-118 0l-114-288-280-4c-58-2-82-76-36-112l226-198-76-270c-16-56 46-102 94-72l244 134 244-134c48-30 110 16 94 72l-78 270 228 198c46 36 22 110-36 112z" />
<glyph unicode="&#xe095;" glyph-name="subway" d="M512 1024c-238 0-432-26-432-216v-512c0-102 86-188 190-188l-82-82v-26h648v26l-82 82c104 0 190 86 190 188v512c0 190-194 216-432 216zM270 216c-44 0-82 38-82 80 0 44 38 82 82 82 42 0 80-38 80-82s-38-80-80-80zM458 538h-270v270h270zM754 216c-42 0-80 38-80 80 0 44 38 82 80 82 44 0 82-38 82-82s-38-80-82-80zM836 538h-270v270h270z" />
<glyph unicode="&#xe096;" glyph-name="sun" d="M800 512c0-158-130-288-288-288s-288 130-288 288c0 158 130 288 288 288s288-130 288-288zM492 834h40c14 0 24 10 24 24v142c0 14-10 24-24 24h-40c-14 0-24-10-24-24v-142c0-14 10-24 24-24zM834 532v-40c0-14 10-24 24-24h142c14 0 24 10 24 24v40c0 14-10 24-24 24h-142c-14 0-24-10-24-24zM532 0c14 0 24 10 24 24v142c0 14-10 24-24 24h-40c-14 0-24-10-24-24v-142c0-14 10-24 24-24zM24 468h142c14 0 24 10 24 24v40c0 14-10 24-24 24h-142c-14 0-24-10-24-24v-40c0-14 10-24 24-24zM754 724c8-8 24-8 32 0l102 102c10 10 10 24 0 34l-28 28c-10 10-24 10-34 0l-102-102c-8-8-8-24 0-32zM860 136l28 28c10 10 10 24 0 32l-102 102c-8 10-24 10-32 0l-30-28c-8-10-8-24 0-34l102-100c10-10 24-10 34 0zM198 136l102 100c8 10 8 24 0 34l-30 28c-8 10-24 10-32 0l-102-102c-10-8-10-22 0-32l28-28c10-10 24-10 34 0zM238 724c8-8 24-8 32 0l30 30c8 8 8 24 0 32l-102 102c-10 10-24 10-34 0l-28-28c-10-10-10-24 0-34z" />
<glyph unicode="&#xe097;" glyph-name="tag" d="M0 656v282c0 24 8 44 26 60s38 26 60 26h282c24 0 50-6 78-18 30-10 52-26 70-44l482-482c16-18 24-38 24-62 0-22-8-44-24-60l-332-334c-16-16-38-24-60-24-24 0-44 8-62 24l-482 484c-18 18-32 40-44 70-12 28-18 54-18 78zM130 808c0-24 8-44 26-62 18-16 36-26 62-26 24 0 44 10 60 26 18 18 26 38 26 62s-8 44-26 62c-16 16-36 24-60 24s-44-8-62-24c-18-18-26-38-26-62z" />
<glyph unicode="&#xe098;" glyph-name="tags" d="M0 626v224c0 20 8 36 20 50 14 12 30 20 48 20h224c20 0 40-6 64-14 22-10 42-22 56-36l386-384c14-14 20-32 20-50 0-20-6-34-20-48l-266-264c-14-14-30-20-48-20-20 0-36 6-48 20l-386 386c-14 14-26 32-36 54-8 22-14 44-14 62zM104 748c0-20 6-36 20-50 14-12 30-20 50-20 18 0 34 8 48 20 14 14 20 30 20 50 0 18-6 34-20 48s-30 22-48 22c-20 0-36-8-50-22-14-12-20-30-20-48zM380 920h120c20 0 40-4 64-14 24-8 42-22 56-34l386-386c12-14 20-30 20-48 0-20-8-36-20-48l-266-266c-16-14-32-20-50-20-14 0-24 2-32 8-8 4-16 12-28 24l254 254c14 12 20 28 20 48 0 18-6 34-20 48l-386 386c-14 12-32 26-56 34-22 10-44 14-62 14z" />
<glyph unicode="&#xe099;" glyph-name="taxi" d="M978 568h-2l-104 244c-8 16-24 26-42 26h-128v70c0 26-20 46-46 46h-290c-26 0-46-20-46-46v-70h-126c-18 0-34-10-42-26l-104-244h-2c-26 0-46-20-46-46v-276c0-26 20-46 46-46h18v-86c0-24 20-46 46-46h110c26 0 46 22 46 46v86h494v-86c0-24 22-46 46-46h112c26 0 46 22 46 46v86h16c26 0 48 20 48 46v278c-4 24-24 44-50 44zM226 748h572l78-180h-728zM198 294c-48 0-90 40-90 92 0 48 40 90 90 90s90-40 90-90c0-52-40-92-90-92zM824 294c-50 0-90 40-90 92 0 48 40 90 90 90 48 0 90-40 90-90-2-52-42-92-90-92z" />
<glyph unicode="&#xe09a;" glyph-name="text" d="M628 1024h102l124-700c6-30 12-48 16-60 6-10 14-18 22-22 10-4 28-6 54-6l-12-50h-306l14 50h34c28 0 46 4 58 14 10 10 16 22 16 38 0 8-2 22-4 40l-30 170h-320l-110-190c-8-16-12-28-12-40 0-10 4-18 12-24 8-4 26-8 52-8h28l-12-50h-280l14 50c26 2 46 4 56 8 12 4 22 10 32 20 8 10 22 30 44 64zM708 556l-62 372-214-372zM70 72h884v-72h-884z" />
<glyph unicode="&#xe09b;" glyph-name="th-list" d="M0 164v110c0 16 6 30 16 40s24 16 40 16h182c16 0 30-6 40-16s16-24 16-40v-110c0-14-6-28-16-38s-24-16-40-16h-182c-16 0-30 4-40 16-10 10-16 24-16 38zM0 456v112c0 14 6 28 16 38s24 16 40 16h182c16 0 30-4 40-16 10-10 16-24 16-38v-110c0-16-6-28-16-40-10-10-24-16-40-16h-182c-16 0-30 6-40 16-10 12-16 24-16 38zM0 750v110c0 14 6 28 16 38 12 10 24 16 40 16h182c16 0 30-4 40-16s16-24 16-38v-110c0-16-6-30-16-40-12-10-24-16-40-16h-182c-16 0-30 6-40 16-10 12-16 24-16 40zM366 164v110c0 16 4 30 16 40 10 10 24 16 38 16h550c16 0 28-6 38-16s18-24 18-40v-110c0-14-6-28-18-38-10-10-22-16-38-16h-550c-14 0-28 4-38 16-12 10-16 24-16 38zM366 456v112c0 14 4 28 16 38 10 10 24 16 38 16h550c16 0 28-4 38-16 10-10 18-24 18-38v-110c0-16-6-28-18-40-10-10-22-16-38-16h-550c-14 0-28 6-38 16-12 12-16 24-16 38zM366 750v110c0 14 4 28 16 38s24 16 38 16h550c16 0 28-4 38-16 10-10 18-24 18-38v-110c0-16-6-30-18-40-10-10-22-16-38-16h-550c-14 0-28 6-38 16-10 12-16 24-16 40z" />
<glyph unicode="&#xe09c;" glyph-name="time-compensation" d="M968 0h-706c-28 0-52 22-52 50v386c34-6 68-6 102 0v-334h606v454h-420c34 48 52 106 52 164 0 30-4 60-12 86h178v-150h202v152h50c28 0 50-22 50-50v-706c0-30-22-52-50-52zM816 202h-102v102h102c0 0 0-102 0-102zM664 202h-100v102h100zM514 202h-102v102h102c0 0 0-102 0-102zM816 354h-102v100h102c0 0 0-100 0-100zM664 354h-100v100h100zM514 354h-102v100h102zM866 706h-102v102h102c0 0 0-102 0-102zM126 932c72 42 160 44 232 4l22 88 96-162-162-94 26 104c-54 34-122 36-180 4-82-50-110-156-62-240 48-82 154-110 238-64 66 36 100 110 84 184v6l58 34 2-10c28-106-18-216-112-270-116-66-262-26-330 90-66 112-28 258 86 324 0 2 2 2 2 2zM180 854v-152l134-80 32 48-112 66v118z" />
<glyph unicode="&#xe09d;" glyph-name="travel" d="M1008 258l-234 588c-2 6-8 14-14 18-8 6-14 8-22 8h-192c6 0 10-2 14-4 4-4 6-8 6-12l8-110c0-4 0-8-4-12-2-4-6-6-12-6h-94c-4 0-8 2-12 6-2 2-4 8-4 12l8 110c0 4 2 8 6 12 4 2 10 4 14 4h-190c-8 0-14-2-22-8-6-4-12-12-14-18l-236-588c-10-24-14-46-14-66 0-28 8-40 26-40h396c-6 0-10 2-12 4-4 4-6 8-4 12l10 146c0 4 2 8 6 12 6 2 10 4 14 4h152c6 0 10-2 14-4 4-4 6-8 6-12l12-146c0-4-2-8-4-12-4-2-8-4-12-4h396c16 0 26 12 26 40-4 20-8 42-18 66zM596 456c0-4-2-8-4-12-4-2-8-4-12-4h-136c-4 0-8 2-12 4-4 4-6 8-4 12v2l12 180c0 6 2 10 6 12 4 4 8 6 14 6h104c4 0 8-2 12-6 4-2 6-8 6-12l14-180z" />
<glyph unicode="&#xe09e;" glyph-name="tree" d="M490 150v84h256c24 0 42 20 42 44 0 10-4 22-12 30l-160 160h68c22 0 40 20 40 44 0 12-4 22-12 30l-160 162h68c24 0 42 18 42 44 0 12-6 22-12 30l-226 232c-16 18-42 18-60 0l-224-230c-8-8-12-20-12-32 0-24 20-44 42-44h66l-160-162c-8-8-12-18-12-30 0-24 20-44 42-44h68l-162-160c-8-8-12-18-12-30 0-24 20-44 42-44h278v-84c0-24-20-44-44-44h-222c-30 0-54-24-54-52 0-30 24-54 54-54h916c30 0 54 24 54 54 0 28-24 52-54 52h-436c-24 0-44 20-44 44z" />
<glyph unicode="&#xe09f;" glyph-name="triangle-down" d="M64 800h898c56 0 84-68 44-108l-450-448c-28-28-60-28-88 0l-450 450c-40 40-10 106 46 106z" />
<glyph unicode="&#xe0a0;" glyph-name="triangle-left" d="M256 512l512 512v-1024z" />
<glyph unicode="&#xe0a1;" glyph-name="triangle-right" d="M256 0v1024l512-512z" />
<glyph unicode="&#xe0a2;" glyph-name="triangle-up" d="M64 224h898c56 0 84 68 44 108l-450 448c-28 28-60 28-88 0l-450-450c-40-40-10-106 46-106z" />
<glyph unicode="&#xe0a3;" glyph-name="undo" d="M1024 144v-64c-144 220-334 250-510 256v-160c0-16-8-32-20-44-12-14-28-20-44-20s-34 6-46 20l-404 398 404 396c12 14 28 20 44 20s34-6 46-20c12-12 18-28 18-44v-164c288-32 512-278 512-574z" />
<glyph unicode="&#xe0a4;" glyph-name="user" d="M2 90c0 0-30 106 136 180 164 74 188 84 198 100 10 18 28 32 2 72-28 44-128 138-116 266 10 116 82 228 228 228s228-144 234-240c6-98-78-222-106-260-28-36-12-56 0-66s160-72 192-90c30-18 116-74 116-186-2-10-884-4-884-4zM684 922h340l-172-172z" />
<glyph unicode="&#xe0a5;" glyph-name="user-profile" d="M2 68c0 0-28 100 128 168 154 70 178 80 186 94 6 16 24 32 2 68-26 40-120 130-110 250 10 110 76 216 214 216s214-136 220-228c4-92-74-208-100-244s-12-54 0-64c12-10 150-66 180-84 32-16 110-68 110-176 0-2-830 0-830 0zM1024 754v42l-50 16-12 28 22 48-30 30-4-2-42-22-30 12-18 50h-42l-2-6-14-44-28-12-46 24-30-30 2-6 22-42-12-28-50-18v-42l6-2 44-14 12-30-22-48 30-30 4 4 42 22 28-12 20-52h42l2 6 14 46 28 12 48-24 30 30-4 6-22 42 12 30zM842 716c-32 0-58 26-58 60 0 32 24 58 58 58 32 0 58-26 58-58 0-34-26-60-58-60z" />
<glyph unicode="&#xe0a6;" glyph-name="varia" d="M252 516c0 0 8-2 14-2h486c6 0 10 0 12 2 0 2-2 6-4 10l-268 464c-2 2-2 4-4 6-2-2-2-4-4-6l-226-460c-8-8-8-12-6-14zM754 660c-6 0-10 0-16 0l64-110c28-48 4-84-48-84h-258c-6-24-10-48-10-72 0-148 122-268 268-268 148 0 270 120 270 268-2 146-122 266-270 266zM446 466h-180c-52 0-78 38-54 88l6 10h-168c-28 0-50-22-50-48v-440c0-26 22-48 50-48h438c28 0 48 22 48 48v88c-60 60-96 140-96 228-2 26 0 50 6 74z" />
<glyph unicode="&#xe0a7;" glyph-name="view" d="M512 612c-54 0-96-44-96-96 0-54 42-98 96-98s96 44 96 98c0 52-42 96-96 96zM512 790c-254 0-512-278-512-278s258-278 512-278c254 0 512 278 512 278s-258 278-512 278zM512 318c-108 0-196 88-196 198 0 108 88 196 196 196s196-88 196-196c0-110-88-198-196-198z" />
<glyph unicode="&#xe0a8;" glyph-name="view-eye" d="M384 512c0-70 58-128 128-128s128 58 128 128v2c-14-16-32-24-54-24-40 0-74 34-74 76 0 28 18 54 42 66-14 6-28 8-42 8-70 0-128-58-128-128zM996 584c-80 102-274 268-484 268s-404-166-484-268c-18-22-26-48-28-72 2-24 10-50 28-72 80-102 274-268 484-268s404 166 484 268c18 22 26 48 28 72-2 24-10 50-28 72zM512 300c-118 0-212 94-212 212s94 212 212 212c118 0 212-94 212-212s-94-212-212-212z" />
<glyph unicode="&#xe0a9;" glyph-name="wallet-33" d="M240 816l408 112-22 44c-14 28-50 40-78 26l-364-182zM774 924c-4 0-10 0-16-2l-388-106h476l-16 66c-8 26-30 42-56 42zM908 776h-850c-20 0-36-8-46-22-4-6-8-12-10-20 0-4-2-10-2-16v-640c0-32 26-58 58-58h850c32 0 56 26 56 58v160h-340c-54 0-98 44-98 98v128c0 26 10 50 28 68 16 14 36 26 58 28 4 0 8 2 12 2h340v156c0 32-24 58-56 58zM1006 506c-6 6-12 10-20 14-8 0-14 2-20 2h-342c-32 0-58-26-58-58v-128c0-30 26-56 58-56h342c6 0 12 0 20 2 6 2 14 8 20 12 10 12 18 26 18 42v128c0 18-8 32-18 42zM744 390c0-16-14-30-30-30h-18c-16 0-28 14-28 30v18c0 10 4 18 10 24 6 4 12 6 18 6h20c16 0 28-14 28-30v-18z" />
<glyph unicode="&#xe0aa;" glyph-name="warning-3" d="M510 972c-44 0-84-26-108-66-124-222-254-442-382-662-52-94 2-192 94-192 52 0 676 0 794 0 96 0 148 98 96 190l-382 660c-26 46-64 70-112 70zM516 722c70 0 90-68 84-108l-34-216c-2-38-16-74-54-74s-56 36-58 74l-28 216c-4 46 22 108 90 108zM512 292c40 0 74-34 74-74 0-42-34-74-74-74s-74 32-74 74c0 40 34 74 74 74z" />
<glyph unicode="&#xe0ab;" glyph-name="window" d="M574 322l62-62c20-20 54-20 74 0s20 54 0 74l-62 62 62 62c0 0-234 100-244 104-6 2-10 2-16 2-26 0-46-20-46-44 0-6 2-12 4-16 4-8 104-242 104-242zM0 118c0-48 38-86 84-86h854c48 0 84 38 84 86v788c0 48-36 86-84 86h-854c-46 0-84-38-84-86zM154 694h716c26 0 48-22 48-48v-460c0-26-20-48-48-48h-716c-26 0-48 20-48 48v460c0 26 22 48 48 48zM106 832c0 30 24 52 54 52s52-22 52-52c0-30-22-54-52-54s-54 24-54 54zM300 832c0 30 22 52 52 52s54-22 54-52c0-30-24-54-54-54s-52 24-52 54zM490 832c0 30 24 52 54 52s52-22 52-52c0-30-22-54-52-54s-54 24-54 54z" />
<glyph unicode="&#xe0ac;" glyph-name="wip" d="M882 970c0 0-104-54-106-56l-62-110-172-172-138 138c24 68 4 144-46 194-54 52-134 70-206 42-4-2-8-6-10-12 0-4 2-10 6-16l110-110-74-74-110 112c-4 4-10 6-16 4-6 0-10-4-12-10-28-70-12-152 44-204 50-52 126-70 192-48l138-138-20-20-48 50c-4 4-28-2-30-8l-22-68-178-106c-2-2-4-2-4-4l-92-106c-38-44-34-110 6-150l62-62c20-22 48-32 78-32 24 0 52 10 72 26l108 94c2 2 4 4 4 6l104 174 68 22c6 2 12 24 8 28l-50 50 20 18 146-144c-24-68-4-144 46-194 38-36 86-56 136-56 24 0 46 4 70 12 4 4 8 8 10 14 0 6-2 10-6 14l-110 112 74 74 110-110c4-4 10-6 16-6 6 2 10 6 12 10 28 72 10 152-44 206-50 50-126 68-192 46l-146 146 172 172 110 62c4 2 56 106 56 106" />
<glyph unicode="&#xe0ad;" glyph-name="woman-profile" d="M1024 148c-26 52-70 98-144 106l-28 2c0 0-84 16-148 48 0 0-48 30-48 30-12 12-20 22-24 34v16l30-2c68-10 134 36 134 36-34 10-24 32-4 82s-20 104-20 104c30 6 28 66 0 126-30 58-52 164-52 164-60 144-180 130-180 130l-10-4h-40l-8 4c0 0-120 12-180-132 0 0-22-104-52-162-28-60-30-120 0-126 0 0-40-54-20-104 18-48 28-72-6-82 0 0 68-46 134-36l32 2v-16c-4-12-14-22-24-34 0 0-48-30-48-30-66-32-150-48-150-48l-26-2c-72-8-116-54-142-104v-150h8l506 2 510-2z" />
<glyph unicode="&#xe0ae;" glyph-name="work-wear" d="M842 310c-22 24-50 38-84 38h-74l-50 46c-34-30-78-46-126-46-44 0-84 14-118 42l-44-42h-76c-40 0-70-14-94-42-70-80-58-252-52-306h780c2 54 10 230-62 310zM306 676c-14-12-24-30-24-52 0-32 22-58 48-64 6-48 26-92 56-122 6-6 14-14 20-20 8-6 18-12 28-18 22-10 46-18 72-18s52 6 72 18c10 6 20 12 28 18s14 12 20 20c30 30 50 72 54 122 2 0 2 0 4 0 30 0 54 28 54 62 0 22-8 40-24 52h-408zM720 798c-16 60-64 122-126 154v-156c0-2 0-2 0-2-2-6-2-12-6-18-6-16-22-26-40-26h-72c-18 0-32 8-40 22-2 4-4 10-6 16 0 4 0 4 0 8v156c-60-32-108-92-126-154l-4-12h-34v-74h492v74h-34zM476 768h72c10 0 20 6 24 14 2 4 2 8 2 14v192c0 6 0 10-2 14-4 12-16 22-32 22h-64c-16 0-26-10-28-24 0 0 0-2 0-2v-202c0-6 2-10 4-14 6-10 14-14 24-14z" />
<glyph unicode="&#xe0af;" glyph-name="workflow" d="M512 114l-420 264-92-58 512-320 512 320-92 56zM512 308l-418 262-94-60 512-320 512 320-94 60zM0 704l512-320 512 320-512 320z" />
<glyph unicode="&#xe0b0;" glyph-name="x-alt" d="M512 1024c-282 0-512-230-512-512s230-512 512-512c282 0 512 230 512 512s-230 512-512 512zM764 350l-90-90-162 162-162-162-90 90 162 162-162 162 90 90 162-162 162 162 90-90-162-162z" />
<glyph unicode="&#xe0b1;" glyph-name="zoom-in" d="M1024 142l-282 282c34 60 54 128 54 202 0 220-178 398-398 398-218 0-398-178-398-398s178-398 398-398c74 0 142 18 202 54l282-282zM100 626c0 164 134 298 298 298s296-134 298-298c0-164-134-298-298-298s-298 134-298 298zM604 666h-158v160h-96v-160h-158v-94h158v-158h96v158h158z" />
<glyph unicode="&#xe0b2;" glyph-name="zoom-out" d="M1024 142l-282 282c34 60 54 128 54 202 0 220-178 398-398 398-218 0-398-178-398-398s178-398 398-398c74 0 142 18 202 54l282-282zM100 626c0 164 134 298 298 298s296-134 298-298c0-164-134-298-298-298s-298 134-298 298zM192 666h412v-94h-412z" />
<glyph unicode="&#xe0b3;" glyph-name="year-overview" d="M538 998c-180 0-338-96-420-246l-118 118v-332h332l-142 142c66 128 194 216 348 216 210 0 384-174 384-384s-174-384-384-384c-170 0-308 108-364 256h-108c56-204 246-358 472-358 270 0 486 220 486 486s-220 486-486 486zM460 742v-260l242-144 40 66-204 124v214z" />
<glyph unicode="&#xe0b4;" glyph-name="file" d="M300 738c-36 0-36-54 0-54 142 0 282 0 424 0 36 0 36 54 0 54-142 0-282 0-424 0zM724 608c-142 0-282 0-424 0-36 0-36-56 0-56 142 0 282 0 424 0 36 0 36 56 0 56zM724 484c-142 0-282 0-424 0-36 0-36-54 0-54 142 0 282 0 424 0 36 0 36 54 0 54zM724 362c-142 0-282 0-424 0-36 0-36-54 0-54 142 0 282 0 424 0 36 0 36 54 0 54zM724 238c-142 0-282 0-424 0-36 0-36-54 0-54 142 0 282 0 424 0 36 0 36 54 0 54zM116 1024v-1024h792v882l-148 142zM840 68h-656v888h540v-108h116z" />
<glyph unicode="&#xe0b5;" glyph-name="multiple-files" d="M228 560c-26 0-26-40 0-40 104 0 208 0 312 0 28 0 28 40 0 40-104 0-206 0-312 0zM542 456c-104 0-208 0-312 0-28 0-28-40 0-40 102 0 208 0 312 0 26 0 26 40 0 40zM228 354c-26 0-26-42 0-42 104 0 208 0 312 0 28 0 28 42 0 42-104 0-206 0-312 0zM542 248c-104 0-208 0-312 0-28 0-28-42 0-42 102 0 208 0 312 0 26 2 26 42 0 42zM542 144c-104 0-210 0-312 0-28 0-28-40 0-40 102 0 208 0 312 0 26 0 26 40 0 40zM96 754v-754h582v650l-108 104c0 0-474 0-474 0zM628 50h-482v654h398v-80h84zM218 896v-88h50v38h398v-80h84v-574h-22v-50h72v648l-108 106zM820 1026h-474v-88h50v36h398v-80h84v-574h-22v-50h72v650z" />
<glyph unicode="&#xe0b6;" glyph-name="calendar-euro" d="M162 1014h108v-106h-108zM596 1014h106v-106h-106zM216 634h106v-106h-106zM216 476h106v-108h-106zM376 634h110v-106h-106v106zM380 476h106v-108h-106zM538 638h112v-106h-108v106zM522 222v32h-416v490h652v-236c18 2 36 6 54 4 18 2 36-2 54-4v506h-108v-164h-220v164h-212v-164h-220v164h-106v-862h530c-4 24-8 46-8 70zM648 462v14h-106v-108h22c16 38 48 70 84 94zM812 434c-116 0-212-96-212-212s94-212 212-212c118 0 212 96 212 212 2 116-94 212-208 212-2 0-2 0-4 0zM882 112c-4-4-4-4-8-4h-34c-24 0-48 8-68 22s-34 32-42 56h-20v30h20v16h-16v28h20c8 22 22 44 42 58 18 12 42 18 64 20 12 0 24-2 34-4 2 0 4-2 4-4v-4l-8-24c0-2-2-6-4-6h-26c-12 0-24-4-36-12-12-6-20-16-24-28h82v-4l-4-20c0-2-2-4-6-4h-80v-18h80v-4l-4-16v-4h-68c4-12 12-24 24-32 10-8 24-12 36-12h26c2 0 4-2 4-4z" />
<glyph unicode="&#xe0b7;" glyph-name="buy-leave" d="M692 678h40v-332h-40zM984 678h40v-332h-40zM692 386h332v-40h-332zM728 616h272v-40h-272zM818 678h82v-70h-82zM756 678h38v-40h-38zM920 678h40v-40h-40zM774 532h40v-40h-40zM774 468h40v-40h-40zM834 532h40v-40h-40zM838 468h40v-40h-40zM898 532h40v-40h-40zM898 472h40v-40h-40zM184 696c-102-2-182-84-184-184 2-100 82-182 184-184 100 2 182 82 182 184 0 100-80 182-182 184 0 0 0 0 0 0zM242 418l-2-2h-30c-20-2-42 6-56 20-16 12-28 30-34 50h-20v22h12v14h-12v24h16c4 20 16 36 32 46 16 12 36 18 56 16 10 2 20 0 28-2 6 2 6 2 6 0v-4l-6-24c0-2-2-2-4-2h-20c-12 0-22-4-32-10s-16-14-20-24h68c2 0 2-2 2-4v-2l-2-16c0-2-2-4-4-4h-70v-14h68c2 0 2-2 2-4v-2l-2-16v-4h-60c2-12 10-20 20-26 10-8 20-10 32-10h26c2 0 4-2 4-4zM624 512l-96 96v-60h-96v-72h96v-60z" />
<glyph unicode="&#xe0b8;" glyph-name="sell-leave" d="M0 678h40v-332h-40zM292 678h40v-332h-40zM0 386h332v-40h-332zM36 616h274v-40h-274zM122 678h84v-72h-84zM64 678h40v-40h-40zM230 678h40v-40h-40zM82 532h40v-40h-40zM82 468h40v-40h-40zM144 532h40v-40h-40zM146 468h40v-40h-40zM206 532h40v-40h-40zM206 468h40v-40h-40zM840 696c-100-2-182-82-182-184s82-184 182-184c102 0 184 82 184 184-2 100-82 182-184 184zM898 418l-4-2h-28c-22-2-42 6-58 20-14 12-26 30-32 50h-18v22h14v14h-14v24h16c6 20 16 36 32 46 18 12 36 18 58 16 8 2 18 0 26-2 2 0 2-2 2-4v-2l-6-24c0-2-2-4-4-4h-18c-14 0-24-2-34-10-8-4-16-14-18-24h66c2 0 2 0 2-2v-4l-2-16c0-2-2-2-4-2h-70v-14h68c2 0 2-2 2-4v-2l-2-10v-4h-56c2-12 10-20 18-26 10-8 22-10 34-10h26c2 0 4-2 4-4zM592 512l-96 96v-60h-96v-72h96v-60z" />
<glyph unicode="&#xe0b9;" glyph-name="document-new-2" d="M1002 294h-162v164c0 8-4 14-14 14h-90c-8 0-14-4-14-14v-164h-160c-10 0-14-2-14-12v-90c0-10 2-14 14-14h162v-162c0-10 4-14 14-14h86c8 0 12 4 12 14v164h164c8 0 12 2 12 12v90c4 6 0 12-10 12zM628 74h-530v662h252v214h400l4-386h86v460h-582l-246-208v-816h616z" />
<glyph unicode="&#xe0ba;" glyph-name="full-payout-ikb" d="M522 594c20 0 34 14 34 34 0 18-14 34-34 34-18 0-34-16-34-34 0-20 16-34 34-34zM878 594c18 0 34 14 34 34 0 18-16 34-34 34-20 0-34-16-34-34 0-20 14-34 34-34zM970 834h-532c-32 0-56-24-56-56v-186c8 0 16 0 24 0 10 0 16 0 24 0v126c4-2 8-2 14-2 30 0 56 26 56 56 0 6 0 10-2 14h414c0-2 0-6 0-10 0-30 24-56 56-56 2 0 6 0 10 0v-172c-4 2-6 2-10 2-32 0-56-26-56-58 0-2 0-6 0-10h-298c0-2 0-2 0-4s0-2 0-2v-42h354c32 0 56 24 56 56v288c0 32-24 56-54 56zM56 560c32-10 72-16 114-16 22 0 46 2 64 4 12 8 26 16 44 24 20 8 40 12 64 16v180c0 16-10 40-58 58-30 12-70 18-112 18-44 0-84-6-114-16-48-20-58-44-58-60v-372c0-18 10-42 56-58 32-12 72-18 114-18 10 0 18 0 28 0v38c-10-2-18-2-28-2-38 0-74 6-100 16s-34 20-34 24v22c6-2 14-6 20-8 32-10 72-16 114-16 10 0 18 0 28 0v38c-10 0-18 0-28 0-38 0-74 4-100 14-26 12-34 20-34 24v24c6-4 14-6 20-8 32-12 72-18 114-18 10 0 18 0 28 0v10c0 8 0 20 6 30-12 0-22 0-34 0-38 0-74 6-100 16s-34 20-34 22v24c8-4 14-6 20-10zM70 790c26 10 62 16 100 16 40 0 74-6 100-16s32-18 32-22v-2c0-2-6-12-32-22s-62-16-100-16c-38 0-74 6-100 16s-34 20-34 22c2 4 8 14 34 24zM38 718c6-4 12-6 20-8 30-12 70-18 114-18 42 0 82 6 112 18 8 2 14 4 20 8v-24c0-4-6-12-32-22-26-12-62-16-100-16s-74 4-100 16c-26 10-34 18-34 22zM38 644c6-4 12-6 20-10 30-10 70-16 114-16 42 0 82 6 112 16 8 4 14 6 20 10v-24c0-4-6-12-32-24-26-10-62-14-100-14s-74 4-100 14c-26 12-34 20-34 24zM520 536c-30 12-70 18-114 18-42 0-82-6-112-18-48-18-58-42-58-58v-224c0-16 12-40 58-58 30-10 70-16 112-16 44 0 84 6 114 16 48 18 58 42 58 58v224c0 16-10 40-58 58zM306 500c26 10 62 16 100 16s74-6 100-16c26-10 32-20 32-24v0c0-4-8-12-32-22-26-12-62-16-100-16-40 0-74 4-100 16-28 10-34 18-34 22 0 2 8 14 34 24zM508 232c-28-10-64-14-102-14s-74 4-100 14c-26 12-32 20-32 24v24c4-4 12-6 20-8 30-12 70-18 112-18 44 0 84 6 114 18 8 2 14 4 20 8v-24c0-4-6-12-32-24zM540 330c0-4-6-14-32-22-26-10-62-16-100-16s-74 6-100 16c-28 10-34 18-34 22v24c6-4 14-6 20-8 30-12 70-18 114-18s82 6 114 18c6 2 14 4 20 8zM540 404c0-2-6-12-32-22s-62-16-100-16c-38 0-74 6-100 16-28 10-34 20-34 22v24c6-2 14-6 20-8 30-12 70-18 114-18s82 6 114 18c6 4 14 6 20 8zM702 756c-68 0-122-54-122-122s54-124 122-124c66 0 122 56 122 124s-56 122-122 122zM746 688c-10 6-20 12-30 12-12 0-24-4-32-10-4-4-8-8-12-14s-6-14-8-20h74l-4-14h-72c0 0 0-2 0-4 0-6 0-10 0-10h70l-4-14h-64c4-18 10-30 22-36 8-6 18-8 26-8 14 0 24 2 32 10v-22c-10-4-20-6-30-6-32 0-54 12-66 40-2 6-4 14-6 22h-16l2 14h12c0 2 0 6 0 10 0 2 0 4 0 4h-14l2 14h12c4 24 18 42 36 52 10 6 24 10 38 10s26-4 34-10z" />
</font>
</defs>
</svg>
