<?xml version="1.0" standalone="no"?>
<!DOCTYPE svg PUBLIC "-//W3C//DTD SVG 1.1//EN" "http://www.w3.org/Graphics/SVG/1.1/DTD/svg11.dtd" >
<svg xmlns="http://www.w3.org/2000/svg">
<metadata>Generated by IcoMoon</metadata>
<defs>
<font id="motion" horiz-adv-x="512">
<font-face units-per-em="512" ascent="512" descent="0" />
<missing-glyph horiz-adv-x="512" />
<glyph unicode="&#x20;" horiz-adv-x="0" d="" />
<glyph unicode="&#xe000;" glyph-name="absence" d="M96 0h-64v512h64zM352 383l127 128h-351v-255h352z" />
<glyph unicode="&#xe001;" glyph-name="add-type" d="M512 307l-205 1v204h-103v-204h-204v-103h204v-205h103v205h205z" />
<glyph unicode="&#xe002;" glyph-name="appraisal" d="M194 176c-4-7-12-12-49-28 1-1 3-2 5-2l114-70 78 94c-3 2-7 3-9 5-8 6-16 16 0 37 13 19 26 38 36 58 2 3 3 5 3 8 2 2 2 4 3 6s2 5 4 8c9 22 16 45 15 67-3 54-50 134-135 134-84 0-126-62-132-129-6-71 52-125 68-148 14-21 4-31-1-40zM90 19h147l-98 60zM79 120c-95-41-78-101-78-101h8l90 109zM444 124c-7 5-24 12-43 20l-103-125c113 0 214 0 214 0 0 64-49 94-68 105zM478 290l-90-13 27-18 14-10-11-13-142-170-9-12-12 7-114 72c-2 1-5 2-8 2-5 0-10-2-12-5l-91-110h40l56 70 10 11 11-7 114-70 3-1h10l3 1c1 0 2 0 2 0h1l4 4 169 205 12-9 14-9 11-9h2z" />
<glyph unicode="&#xe003;" glyph-name="arrow-down" d="M0 384h512l-256-256z" />
<glyph unicode="&#xe004;" glyph-name="arrow-fat-left" d="M214 257l175-191c17-18 18-38 0-54-18-17-37-16-54 2l-212 215c-17 18-17 38 0 54l212 215c17 18 38 18 54 0 18-18 17-35 0-53z" />
<glyph unicode="&#xe005;" glyph-name="arrow-fat-right" d="M298 257l-175-191c-16-18-18-37 0-54 18-18 37-15 54 3l213 215c16 18 16 37 0 54l-213 215c-16 18-37 18-54 0-18-18-16-35 0-53z" />
<glyph unicode="&#xe006;" glyph-name="arrow-left" d="M128 256l256 256v-512z" />
<glyph unicode="&#xe007;" glyph-name="arrow-right" d="M128 0v512l256-256z" />
<glyph unicode="&#xe008;" glyph-name="arrow-up" d="M256 384l256-256h-512z" />
<glyph unicode="&#xe009;" glyph-name="attachment" d="M197 6c-9 0-16 7-16 17 0 4 1 8 4 11l269 273c35 36 35 92 1 128l-13 12c-16 17-39 27-62 27-24 0-47-10-63-27l-268-268c-22-23-22-59 0-82l8-9c12-11 27-18 43-18 15 0 29 6 39 16l240 244c9 9 9 24 0 33l-5 5c-4 4-9 6-16 6-6 0-11-2-15-6l-222-226c-6-6-17-6-23 0s-7 17 0 23l221 226c21 21 56 22 78 0 0 0 0 0 0 0l5-5c21-22 21-56 0-78l-240-245c-16-16-39-25-62-25-24 0-48 10-66 28l-8 8c-35 36-35 92 0 127l267 269c46 47 123 48 170 2 0-1 1-1 1-2l13-12c47-48 47-126-1-174l-268-273c-3-3-7-5-11-5z" />
<glyph unicode="&#xe00a;" glyph-name="bell" d="M256 0c-39 0-75 26-86 62h-141c-16 0-29 13-29 29 0 20 8 39 23 51 42 37 80 88 80 217 0 86 67 153 153 153s153-67 153-153c0-129 38-178 80-214 15-13 23-31 23-52 0-15-13-28-29-28h-141c-11-39-47-65-86-65zM238 62c5-3 13-5 18-5 8 0 13 2 18 5zM432 119c-55 57-80 132-80 238 0 52-44 96-96 96s-96-44-96-96c0-109-23-181-78-238z" />
<glyph unicode="&#xe00b;" glyph-name="bell-2" d="M18 110c37 30 64 68 82 113 19 45 28 93 28 143 0 31 9 56 28 74 18 19 43 30 75 34-2 3-2 7-2 10 0 8 2 15 8 20s11 8 19 8c8 0 14-3 19-8 6-5 9-12 9-20 0-3-1-7-2-10 32-4 57-15 75-34 18-18 28-43 28-74 0-50 9-98 27-143 19-45 46-83 82-113 0-10-4-19-11-26s-16-11-25-11h-128c0-20-7-37-22-51-14-15-32-22-51-22-20 0-38 7-52 22-15 14-22 31-22 51h-128c-9 0-18 4-25 11s-12 16-12 26zM206 73c0-14 5-25 15-35 9-10 21-15 35-15 3 0 5 2 5 5s-2 4-5 4c-11 0-21 4-29 13-8 8-12 17-12 29 0 3-2 4-5 4s-4-2-4-5z" />
<glyph unicode="&#xe00c;" glyph-name="bicycle" d="M0 202c0-54 44-98 98-98s98 44 98 98c0 39-23 72-56 88l15 51 98-156c3-5 8-7 13-7 1 0 1 0 1 0l52 3c10-44 49-77 96-77 53 0 98 44 98 98s-45 98-98 98c-11 0-20-2-29-5l-18 35 6 10c1 2 2 3 2 5h3c9 0 16 7 16 15 0 9-7 16-16 16h-38c-9 0-16-7-16-16 0-5 2-9 6-12l-142 2c0 0-1 0-2 0l-17 26h42c9 0 16 7 16 16s-7 16-16 16h-66c-9 0-16-7-16-16 0-4 2-7 4-10l-25-84c-4 1-8 1-12 1-53-1-97-44-97-97zM356 280c-21-16-36-40-39-69l-22-1 53 87zM414 136c-30 0-55 19-63 46l64 4c5 0 10 3 13 8 2 4 2 10 0 14l-29 58c4 1 10 1 15 1 36 0 66-29 66-66 0-36-30-65-66-65zM349 214c3 15 11 28 22 38l18-35zM206 317l116-2-56-92zM32 202c0 36 29 66 66 66 1 0 2 0 2 0l-18-62c-2-8 3-17 11-19 8-3 18 2 20 11l18 61c19-11 32-33 32-57 0-36-29-66-66-66-36 0-65 29-65 66z" />
<glyph unicode="&#xe00d;" glyph-name="bicycle-parts" d="M497 197v-37c0-6-4-12-11-12h-74c-6 0-13 6-13 12v6h-38c-6 0-11 5-11 12 0 6 5 11 11 11h38v8c0 6 7 12 13 12h74c7 0 11-6 11-12zM430 451c0 13-11 24-24 24h-87c-5 0-9-3-11-8h-50c-1 5-7 10-12 10h-25c-5 0-10-4-12-10h-50c-2 5-6 8-12 8h-86c-13 0-24-11-24-24s11-24 24-24h86c6 0 10 3 11 8h51v-9c0-46-1-10 0-55v-26c-27-10-45-35-45-64v-105c0-9 8-16 16-16 9 0 16 7 16 16v104c0 13 7 24 16 31 3-2 6-3 9-3h24c3 0 6 1 8 3 10-7 16-18 16-31v-105c0-9 7-16 16-16s16 7 16 16v105c0 29-19 54-44 64v26c-2 36 0 9 0 56v9h51c1-5 6-8 11-8h86c14 0 25 11 25 24zM233 267c-12 0-23-9-23-22v-222c0-13 11-22 23-22s22 9 22 22v222c0 13-10 22-22 22zM150 110h-37v7c0 7-5 12-12 12h-73c-7 0-13-5-13-12v-36c0-7 6-12 13-12h73c7 0 12 5 12 12v5h37c7 0 12 5 12 12 0 6-5 12-12 12zM126 490c0 12-12 22-28 22-15 0-28-10-28-22z" />
<glyph unicode="&#xe00e;" glyph-name="bookmark-2" d="M118 512v-512l139 161 137-158v509z" />
<glyph unicode="&#xe00f;" glyph-name="bus" d="M466 387c-4 41-10 72-21 85-43 51-348 55-382 0-9-13-14-45-18-85-13-2-23-13-23-26v-50c0-11 7-21 16-24-2-79 0-161 3-202 0-32 21-26 21-26h20v-34c0-14 14-25 32-25 17 0 31 11 31 25v34h231v-34c0-14 14-25 32-25 17 0 31 11 31 25v34h6c0 0 26-4 27 11 0 41 3 131 1 217 10 3 17 13 17 24v50c0 14-10 25-24 26zM137 465h234v-35h-234zM140 99c-18 0-33 15-33 33 0 19 15 33 33 33 19 0 34-14 34-33 0-18-15-33-34-33zM370 99c-19 0-34 15-34 33 0 19 15 33 34 33 18 0 33-14 33-33 0-18-15-33-33-33zM412 244h-316v166h316z" />
<glyph unicode="&#xe010;" glyph-name="business" d="M470 386h-76v71c0 16-13 29-29 29h-219c-15 0-28-13-28-29v-72h-76c-23 0-42-19-42-42v-274c0-24 19-43 42-43h427c24 0 42 19 42 43v274c1 23-18 43-41 43zM175 429h162v-43h-162z" />
<glyph unicode="&#xe011;" glyph-name="calendar" d="M306 141h52v-54h-52zM231 283h54v-53h-54zM306 212h52v-54h-52zM380 283h54v-53h-54zM231 212h54v-54h-54zM306 283h52v-53h-52zM380 212h54v-54h-54zM83 141h54v-54h-54zM83 212h54v-54h-54zM83 471v-56c-1-58 88-58 88 0v56h175v-56c0-59 88-59 88 0 0 13 1 33 0 33v23h78v-471h-512v471zM465 47v295h-418v-295zM158 283h52v-53h-52zM158 141h52v-54h-52zM231 141h54v-54h-54zM158 212h52v-54h-52zM105 410v80c0 29 44 29 44 0v-80c-1-29-44-29-44 0zM368 410v80c0 29 43 29 43 0v-80c0-29-43-29-43 0z" />
<glyph unicode="&#xe012;" glyph-name="call-in-sick" d="M142 435c-2 26 20 53 52 64 9 3 21 5 31 5 21 1 41 1 62 0 44 0 81-30 83-66 0-1 0-2 0-3-18 0-36 0-54 0-1 2-1 4-2 6-4 11-15 18-29 18-19 0-39 0-59 0-15 0-26-8-30-20 0-1-2-4-4-4-17 0-33 0-50 0zM449 421h-386c-34 0-63-32-63-70v-273c0-39 29-70 63-70h386c34 0 63 31 63 70v273c1 38-28 70-63 70zM377 176h-82v-83h-77v83h-82v76h82v82h77v-82h82z" />
<glyph unicode="&#xe013;" glyph-name="care-leave" d="M256 512c-141 0-256-115-256-256s115-256 256-256c141 0 256 115 256 256s-115 256-256 256zM256 28c-126 0-228 102-228 228s102 228 228 228c126 0 228-102 228-228s-102-228-228-228zM395 307h-88v88c0 8-6 14-14 14h-74c-8 0-14-6-14-14v-88h-88c-8 0-14-6-14-14v-74c0-8 6-14 14-14h88v-88c0-8 6-14 14-14h74c8 0 14 6 14 14v88h88c8 0 14 6 14 14v74c0 8-6 14-14 14zM381 233h-88c-8 0-14-6-14-14v-88h-46v88c0 8-6 14-14 14h-88v46h88c8 0 14 6 14 14v88h46v-88c0-8 6-14 14-14h88z" />
<glyph unicode="&#xe014;" glyph-name="chart-bar" d="M23 462c-13 0-23-8-23-20v-370c0-13 9-22 23-22h470c12 0 19 10 19 22 0 11-8 21-19 21h-443c-2 0-5 2-5 5v344c0 12-9 20-22 20zM88 275h113v-157h-113zM223 411h112v-293h-112zM358 321h113v-203h-113z" />
<glyph unicode="&#xe015;" glyph-name="chat" d="M318 184h-215v169h-103v-244h58v-95l85 95h184v66zM512 498v-285h-68v-112l-99 111h-214v286zM436 435h-228v-52h228zM436 328h-228v-52h228z" />
<glyph unicode="&#xe016;" glyph-name="check-alt" d="M256 512c-141 0-256-115-256-256s115-256 256-256c141 0 256 115 256 256s-115 256-256 256zM217 138l-118 117 45 46 73-73 154 154 45-45z" />
<glyph unicode="&#xe017;" glyph-name="checkmark" d="M433 456l-240-240-113 112-80-80 192-192 320 320z" />
<glyph unicode="&#xe018;" glyph-name="circle" d="M512 256c0-141-115-256-256-256s-256 115-256 256c0 141 115 256 256 256s256-115 256-256z" />
<glyph unicode="&#xe019;" glyph-name="clock-2" d="M256 512c-141 0-256-115-256-256s115-256 256-256c141 0 256 115 256 256s-115 256-256 256zM329 137l-105 106v141h64v-115l87-86z" />
<glyph unicode="&#xe01a;" glyph-name="clock-3" d="M352 288h-64v64c0 18-14 32-32 32s-32-14-32-32v-96c0-18 14-32 32-32h96c18 0 32 14 32 32s-14 32-32 32zM256 512c-141 0-256-115-256-256s115-256 256-256c141 0 256 115 256 256s-115 256-256 256zM256 64c-106 0-192 86-192 192s86 192 192 192c106 0 192-86 192-192s-86-192-192-192z" />
<glyph unicode="&#xe01b;" glyph-name="close" d="M512 445l-67 67-189-188-189 188-67-67 188-189-188-189 67-67 189 189 189-189 67 67-188 189z" />
<glyph unicode="&#xe01c;" glyph-name="cloud-download" d="M445 338c-1 65-54 117-118 117-38 0-72-18-94-46-12 16-31 26-53 26-37 0-67-29-67-67 0-3 0-6 1-10-6 1-12 2-18 2-52 0-96-43-96-96 0-54 44-98 97-98h49l110-109 109 109h60c48 0 87 39 87 87 0 42-28 76-67 85zM256 102l-96 97h64v95h64v-96h64z" />
<glyph unicode="&#xe01d;" glyph-name="coffee" d="M0 133h495c0-20-7-37-21-51-14-13-30-20-50-20h-353c-20 0-37 7-51 20-13 14-20 31-20 51zM71 229v204c0 4 1 8 5 12 3 4 7 5 12 5h318c29 0 54-10 75-31 20-21 31-46 31-75s-10-54-31-75c-21-20-46-31-75-31h-17v-9c0-17-7-31-19-43s-26-19-43-19h-194c-17 0-32 7-44 19s-18 26-18 43zM389 291h17c15 0 27 5 37 16 11 10 16 23 16 37 0 15-5 27-16 37-10 11-23 16-37 16h-17z" />
<glyph unicode="&#xe01e;" glyph-name="collapse" d="M393 73l74-73 45 45-73 74 73 73h-192v-192zM0 320h192v192l-73-73-73 72-45-45 72-73zM0 45l45-45 74 73 73-73v192h-192l73-73zM320 320h192l-73 73 72 73-45 45-73-72-73 73z" />
<glyph unicode="&#xe01f;" glyph-name="colleagues" d="M244 245c-4 4-9 9 0 21 8 12 31 48 31 75-1 28-25 70-68 70-42 0-64-34-66-67-4-38 25-65 34-78 8-11 1-16-1-20-3-5-10-8-58-29-5-2-9-4-12-7 26-26 62-43 101-43 41 0 78 18 104 47-4 3-6 5-9 5-10 6-53 23-56 26zM497 88l-106 107c-18-31-43-55-74-74l106-106c20-20 53-20 74 0 20 21 20 54 0 73zM381 204c18 30 29 66 29 103 0 114-93 205-205 205-113 0-205-92-205-205 0-112 92-205 205-205 37 0 73 11 103 29 31 17 56 42 73 73zM205 154c-20 0-39 3-57 10-22 9-40 22-56 38-25 28-41 64-41 105 0 85 69 154 153 154 85 0 153-69 154-154 0-39-15-76-40-103-16-18-36-31-58-40-17-7-36-10-55-10z" />
<glyph unicode="&#xe020;" glyph-name="commuting" d="M511 293c-2 9-11 14-21 12l-9-3-24 47c-6 13-24 24-39 24h-123c-14 0-32-11-38-24l-24-47-10 3c-8 2-18-3-21-12-2-8 3-18 12-21h2c-1-3-1-6-1-9v-58c0-1 0-2 0-2 0-1 0-2 0-2v-54c0-10 8-18 17-18h27c10 0 18 8 18 18v25c22-3 50-4 80-4s58 1 80 4v-25c0-10 8-18 18-18h26c10 0 18 8 18 18v53c0 1 0 2 0 2 0 1 0 2 0 2v59c0 3 0 6-1 9h2c9 3 14 13 11 21zM281 337c2 4 10 9 14 9h123c4 0 13-5 15-9l20-40c0-7-43-12-97-12-53 0-96 5-96 12zM262 224c-16 1-28 6-27 22 2 19 12 19 30 16 10-2 33-11 31-26-1-16-18-13-34-12zM379 189h-46c-5 0-9 5-9 10s4 9 9 9h46c6 0 10-4 10-9 1-5-4-10-10-10zM451 224c-16-2-33-4-35 12-1 15 22 24 31 26 19 3 29 3 31-16 1-16-11-21-27-22zM2 147c-4-6-3-13 3-17s13-3 17 3c2 3 21 31 40 58l-15 22c-21-32-43-64-45-66zM37 362c0-12 10-22 22-22s22 10 22 22c0 13-10 23-22 23s-22-11-22-23zM170 239h-17v8c0 3-2 4-4 4h-9c0 2 0 4-2 7-1 2-46 68-46 68-4 5-9 7-14 7h-35c-5 0-9-2-12-6 0 0-21-29-26-35-1-2-2-4-1-6 0-5 0-28 0-35 0-5 4-9 9-9s9 4 9 9c0 2 0 22 0 33 3 3 8 10 13 18v-44c0-11 2-19 7-26 15-23 64-94 68-99 3-6 11-7 16-3 6 4 8 11 4 17-1 1-12 16-25 36h66c3 0 6 2 6 5v45c-1 3-3 6-7 6zM110 247v-8h-17c-3 0-5-3-5-6v-25c-2 2-4 6-6 8v91c12-18 31-45 38-56h-6c-2 1-4-1-4-4zM144 239h-25v4h25z" />
<glyph unicode="&#xe021;" glyph-name="compensation-leave" d="M355 413c-29 0-59-9-80-23v-35c21 18 50 29 80 29 70 0 127-57 127-127 0-71-57-127-126-127-31 0-60 11-81 29v-36c21-14 51-23 80-23 87-1 157 69 157 156s-70 157-157 157zM354 361c-32 0-63-14-79-37v-135c16-23 47-37 79-37 58 0 105 47 105 104 0 58-47 105-105 105zM383 313l-3-22c-5 4-11 7-20 7s-16-1-22-8c-3-3-5-6-6-11h46l-3-15h-44c0 0 0-3 0-5s0-6 0-6h42l-3-15h-38c2-5 4-10 6-14 6-6 12-9 21-9 11 0 14 3 24 9v-25c-10-3-14-5-24-5-15 0-28 5-38 16-8 8-12 17-14 28h-13l3 15h8c0 0 0 2 0 4 0 3 0 6 0 6h-11l3 16h10c2 10 6 17 14 25 10 11 23 15 39 15 10 0 13-3 23-6zM224 429v-51c-5 7-22 14-37 19h1v16h31v-3c0 25-18 45-44 45h-33c-25 0-47-19-47-45v3h36v-20c-72-14-131-78-131-156 0-87 68-159 156-159 25 0 53 6 68 17v-37h41v371zM156 115c-68 0-121 54-121 122 0 67 53 121 120 121 26 0 54-8 69-22v-98h-67v100c-57 0-100-46-100-101 0-56 43-101 99-101 27 0 58 11 68 29v-27c-16-15-42-23-68-23z" />
<glyph unicode="&#xe022;" glyph-name="consignment" d="M241 59h-112c-5 0-10 2-13 6-3 3-5 8-5 13v112c81 0 147 66 147 147 0 1 0 2 0 3l20 17 167-138c0 0 0-1 0-1v-140c0-10-8-18-18-18h-112v112h-74v-113zM486 212h-1c-2 0-5 0-6 2l-201 167-23-19c-3 17-8 33-16 47l17 15c13 10 31 10 44 0l71-59v56c0 2 1 5 2 7 2 1 4 2 7 2h56c2 0 5-1 6-2 2-2 3-5 3-7v-118l63-53c2-2 3-4 3-6 0-3 0-5-2-7l-17-21c-2-2-4-4-6-4zM151 282l-49 48v65h30v-52l39-40zM117 453c-64 0-117-52-117-117s52-117 117-117c65 0 117 52 117 117s-52 117-117 117zM117 248c-48 0-87 40-87 88 0 49 39 87 87 87 49 0 88-39 88-87s-40-88-88-88z" />
<glyph unicode="&#xe023;" glyph-name="contacts-tel" d="M79 490c-20 0-35-16-35-35v-52h31c27 0 49-25 49-55s-22-55-49-55h-31v-85h31c27 0 49-25 49-55s-22-55-49-55h-31v-41c0-20 15-35 35-35h323c20 0 36 15 36 35v398c0 19-16 35-36 35zM220 409c2 0 3 1 5 0 3-1 5-4 7-7l38-63c2-3 3-7 3-10-1-3-3-6-6-8l-26-15c-1-1-3-3-5-5s-3-6-3-10c0-7 3-13 6-21 10-21 22-40 33-55 9-12 15-21 20-25 6-3 11-5 17-1l26 16c6 3 14 2 18-4l36-63c3-5 1-14-5-18l-28-18c-5-2-11-4-21-4-10 1-22 4-35 11-28 13-62 42-97 102-33 58-41 100-39 129 2 30 13 45 22 51l29 17c1 1 3 1 5 1zM463 441v-94h49v94zM463 317v-93h49v93zM463 195v-94h49v94zM20 369h62c12 0 21-9 21-21s-9-21-21-21h-62c-11 0-20 9-20 21s9 21 20 21zM20 174h62c12 0 21-9 21-21 0-11-9-21-21-21h-62c-11 0-20 9-20 21s9 21 20 21z" />
<glyph unicode="&#xe024;" glyph-name="contracts" d="M302 82v-82l25 25 25-25v82c-8-4-17-5-25-5s-17 2-25 5zM369 136c0-23-19-42-42-42s-42 19-42 42c0 23 19 42 42 42s42-19 42-42zM352 395h84l-101 117v-100c0-11 9-17 17-17zM319 412v100h-209c-19 0-34-15-34-33v-385c0-19 15-34 34-34h175v36c-10 10-17 25-17 40 0 31 27 58 59 58 31 0 58-27 58-58 0-17-7-31-17-40v-36h33c19 0 34 15 34 34v284h-83c-18 0-33 15-33 34zM126 454h141v-27h-141zM386 238h-260v27h260zM386 298h-260v27h260z" />
<glyph unicode="&#xe025;" glyph-name="cutlery" d="M242 491v-144c0-8-23-27-40-38v-43c8-3 15-11 15-19v-226c0-12-10-21-21-21h-15c-12 0-21 9-21 21v226c0 9 6 17 14 19v42c-17 12-43 31-43 39v144c0 12 6 21 18 21h8v-151c0-3 4-6 10-6s10 3 10 6v151h19v-151c0-3 5-6 10-6 6 0 11 3 11 6v151h3c12 0 22-9 22-21zM359 508c0 0-56-36-56-132 0-8 0-15 0-19 0-95 21-137 35-161v-181c0-8 7-15 15-15h11c9 0 15 7 15 15v190c1 1 1 2 1 4v278c0 12-4 28-21 21z" />
<glyph unicode="&#xe026;" glyph-name="datepicker" d="M449 512v-97h-130v97h-127v-97h-129v97h-63v-512h512v512zM63 62v290h386v-290h-386zM96 512h64v-64h-64zM352 512h64v-64h-64zM127 288h64v-64h-64zM127 191h64v-64h-64zM223 288h64v-64h-64zM224 191h64v-64h-64zM319 289h64v-64h-64zM320 193h64v-64h-64z" />
<glyph unicode="&#xe027;" glyph-name="deduct-type" d="M0 308h512v-103h-512z" />
<glyph unicode="&#xe028;" glyph-name="disability" d="M350 89c-9 9-23 10-33 2-23-20-53-31-84-31-74 0-135 61-135 136 0 33 13 64 34 89 7 7 7 19 0 26-5 5-10 10-14 15-4 4-9 6-15 6-5 0-10-2-14-6-11-12-21-25-29-40-14-28-22-59-22-90 0-107 88-194 195-194 31 0 62 7 89 21 12 6 23 14 33 22 5 4 9 11 9 17 1 7-2 14-7 19zM172 417c26 0 48 21 48 47s-22 48-48 48c-26 0-48-22-48-48s22-47 48-47zM474 35l-30 164c-2 10-8 19-16 25-7 4-14 6-22 6-3 0-5 0-8 0l-136-27c0 0-1 0-1 0-4 0-7 2-8 5l-11 56 95 16c15 3 25 17 22 32-2 13-13 22-27 22-1 0-3 0-4 0l-97-17-12 61c-2 15-15 25-29 25-2 0-4 0-6-1-7-1-15-5-19-12s-6-14-4-22l39-200c2-10 7-18 16-24 6-4 14-7 22-7 2 0 5 0 7 1l137 27c2 0 4 0 6-1 1-1 2-3 3-5l24-134c2-15 15-25 29-25 2 0 3 0 6 1 7 1 14 5 18 12 5 6 7 14 6 22z" />
<glyph unicode="&#xe029;" glyph-name="document-file" d="M399 429c-5 5-10 10-14 14-6 5-10 10-15 15-34 34-54 53-75 53h-157c-43 0-79-35-79-78v-354c0-44 36-79 79-79h236c43 0 79 35 79 79v275c0 21-20 41-54 75zM413 79c0-21-17-39-39-39h-236c-21 0-39 17-39 39v355c0 21 17 39 39 39h144c14-3 13-21 13-38v-61c0-11 9-20 20-20h59c19 0 39 0 39-19z" />
<glyph unicode="&#xe02a;" glyph-name="document-financial" d="M438 368l-103 124c-12 14-22 21-41 21h-190c-27 0-49-26-49-58v-397c0-32 22-58 49-58h305c27 0 49 26 49 58v260c-1 25-5 34-20 50zM237 427h76c10 0 16-8 16-16v-11c0-10-6-16-16-16h-76zM79 342v10c0 2 2 4 4 4h12v8h-12c-3 0-4 2-4 4v9c0 3 2 4 4 4h15v2c4 13 11 24 22 32 8 6 18 10 28 11 15 3 30 1 43-5 2 0 2 0 3-1 4-2 4-4 3-8-2-3-3-8-5-11s-4-4-7-4c-2 1-4 1-6 2-3 0-5 1-8 2-10 2-20 2-30-2-8-3-13-9-17-17 0 0 0 0 0-1h29c3 0 4-2 4-4v-9c0-3-2-4-4-4h-33c0-2 0-4 0-6v-2h33c3 0 4-2 4-4v-10c0-3-2-4-4-4h-30c3-10 10-19 20-22 9-3 18-3 27-1 3 1 6 1 8 2s4 1 6 2 6 0 7-4c2-3 4-7 6-11 1-3 0-6-3-8-4-1-8-3-12-4-15-4-30-4-45 1-18 5-30 18-37 35-1 3-1 5-2 8l-1 3h-15c-1-1-3 0-3 3zM424 112c0-10-8-16-16-16h-306c-9 0-15 8-15 16v11c0 10 6 16 15 16h306c10 0 16-8 16-16zM424 208c0-10-8-16-16-16h-306c-9 0-15 8-15 16v11c0 10 6 16 15 16h306c10 0 16-8 16-16zM410 288h-171v43h169c10 0 16-8 16-16l1-11c0-10-7-16-15-16z" />
<glyph unicode="&#xe02b;" glyph-name="document-new" d="M447 427c-5 5-9 9-15 15-5 5-9 9-16 16-32 35-54 54-73 54h-158c-41-2-76-37-76-81v-166h39v166c0 22 18 40 40 40h144c13-5 13-22 13-40v-59c0-11 9-19 20-19h58c20 0 40 0 40-20v-255c0-22-18-39-40-39h-231v-40h231c43 0 78 35 78 79v275c1 22-19 41-54 74zM225 140h-77v76c0 5-2 7-6 7h-42c-4 0-6-2-6-7v-76h-77c-4 0-6-2-6-7v-41c0-5 2-7 6-7h77v-76c0-5 2-7 6-7h42c4 0 6 2 6 7v76h77c4 0 6 2 6 7v41c0 4-2 7-6 7z" />
<glyph unicode="&#xe02c;" glyph-name="document-person" d="M321 0c0 0-7 23 28 39 34 16 39 18 41 21 1 4 5 8 0 16-5 9-26 29-24 57 2 26 17 50 47 50s47-31 48-52c1-21-16-49-22-57-5-8-2-12 0-15 3-2 34-15 40-19 7-4 24-16 24-41 1 0-182 1-182 1zM328 512c6 0 14-4 18-8l53-62c3-4 7-12 7-19v-231c-2 0-4 0-5 0-31 0-53-25-55-51-2-22 11-40 20-51 2-2 3-4 4-6 4-7 2-10 1-13-1-1-1-1-1-2-2-3-7-6-42-21-35-16-28-39-28-39s0-3 0-8h-235c-32 0-57 25-57 56v399c0 31 25 56 57 56zM86 99h242c7 0 14 6 14 14 0 7-7 13-14 13h-242c-8 0-14-6-14-13 0-8 6-14 14-14zM86 213h242c7 0 14 6 14 13 0 8-7 14-14 14h-242c-8 0-14-7-14-14s6-13 14-13zM86 327h242c7 0 14 6 14 13 0 8-7 14-14 14h-242c-8 0-14-6-14-14 0-7 6-13 14-13zM325 417h47c7 0 9 4 4 9l-55 60c-5 6-9 4-9-3v-53c0-8 5-13 13-13z" />
<glyph unicode="&#xe02d;" glyph-name="document-single" d="M395 504c-3 4-12 8-18 8h-264c-31 0-57-25-57-56v-400c0-31 25-56 57-56h286c31 0 56 25 56 56v367c0 7-3 15-7 19 1 0-53 62-53 62zM378 99h-244c-8 0-13 6-13 14 0 7 6 13 13 13h244c8 0 13-6 13-13 0-8-5-14-13-14zM378 213h-244c-8 0-13 6-13 13 0 8 6 14 13 14h244c8 0 13-7 13-14s-5-13-13-13zM378 327h-244c-8 0-13 6-13 13 0 8 6 14 13 14h244c8 0 13-6 13-14 0-7-5-13-13-13zM422 417h-48c-7 0-13 6-13 13v53c0 6 4 8 9 3l55-60c5-5 4-9-3-9z" />
<glyph unicode="&#xe02e;" glyph-name="document-travel" d="M44 474v-474h343c13 0 26 7 33 18 27 1 48 23 48 50v394c0 28-22 50-49 50h-342zM179 172h50v-71c-22 4-40 32-50 71zM200 105c-38 10-69 34-88 66h54c8-29 19-52 34-66zM176 183c-3 17-6 35-6 55h59v-55zM170 249c0 20 3 38 6 55h53v-55zM179 315c10 39 28 66 50 71v-71zM166 315h-54c19 33 50 57 88 66-15-13-26-36-34-66zM164 304c-4-17-5-36-6-55h-66c1 19 6 38 13 55zM158 238c1-20 3-38 6-55h-59c-7 17-12 35-13 55zM270 381c37-9 69-33 88-66h-55c-7 30-19 53-33 66zM358 172c-19-33-51-57-88-67 14 15 26 38 33 67zM291 315h-50v71c21-5 40-32 50-71zM294 304c3-17 6-36 6-55h-59v55zM300 238c-1-20-3-38-7-55h-52v55zM291 172c-10-39-29-67-50-71v71zM364 183h-58c3 17 5 35 5 55h66c0-20-5-38-13-55zM311 249c0 20-2 38-5 55h58c8-17 12-35 13-55zM449 68c0-14-10-26-23-29 0 0 0 1 0 1v394c0 22-18 40-40 40h-312l16 18h329c16 0 30-13 30-30z" />
<glyph unicode="&#xe02f;" glyph-name="dossier" d="M484 47h-451l-33 260c0 17 17 19 17 19h472c23 0 23-22 23-22zM43 450c0 0 17 15 26 15s116 0 116 0c0 0 28-5 36-53h242c0 0 18 3 23-10l14-42-482 2z" />
<glyph unicode="&#xe030;" glyph-name="drawer" d="M449 512l34-286-38-4-30 255h-318l-30-255-38 5 34 285zM128 448h256v-32h-256zM128 384h256v-32h-256zM128 320h256v-32h-256zM128 256h256v-32h-256zM496 192h-480c-9 0-14-7-11-15l54-162c2-8 12-15 21-15h352c8 0 18 7 21 15l54 162c3 8-2 15-11 15zM320 128h-128v32h128z" />
<glyph unicode="&#xe031;" glyph-name="edit" d="M0 156l155-156h-155zM512 357l-329-330-154 156 327 329zM388 442l-280-281 21-22 281 282z" />
<glyph unicode="&#xe032;" glyph-name="edit-document-file" d="M370 137l44 44v-181h-414v408l122 104h291v-55l-43-44v62h-201v-107h-125v-332h326zM189 205l99-99h-99zM507 326l-209-210-97 100 208 208zM428 379l-178-178 14-14 178 179zM430 415c0-7-6-13-13-13s-13 6-13 13c0 7 6 13 13 13s13-6 13-13zM512 335c0-7-6-12-13-12s-13 5-13 12c0 8 6 13 13 13 7 1 13-5 13-13zM424 425l84-81-14-16-81 80z" />
<glyph unicode="&#xe033;" glyph-name="education" d="M512 311v12l-256 123-256-123v-12l256-123zM89 246v-74l154-74h26l153 74c0 1 1 1 1 1v73l-167-81zM485 133v143l-20-10v-133l-13-40 20-27h6l20 27z" />
<glyph unicode="&#xe034;" glyph-name="envelope" d="M0 112c0-25 19-43 42-43h427c25 0 42 20 42 43v288c0 25-19 43-42 43h-427c-24 0-42-20-42-43zM158 256l-99 98c-8 8-8 22 0 30s21 8 30 0l155-156c6-6 17-6 24 0l154 156c9 8 22 8 30 0s8-22 0-30l-97-98 98-97c8-8 8-22 0-30-9-8-22-8-30 0l-97 97c0 0-31-30-36-36-8-8-20-13-33-13s-25 5-34 13c-6 5-36 35-36 35l-97-97c-8-8-21-8-30 0-8 8-8 22 0 30z" />
<glyph unicode="&#xe035;" glyph-name="error" d="M256 512c-141 0-256-115-256-256s115-256 256-256c141 0 256 115 256 256s-115 256-256 256zM256 48c-115 0-208 93-208 208s93 208 208 208c115 0 208-93 208-208s-93-208-208-208zM256 400c-18 0-32-10-32-25v-142c0-15 14-25 32-25s32 10 32 25v142c0 15-14 25-32 25zM256 176c-17 0-32-14-32-32 0-17 15-31 32-31s32 14 32 31c0 18-15 32-32 32z" />
<glyph unicode="&#xe036;" glyph-name="error-alt" d="M256 512c-141 0-256-115-256-256s115-256 256-256c141 0 256 115 256 256s-115 256-256 256zM288 201v-47c0-2 0-4-2-6-1-2-3-2-5-2h-49c-2 0-4 0-6 2-1 2-2 3-2 6v47c0 2 1 4 2 6 2 1 4 2 6 2h49c2 0 4-1 5-2 2-2 3-4 2-6zM288 246c0-1 0-2-2-4-2-1-4-1-6-1h-47c-2 0-4 0-6 1-2 2-3 3-3 4l-4 112c0 2 0 3 2 5s4 3 6 3h56c2 0 4-1 6-3s2-3 2-5z" />
<glyph unicode="&#xe037;" glyph-name="euro" d="M72 187v41c0 3 1 5 4 8 2 2 5 4 8 4h24c-1 13-1 26 0 38h-25c-3 0-6 1-8 3s-3 5-3 8v42c0 3 1 6 3 8s5 3 8 3h36c17 51 46 92 89 123s91 47 145 47c25 0 48-3 71-8 2-1 5-3 7-6 2-2 2-5 1-9l-16-57c0-3-2-6-5-8-2-1-5-2-9-1l-1 1c-1 0-3 0-4 1l-6 1c0 0-3 0-9 1-5 1-8 1-9 1 0 0-4 0-11 1-6 1-9 1-10 1-31 0-58-8-83-23-24-16-42-37-54-64h170c4 0 7-2 9-5 3-3 3-6 3-9l-9-42c-1-6-5-9-12-9h-177c0-9 0-21 0-38h167c4 0 7-2 9-5s3-6 2-10l-8-41c-1-2-2-5-4-6-3-2-5-3-8-3h-140c11-28 29-51 54-67 24-17 52-26 83-26 4 0 8 0 13 1 5 0 8 1 12 1s8 1 11 2c4 0 6 1 9 2 2 0 4 1 7 1l4 1 2 1c3 1 6 1 9-1 3-1 5-4 6-8l13-56c0-3 0-6-1-9-2-2-4-4-6-5h-2c-1-1-2-1-4-1s-4-1-6-2c-2 0-5-1-7-2-3 0-6-1-10-2-3 0-6-1-10-2-4 0-8-1-13-1-4-1-8-1-13-1-4 0-9-1-14-1-57 0-106 16-148 48-43 31-71 74-87 128h-34c-3 0-6 1-8 3-4 2-5 5-5 8z" />
<glyph unicode="&#xe038;" glyph-name="exclamation" d="M199 114h114v-114h-114zM199 512h114v-342h-114z" />
<glyph unicode="&#xe039;" glyph-name="eyeglasses" d="M511 277c0 10-8 19-18 20l-8 1-106 78c-20 15-46 20-70 13-9-2-14-11-12-20 3-9 12-14 20-12 15 4 31 1 43-8l63-47c-13 0-26-1-39-3-20-3-39-7-58-12l-11-2c-39-8-78-8-117-1l-12 2c-19 6-39 10-59 12-12 3-26 3-38 4l63 46c12 9 28 12 42 8 9-2 18 3 21 12 2 9-4 18-12 21-25 6-50 1-71-14l-105-77-8-1c-10-2-18-10-18-21l-1-17c-1-9 5-17 12-20 3-1 5-4 5-7l3-35c4-42 39-74 81-75l39-1c29 0 55 15 71 40l31 55c2 3 8 4 13 4 0 0 3 0 3 0 5 0 10-2 12-4l32-56c15-24 42-39 70-39l39 1c42 1 77 34 81 76l3 34c0 3 2 6 4 7 8 3 14 11 13 20zM412 265c6 0 11 0 16-1 13-2 28-11 29-27l1-36c1-13-3-24-12-33-8-9-20-14-32-15 0 0-30-1-32-1-55 0-71 55-72 57-2 11 0 22 5 31 6 9 16 15 26 17 31 6 54 8 71 8zM130 153c-2 0-32 1-32 1-12 1-24 6-32 15s-13 20-12 33l1 36c1 16 15 25 29 27 18 2 47 0 87-6 11-2 20-9 26-17 5-10 7-20 5-31-1-3-17-58-72-58z" />
<glyph unicode="&#xe03a;" glyph-name="family" d="M73 349c0 0-15 1-22-33-8-34 12-147 12-147l22-32 4-135 112 1v81l-22 32c0 0-10 102-11 112-5 37 29 31 29 31s120 2 132 0c12-2 15-8 19-21 4-14-8-120-8-120l-21-31-2-87h115v127l23 32c0 0 11 133 8 147-7 34-30 34-30 34l-120 1c0 0 9-61-58-61-66 0-51 69-51 69zM219 439c0-41-33-73-73-73-41 0-73 32-73 73 0 40 33 73 73 73s73-33 73-73zM440 420c0-38-30-69-69-69-38 0-69 31-69 69 0 39 31 69 69 69s69-31 69-69z" />
<glyph unicode="&#xe03b;" glyph-name="filter-off" d="M512 44l-67 67 65 65-28 29-65-66-66 66-30-29 66-66-66-67 30-28 65 66 66-66zM316 469h-210v-30h209zM424 496v-54l-158-157v-158h-108v158l-158 158v54z" />
<glyph unicode="&#xe03c;" glyph-name="filter-on" d="M360 413h-209v-30h208zM468 440v-53l-158-158v-158h-108v158l-158 159v53z" />
<glyph unicode="&#xe03d;" glyph-name="finances" d="M491 230c4 6 7 13 5 21l-61 229c-3 14-17 21-30 18l-387-102c-13-3-21-17-17-30l60-230c4-13 17-21 31-18l136 37v-77c0-43 71-65 142-65 70 0 142 23 142 65v117c-1 14-8 26-21 35zM447 309l6-23-77-21-6 24c0 0 77 20 77 20zM402 460l12-45-120-33-11 46c0 0 119 32 119 32zM348 283l6-23c-28-2-56-7-78-15l-5 18zM82 187l-6 23 77 21 6-24c0 0-77-20-77-20zM174 237l76 20 7-22c-2-1-4-3-6-4l-70-18zM486 80c0-25-52-46-116-46s-116 21-116 46v29c0 1 1 1 1 2 4-23 54-42 115-42 62 0 111 19 116 42 0-1 1-1 1-2zM486 135c0-25-52-45-116-45s-116 20-116 45v28c0 1 1 1 1 2 4-23 54-42 115-42 62 0 111 19 116 42 0-1 1-1 1-2zM370 150c-64 0-116 20-116 45s52 46 116 46c64 0 115-21 115-46s-51-45-115-45z" />
<glyph unicode="&#xe03e;" glyph-name="fitness" d="M218 321c0-32-26-57-57-57-32 0-58 25-58 57s26 57 58 57c31 0 57-25 57-57zM450 163v-134c0-16 12-28 28-28s29 12 29 28v150c0 8-4 17-11 23-2 1-56 42-95 60l-128 59v72c23 9 39 31 39 58 1 33-27 61-61 61s-62-28-62-62c0-27 17-50 41-58v-85c-3-6-13-27-13-44 0-12 7-22 19-27l119-47M251 428c-12 0-23 10-23 22s11 23 23 23c12 0 22-11 22-23s-10-22-22-22zM422 156l-358 93v228c0 17-13 30-30 30-16 0-29-13-29-30v-445c0-17 13-30 30-30 16 0 30 13 30 30v156l259-68v-88c0-16 13-29 30-29 16 0 29 13 29 29v72l25-6c15-4 31 5 36 21 3 16-6 33-22 37z" />
<glyph unicode="&#xe03f;" glyph-name="flag" d="M400 426c38 0 73 21 96 36v-298c-23-15-58-36-96-36-39 0-72 11-96 27-23 16-58 27-96 27-39 0-73-19-96-35v298c23 16 57 35 96 35 38 0 73-11 96-27 24-16 58-27 96-27zM48 512c18 0 32-14 32-32v-480h-64v480c0 18 14 32 32 32z" />
<glyph unicode="&#xe040;" glyph-name="food" d="M399 134h-19c-9 0-11 5-12 9 0 1 0 2 0 3 0 19-6 83-40 133l-4 7c-1 2-1 6 6 1 30-26 76-77 78-145 0-3-2-8-9-8zM299 356c0-3-1-14-15-12 0 0-1 0-1 0-9 1-18 1-27 1-10 0-20-1-30-2-1 0-2 0-3 0-11-1-13 5-13 8v17c0 13 11 24 24 24h42c13 0 24-11 24-24zM500 134h-13c-14 0-14 14-14 14-8 82-61 151-135 181 0 0-1 0-1 0-11 5-12 17-12 17v31c0 20-16 37-36 37h-66c-20 0-36-17-36-37v-35c-1-4-2-9-10-12 0 0-1 0-1 0-75-30-129-99-138-182 0 0-1-14-15-14h-9c-3 0-14-1-14-13v-9c0-4 2-14 15-14h481c13 0 15 9 16 13v10c0 11-8 13-12 13z" />
<glyph unicode="&#xe041;" glyph-name="generate" d="M471 512h-430c-23 0-41-18-41-39v-432c0-23 18-41 41-41h430c23 0 41 18 41 41v432c-3 21-20 39-41 39zM75 478c15 0 28-13 28-28 0-18-13-32-28-32-16 0-29 14-29 29 0 18 13 31 29 31zM445 59h-383v332h381zM190 158l8-8c3-36 3-36 8-36l23-8h5c0 0 5 3 23 26h10c26-23 28-23 31-20l23 12c3 3 5 3 0 37l8 7c20 3 30 3 33 6h3l7 26c3 2 3 5-25 26v10c23 26 23 29 20 31l-13 23c-2 3-2 5-38 0l-8 8c-2 36-2 36-7 36l-23 8h-6c0 0-5-3-23-26h-10c-25 23-28 23-31 20l-23-12c-2-3-5-3 0-37l-5-5c-20-2-30-2-33-5h-3l-8-26c0-3-2-5 26-26v-10c-23-27-23-29-21-32l13-23c1-5 1-7 36-2zM237 264c20 10 46 2 56-18 11-21 3-47-18-57-20-10-46-3-56 18-13 20-5 46 18 57zM149 478c15 0 28-13 28-28 0-16-13-29-28-29s-28 13-28 29c0 15 13 28 28 28z" />
<glyph unicode="&#xe042;" glyph-name="gift-box" d="M0 352v-64h224v96h-192c-18 0-32-14-32-32zM448 464c0 26-20 48-64 48-41 0-74-18-96-40-9 5-21 9-33 9-11 0-22-3-31-9-23 22-55 40-96 40-44 0-64-22-64-48 0-27 20-48 64-48h256c44 0 64 21 64 48zM199 448h-71c-14 0-32 3-32 16s18 16 32 16c32 0 56-15 72-30zM311 450c16 15 41 30 73 30 14 0 32-2 32-16 0-13-18-15-32-15h-73zM32 32c0-18 14-31 31-31h160v255h-191zM480 384h-191v-96h223v64c0 18-14 32-32 32zM289 0h159c18 0 32 14 32 32v224h-191z" />
<glyph unicode="&#xe043;" glyph-name="go" d="M384 478c-122 70-279 28-350-94-70-122-28-279 94-350 122-70 279-28 350 94 70 122 28 279-94 350zM433 154c-56-98-182-132-279-75-98 56-132 182-75 279 56 98 182 132 279 75 98-56 132-182 75-279zM242 347c-10 10-26 10-36 0s-10-26 0-37l55-54-55-54c-10-11-10-26 0-37 10-10 26-10 37 0l72 73c1 1 2 2 3 4 3 4 4 9 4 14 0 7-3 13-8 18z" />
<glyph unicode="&#xe044;" glyph-name="group" d="M110 183c0 36 0 183 0 183s0 8 4 18c-38 0-77 0-77 0s-37 0-37-36v-128c0-37 36-37 36-37v-183h110v146c0 0-36 0-36 37zM110 402c9 0 18 3 26 7 1 1 2 1 3 2 16 10 25 27 25 46 0 30-24 55-54 55-31 0-55-25-55-55s24-55 55-55zM476 384h-78c4-10 4-18 4-18s0-147 0-183c0-37-36-37-36-37v-146h109v183c0 0 36 0 36 36s0 128 0 128c0 0 1 37-35 37zM373 411c1 0 2-1 3-2 8-4 17-7 26-7 31 0 55 25 55 55s-24 55-55 55c-30 0-54-25-54-55 0-19 9-36 25-46zM311 457c0-30-25-55-55-55s-55 25-55 55c0 30 25 55 55 55s55-25 55-55zM366 348c0 0 0 36-37 36-9 0-146 0-146 0s-37 0-37-36v-128c0-37 37-37 37-37v-183h146v183c0 0 37 0 37 36s0 129 0 129z" />
<glyph unicode="&#xe045;" glyph-name="hamburger" d="M0 481h512v-91h-512zM0 304h512v-92h-512zM0 122h512v-91h-512z" />
<glyph unicode="&#xe046;" glyph-name="hammer-law" d="M512 99v-26c0-9-8-17-17-17h-200c-9 0-17 8-17 17v26c0 9 8 17 17 17h200c9-1 17-8 17-17zM483 228l-6 17c-4 9-13 15-23 16 0 1-1 2-1 3l-6 12c4 3 7 5 8 9s1 8 0 12l-27 65c-3 9-12 12-20 10l-5 13c-1 1-1 2-2 3 7 7 10 18 6 27l-7 17c-6 14-21 24-36 24-6 0-11-1-15-3l-86-35c-20-8-30-31-22-51l7-17c4-9 13-15 23-16 0-1 0-2 1-3l5-13c-4-2-6-4-8-8-1-3-1-7 0-10l-4-2c-4-2-7-5-10-9-1-3-1-6-1-9l-63-26c-2 1-3 2-5 3-4 1-8 1-12 0l-164-68c-8-3-13-13-9-22l13-31c1-4 5-7 9-10 2-1 4-1 7-1 2 0 4 0 6 1l164 68c6 3 9 8 10 14l63 26c2-2 5-4 8-5 2-1 4-2 6-2s4 1 6 1l4 2c4-5 9-9 15-9 1 0 3 0 4 1l6-13c0-1 1-2 1-3-7-7-9-18-5-27l7-17c6-15 20-24 36-24 5 0 10 1 15 3l86 35c20 9 30 32 21 52z" />
<glyph unicode="&#xe047;" glyph-name="handshake" d="M130 368l89 68c12 9 26 15 41 18 15 2 30 0 45-5l142-55c9-3 19-5 29-5h24c1 0 3 0 4-1 2 0 3-1 4-2s2-3 3-5c0-1 1-3 1-4v-174c0-3-2-7-4-9-2-3-5-4-8-4h-32c-4 0-8-1-12-4l-7-5c-1-1-2-1-3-1s-2 0-3 1l-165 201c-3 3-5 4-9 5-3 0-6 0-9-2l-76-42c-7-5-16-7-24-8-9 0-18 1-25 5-3 1-5 3-7 5s-3 5-4 8c0 2 0 5 1 8 0 3 2 6 5 7zM12 190h27l18 23c6 7 13 12 21 15 9 3 17 3 26 1s16-6 23-11c6-7 11-14 13-22 8-2 16-7 21-13 6-5 11-13 13-21 11-3 21-11 27-22 10-1 20-6 27-14 8-7 12-17 13-28s-1-22-7-31l-2-5c5-3 10-4 15-5 6 0 11 2 16 5 4 3 8 7 10 12s2 11 1 16c0 0 0 1 0 1s0 0 1 0c0 0 0 0 0 0s1 0 1 0l2-2c5-5 11-8 17-8 7-1 13 1 18 5 4 3 8 7 10 12s3 10 2 15c0 0 0 1 0 1s0 0 0 0 1 0 1 0c0 0 0 0 0 0l2-2c5-4 11-8 17-8 7-1 13 1 19 5 4 3 7 7 9 12s3 10 2 15c0 0 0 1 0 1s0 0 0 0 1 0 1 0c0 0 0 0 0 0l2-2c5-4 11-7 16-8 6-1 13 1 18 4 3 2 6 5 8 8 2 4 4 7 4 12 1 4 1 8-1 11-1 4-3 8-5 11l-17 20-135 163c0 1-1 2-2 2s-2 0-3-1l-65-36c-10-6-21-9-33-10s-24 0-35 5c-6 2-12 6-16 10-5 5-9 10-11 16-1 6-2 13-1 19 1 7 2 13 6 18 0 1 0 2 0 3s0 3-1 4c0 1-1 1-2 2-1 0-2 1-3 1h-88c-1 0-3-1-4-1-2-1-3-2-4-3s-2-3-3-4c0-2-1-3-1-5v-174c0-3 2-6 4-8 2-3 5-4 8-4zM107 202c-5 3-11 4-16 3-6-1-11-4-15-9l-18-22c-2-2-3-5-4-8s-1-6-1-9c1-3 1-6 3-9 1-3 3-5 6-7l3-2c3-3 8-5 12-5 5 0 10 1 14 3 0 0 0 0 0 0s1 0 1 0c0 0 0 0 0 0s0-1 0-1c-1-4 0-9 1-12 2-4 4-8 7-10l2-2c4-2 8-4 13-4 4-1 8 0 12 2 0 0 1 0 1 0s1 0 1 0c0 0 0 0 0 0s0-1 0-1c0-4 0-8 2-12 1-3 4-6 7-9l1-1c4-3 8-5 13-5 4-1 8 0 12 2 0 0 1 0 1 0s0 0 0 0 1 0 1 0c0 0 0-1 0-1 1-5 4-10 9-14l1-1c2-2 5-4 9-5 3-1 6-1 10 0s7 2 9 4c3 2 5 5 7 8l4 6c2 5 4 10 3 16-1 5-3 10-8 14-3 3-7 5-12 6-4 0-9 0-13-2 0 0 0 0-1 0 0 0 0 0 0 0s0 0 0 0 0 0 0 1c0 4-1 7-2 11-2 4-4 7-7 9s-7 3-11 4c-4 0-8 0-11-2-4 0-3 3-3 3 2 4 2 9 1 14-1 4-4 8-7 12-4 3-8 5-13 6-5 0-10-1-14-3-2-1-2 2-2 2 3 5 4 11 3 17-2 5-6 10-11 13z" />
<glyph unicode="&#xe048;" glyph-name="help" d="M321 201c6 11 21 26 43 44 33 26 56 48 66 67 11 18 16 36 16 56 0 47-21 85-63 113-30 21-71 31-121 31-63 0-111-14-143-45-31-30-49-69-53-118l133-16c2 26 10 45 20 56s23 17 40 17c15 0 26-4 33-11 8-7 11-16 11-29s-9-27-28-42c-35-29-57-49-68-60-10-11-17-23-22-38-6-14-7-32-7-54v-13h134c0 17 2 31 9 42zM177 123h139v-123h-139z" />
<glyph unicode="&#xe049;" glyph-name="help-documents" d="M477 42h-441v398h441zM289 186c3 5 11 13 23 23 18 14 29 25 35 35 5 9 8 19 8 29 0 24-11 44-33 59-16 11-37 16-63 16-33 0-58-8-74-23-17-16-26-37-28-62l70-9c1 14 5 24 11 29 5 6 12 8 21 8 7 0 13-2 17-5 4-4 6-9 6-16 0-6-5-13-15-21-18-15-29-26-35-32-5-6-9-13-11-20-3-7-4-16-4-28v-7h68c0 11 1 18 4 24zM215 80h72v65h-72zM36 433c-1 3-4 30 16 52 15 18 39 27 71 27 28 0 45 0 65-1 43 0 97-1 279 1l1-33c-183-2-237-1-280-1-20 0-37 1-64 1-23 0-38-5-47-16s-8-26-8-26zM36 50c0 0 0-50 39-50 22 0 402 0 402 0v50z" />
<glyph unicode="&#xe04a;" glyph-name="home-dashboard" d="M0 512h223v-224h-223zM0 222h223v-222h-223c0 0 0 222 0 222zM289 512h223v-224h-223zM289 222h223v-222h-223z" />
<glyph unicode="&#xe04b;" glyph-name="hotel-bed" d="M502 266h-25c-6 0-10-5-10-10v-22h-17v88c0 5-5 9-10 9h-265c-6 0-10-4-10-9v-88h-43c21 6 37 25 37 48 0 27-22 49-49 49-28 0-50-22-50-49 0-23 16-42 37-48h-52v153c0 6-5 10-10 10h-25c-6 0-10-5-10-10v-262c0-6 5-10 10-10h25c6 0 10 5 10 10v39h422v-39c0-6 5-10 10-10h25c6 0 10 5 10 10v131c0 6-5 10-10 10z" />
<glyph unicode="&#xe04c;" glyph-name="id" d="M489 384h-94c0-38-31-70-69-70h-140c-39 0-70 32-70 70h-93c-13 0-23-11-23-24v-326c0-12 10-23 23-23h466c13 0 23 11 23 23v326c0 13-10 24-23 24zM244 82c0-6-5-12-12-12h-162c-7 0-12 6-12 12v174c0 6 5 12 12 12h162c7 0 12-6 12-12zM442 116h-139c-13 0-23 10-23 23s10 23 23 23h139c13 0 23-10 23-23s-10-23-23-23zM442 198h-139c-13 0-23 10-23 23 0 12 10 23 23 23h139c13 0 23-11 23-23 0-13-10-23-23-23zM152 244c-26 0-47-21-47-46s21-46 47-46c25 0 46 21 46 46s-21 46-46 46zM188 152c-10-8-23-13-36-13s-26 5-36 13c-19-12-32-33-34-57 7-1 19-2 36-2h68c17 0 29 1 36 2-2 24-16 45-34 57zM326 431c0 39-31 70-69 70-39 0-70-31-70-70-26 0-46-21-46-46s21-46 46-46h140c25 0 46 21 46 46s-21 46-47 46zM257 407c-13 0-24 10-24 23s11 23 24 23c12 0 23-10 23-23s-11-23-23-23z" />
<glyph unicode="&#xe04d;" glyph-name="ikb" d="M175 362c7-11 50-17 70-17 21 1 64 10 62 28-3 33 17 78 21 84 8 13 9 39-25 27-8-3-28-23-36 0-14 43-48 31-55 3-5-18-26-20-49-17-27 3-30-15-21-29 4-9 25-65 33-79zM321 340c-5 2-13-21-74-23-56-2-72 18-75 18-82-29-151-112-151-197 0-109 62-138 235-138s235 29 235 138c0 90-84 177-170 202zM313 253l-8-39c-8 8-20 12-36 12-15 0-28-6-37-17-5-7-9-11-11-25h77l-4-22h-76c0 0 0-3 0-6 0-4 0-8 0-8h72l-4-22h-65c2-14 5-19 10-25 10-10 22-17 38-17 18 0 29 5 43 16v-43c-14-7-27-9-43-9-27 0-50 10-68 29-12 13-20 28-24 49h-21l4 22h14c0 0 0 2 0 5 0 4 0 9 0 9h-18l4 22h16c4 21 11 35 24 48 18 18 41 29 70 29 18 0 29-2 43-8z" />
<glyph unicode="&#xe04e;" glyph-name="ikb-payout" d="M484 147c-28-16-68-31-108-37-34-6-101 8-101 24 0 6 58-15 93-5 27 7 23 32 9 35-15 4-100 35-136 36-18 1-60-6-80-9-7-1-11-1-12-8-2-31-6-94-8-128 0-1 1-10 9-4 8 7 20 16 31 13 18-4 168-32 189-27 30 8 114 57 130 73 25 23 5 49-16 37zM108 191l-79 5c-6 0-13-5-14-11l-14-130c-2-6 2-11 8-11h87c6-1 12 4 12 10l10 126c0 6-4 11-10 11zM61 61c-12 0-22 10-22 22s10 22 22 22c12 0 22-10 22-22s-10-22-22-22zM375 202c-75 0-137 61-137 136 0 76 62 137 137 137 76 0 137-61 137-137 0-75-61-136-137-136zM375 450c-61 0-111-50-111-112 0-61 50-111 111-111 62 0 111 50 111 111 0 62-49 112-111 112zM403 389l-5-20c-4 4-10 6-18 6-7 0-14-3-19-9-2-3-4-7-6-12h40l-2-11h-39c0-1 0-3 0-4 0-2 0-4 0-5h37l-2-11h-33c1-6 3-10 6-13 5-5 11-8 19-8 9 0 16 3 22 8v-22c-6-3-13-4-22-4-14 0-26 4-35 14-6 7-10 15-12 25h-11l2 11h7c0 1 0 2 0 3 0 2 0 5 0 7h-9l2 11h9c2 10 6 17 12 24 9 10 21 14 36 14 8 0 15-1 21-4zM374 431c-51 0-92-41-92-92s41-92 92-92c50 0 91 41 91 92s-41 92-91 92z" />
<glyph unicode="&#xe04f;" glyph-name="inbox" d="M408 484h-304l-104-267v-190h512v193zM350 210v-60c0-16-13-29-28-29h-132c-16 0-29 13-29 29v60h-105l85 220h229l86-220zM293 394h-70v-85h-67l102-124 102 124h-67c0 0 0 85 0 85z" />
<glyph unicode="&#xe050;" glyph-name="info" d="M256 512c-141 0-256-115-256-256s115-256 256-256c141 0 256 115 256 256s-115 256-256 256zM301 81h-90v213h90zM256 332c-28 0-50 22-50 49 0 28 22 50 50 50s50-22 50-50c0-27-22-49-50-49z" />
<glyph unicode="&#xe051;" glyph-name="info-square" d="M0 510v-508h512v508c0 0-512 0-512 0zM303 83h-89v211h89zM260 332c-28 0-50 22-50 49 0 28 22 50 50 50 27 0 49-22 49-50 0-27-22-49-49-49z" />
<glyph unicode="&#xe052;" glyph-name="key-2" d="M316 298c5 16 9 33 9 51 0 90-73 163-163 163-90-1-162-73-162-163 0-89 72-163 163-163 18 0 35 3 51 9l37-37h79v-79h79v-79h103v103zM127 329c-29 0-54 24-54 54s25 54 54 54c30 0 55-24 55-54s-23-54-55-54z" />
<glyph unicode="&#xe053;" glyph-name="layers" d="M512 303l-256-128-254 127h-1l-1-62 256-128 256 128zM0 396l256 116 256-114v-46l-256-128-256 128zM512 190l-256-128-254 128h-1l-1-62 256-128 256 128z" />
<glyph unicode="&#xe054;" glyph-name="leave" d="M475 20c-31 36-86 64-152 75-7 39-18 57-19 58 5 2 11 3 18 1 9-2 14-7 18-12 1-2 4-1 4 1 1 3 1 6 0 9-3 9-10 15-18 17-6 1-12 1-16-2 4 4 9 7 16 10 14 4 27 2 37-4 2-1 4 0 3 2-1 6-5 12-11 17-10 9-24 13-37 9-4-2-7-4-11-6 0 1 1 1 1 1 9 11 20 16 31 16 3 0 4 3 2 5-4 3-9 5-15 7-14 3-29-1-38-13-3-4-5-9-6-13-4 3-9 5-14 6-14 4-28-1-38-11-4-5-7-10-8-15 0-2 2-4 4-3 10 6 21 9 35 5 1 0 1 0 1 0-4 0-8-1-12-2-13-4-22-15-25-28-2-8-1-14 1-19 0-2 3-2 4 0 4 10 13 19 27 24 7 2 13 2 18 2-5-1-10-3-14-8-6-7-7-16-4-25 1-3 3-6 5-8 2-1 4 0 4 2-1 6 1 14 7 20 5 5 10 8 15 8 0 0 8-20 9-48-13 1-28 2-42 2-34 0-68-4-97-12 6 135 89 225 89 225 11-6 19-17 25-31 7-19 6-37-1-51-2-4 3-8 7-6 6 3 12 7 17 13 14 16 19 38 11 57-5 12-14 22-25 28 13-4 26-10 39-20 27-22 39-49 40-75 0-5 6-7 10-4 8 11 15 24 18 42 4 31-7 63-32 83-8 6-17 10-25 13 1 0 2 0 2 0 34-4 57-19 72-40 4-5 11-3 12 3 1 12 0 24-6 37-12 33-39 57-73 60-12 1-24-1-35-4 1 11 0 23-3 35-11 32-40 53-73 58-15 3-28 1-39-3-5-2-6-9-1-11 24-10 45-30 57-61 0-1 0-2 1-3-5 8-12 16-20 22-24 20-58 23-87 12-17-7-29-16-37-28-3-3 0-8 5-7 27 5 56 0 83-22 13-10 22-21 29-33-9 9-20 16-34 18-20 3-40-7-52-24-6-6-8-13-10-20-1-4 4-7 8-5 12 10 29 15 49 12 16-3 29-9 38-19-1-1-102-76-168-306-4-5-8-8-12-13-6-8-1-20 10-20h417c11 0 17 12 11 20z" />
<glyph unicode="&#xe055;" glyph-name="license-car" d="M511 326c-5 14-20 23-34 19l-17-6-39 78c-10 22-40 40-64 40h-202c-24 0-53-18-64-40l-39-78-17 6c-14 4-29-5-34-19-4-14 4-30 18-34l5-1c-2-5-3-10-3-16v-95c0-1 0-3 0-4s0-2 0-3v-89c0-16 13-29 30-29h44c16 0 29 13 29 29v41c37-4 82-6 132-6s95 2 132 6v-41c0-16 13-29 29-29h44c17 0 30 13 30 29v89c0 1 0 2-1 3 0 1 1 3 1 4v95c0 6-1 11-3 16l5 1c14 4 22 20 18 34zM131 398c3 6 16 15 24 15h202c8 0 21-8 24-15l34-66c0-11-71-19-159-19s-159 9-159 19zM100 211c-26 3-47 11-45 36 3 33 20 32 50 26 16-3 54-16 52-43-2-25-31-21-57-19zM294 154h-76c-9 0-16 7-16 16 0 10 7 17 16 17h76c9 0 16-7 16-17 0-8-7-16-16-16zM412 211c-26-2-55-6-57 19-2 27 35 40 52 43 30 6 47 7 49-26 2-25-18-33-44-36z" />
<glyph unicode="&#xe056;" glyph-name="life-savings" d="M268 345c-28 0-56-5-82-13-26 32-63 43-109 30-3-1-7-4-8-8-2-2 0-8 2-9 21-21 30-42 26-64-12-12-22-26-29-41h-8c-15 0-29-14-29-28v-62c0-16 14-30 29-30h28c5-7 12-14 19-19v-72c0-16 12-30 29-30h30c16 0 30 13 30 30v25c48-14 105-13 155 2v-27c0-16 12-30 29-30h29c16 0 30 14 30 31v78c25 25 39 57 39 87-3 83-97 150-210 150zM126 241c-7 0-12 5-12 12s6 12 12 12c8 0 13-5 13-12s-5-12-13-12zM340 280c-2-6-8-9-14-9-18 4-37 9-57 9-25 0-48-3-70-12-3-2-4-2-6-2-4 0-8 2-10 8s2 12 7 14c24 8 50 12 78 12 22 0 43-3 63-8 6 0 10-7 9-12zM341 361c-30 0-55 25-55 55s25 56 55 56c30 0 55-25 55-55-1-31-26-56-55-56zM341 461c-25 0-44-20-44-44 0-25 19-44 44-44s44 19 44 44c0 24-20 44-44 44zM352 436l-2-7c-2 1-4 2-7 2-4 0-6-1-9-2-1-1-1-3-3-4h16l-2-4h-15v-2c0 0 0-1 0-2h15l-1-4h-14c0-2 1-4 2-6 2-3 4-3 7-3 5 0 8 2 9 3v-8c-3-2-6-2-9-2-5 0-9 2-13 6-3 3-4 6-6 10h-4l1 4h3v1c0 2 0 2 0 3h-4l1 4h3c2 4 3 7 4 10 4 4 8 5 14 5 9-1 11-3 14-4zM340 454c-21 0-36-17-36-36 0-20 17-36 36-36s37 14 37 35c0 21-17 37-37 37zM438 328c-24 0-43 20-43 43 0 24 19 43 43 43 23 0 43-19 43-43 0-25-20-43-43-43zM438 406c-20 0-35-16-35-35 0-20 15-35 35-35 19 0 35 15 35 35 0 19-16 35-35 35zM446 386l-1-7c-2 1-3 1-6 1s-4-1-5-2-2-3-2-4h12l-1-4h-12v-3h11l-2-5h-9c0-1 1-2 1-4 2-1 4-2 6-2s5 1 7 2v-7c-2-1-4-1-7-1-4 0-8 1-12 4-1 1-2 4-4 8h-2l1 4h3v2c0 1 0 1 0 1h-3l2 4h2c0 3 2 6 5 7 2 3 7 5 11 5 1 3 4 3 5 1zM437 400c-16 0-29-12-29-29s12-29 29-29c15 0 29 12 29 29s-13 29-29 29zM438 426c-24 0-43 19-43 43s19 43 43 43c23 0 43-19 43-43s-20-43-43-43zM438 505c-20 0-35-16-35-35s15-35 35-35c19 0 35 16 35 35 0 18-16 35-35 35zM446 486l-1-7c-2 1-3 2-6 2s-4-1-5-2-2-3-3-4h12l-1-4h-12v-4h11l-2-4h-9c0-1 1-2 1-4 2-1 4-2 6-2s5 1 7 2v-5c-2-2-4-2-7-2-4 0-8 2-12 4-1 2-2 4-4 8h-2l2 3h3v2c0 2 0 2 0 2h-3l2 4h2c0 2 2 5 5 7 2 2 7 4 11 4 1 1 4 0 5 0zM437 498c-16 0-29-12-29-29s12-29 29-29c15 0 29 12 29 29s-13 29-29 29z" />
<glyph unicode="&#xe057;" glyph-name="lifetime-leave" d="M163 287l129-21c7-1 14 3 15 10l1 4c1 7-4 14-11 15l-129 22c-7 1-14-4-15-11l-1-4c-1-7 4-13 11-15zM489 125c-51-31-98-49-142-57l14 119 6 47c33 182 69 200 73 201 0 0 2 1 4-1l-1 1 33 29c-8 8-26 20-48 13-28-9-70-42-103-237l-121 20-29 5-18 4-5 1-41-154c-52 34-81 71-84 75-5 6-15 8-21 3s-8-14-3-20c28-38 88-92 165-120 40-14 79-21 120-21 71 0 144 22 217 67 6 4 9 13 5 20-5 6-13 9-21 5zM294 61c-51-1-97 11-135 28l32 124 119-19z" />
<glyph unicode="&#xe058;" glyph-name="link" d="M218 294c4 4 10 7 16 7s12-3 16-7l44-44c2-1 4-2 6-2s4 1 6 2l44 44c1 2 2 4 2 6s-1 4-2 6l-44 44c-20 19-45 29-72 29s-53-10-72-29l-132-132c-19-19-30-45-30-72s11-53 30-72l44-44c19-19 44-29 71-29 28 0 53 10 72 29l75 75c2 3 3 6 1 9-1 3-4 5-7 5 0 0 0 0 0 0-3 0-5 0-8 0-20 0-41 5-59 16-1 0-2 1-4 1s-4-1-6-3l-47-47c-4-4-10-7-16-7s-12 3-16 7l-44 44c-5 5-7 10-7 16 0 7 2 12 7 17zM482 438l-44 44c-19 19-45 30-72 30s-53-11-72-30l-74-74c-3-3-3-7-2-10 2-3 4-4 7-4 0 0 1 0 1 0 2 0 5 0 8 0 21 0 41-6 59-16 1-1 2-1 4-1s4 1 6 2l47 47c4 5 10 7 16 7s12-2 16-7l44-44c10-9 10-23 0-32l-132-132c-4-5-10-7-16-7s-12 3-16 7l-44 44c-2 1-4 2-6 2s-4-1-6-2l-44-44c-3-3-3-9 0-12l44-44c19-19 45-29 72-29s53 10 72 29l132 132c19 19 29 45 29 72s-10 53-29 72z" />
<glyph unicode="&#xe059;" glyph-name="list-ul" d="M0 110c0 15 5 28 16 38 11 11 23 16 39 16 15 0 28-5 39-16 10-10 16-23 16-38 0-16-6-29-16-39-11-11-24-16-39-16-16 0-28 5-39 16-11 10-16 24-16 39zM0 256c0 15 5 28 16 39s23 16 39 16c15 0 28-5 39-16 10-11 16-24 16-39s-6-28-16-39c-11-11-24-16-39-16-16 0-28 5-39 16s-16 24-16 39zM0 402c0 16 5 29 16 39 11 11 23 16 39 16 15 0 28-5 39-16 10-10 16-23 16-39 0-15-6-28-16-38-11-11-24-16-39-16-16 0-28 5-39 16-11 10-16 23-16 38zM146 82v55c0 3 1 5 3 7s4 2 7 2h347c3 0 5-1 7-2 2-2 3-4 3-7v-55c0-2-2-4-3-6-2-2-4-3-7-3h-347c-3 0-5 1-7 3-2 1-3 4-3 6zM146 228v56c0 2 1 4 3 6s4 3 7 3h347c3 0 5-1 7-3s3-4 3-6v-55c0-3-2-5-3-7-2-2-4-2-7-2h-347c-3 0-5 1-7 2-2 2-3 4-3 6zM146 375v55c0 2 1 4 3 6s4 3 7 3h347c3 0 5-1 7-3s3-4 3-6v-55c0-3-2-5-3-7-2-2-4-2-7-2h-347c-3 0-5 1-7 2-2 2-3 4-3 7z" />
<glyph unicode="&#xe05a;" glyph-name="location" d="M256 512c-104 0-188-84-188-188 0-27 5-53 15-76 2-4 5-9 7-14l163-234 169 234c2 5 5 9 7 14 10 23 15 49 15 76 0 104-84 188-188 188zM255 434c60 0 110-49 110-110 0-60-50-110-110-110s-110 49-110 110c0 61 49 110 110 110z" />
<glyph unicode="&#xe05b;" glyph-name="lock" d="M465 245v-210c0-19-15-34-34-34h-350c-19 0-34 15-34 34v210c0 19 15 35 34 35h12v69c0 45 16 83 48 115s70 48 115 48c45 0 83-16 115-48 31-32 48-70 48-115v-69h11c20 0 35-16 35-35zM163 349v-69h186v69c0 51-42 93-93 93s-93-42-93-93z" />
<glyph unicode="&#xe05c;" glyph-name="logout" d="M0 423h207l-81-58-66-1v-277h344v92l63 50v-201h-467zM512 340l-180-144v72c-120 4-193-49-253-109 0 142 125 253 253 254v71z" />
<glyph unicode="&#xe05d;" glyph-name="man-profile" d="M174 191c0 1 0 1-1 1-3 3-6 1-9-5-5-8-21-20-39-28 0 0-95-34-125-53v-106h512v104c-25 17-123 52-123 52-2 0-4 1-5 2-17 7-32 18-37 26v0c-1 1-1 1-1 2v0l-1 1c-2 4-5 6-7 4-3-1-2 0-3 4-3 7-7 15-8 17-1 4-1 6-3 10l1 18c2 2 3 4 4 5 6 7 7 26 10 30 3 5 9 6 15 28 6 21 14 52 6 52-2 0-4-1-7-3 2 8 5 26 5 39 1 18-2 62-11 79-7 10-19 20-31 28-7 4-13 8-21 11-17 8-74 4-93 0-22-5-37-19-47-35-10-17-14-66-13-83 0-8 5-21 6-30 0-4 1-4 2-7 0 1-2 1-3 1-8-1 0-31 6-53 6-21 12-22 15-27 4-5 4-24 10-31 1-1 3-2 4-4l1-15c0-3-1-5-1-8-3-9-5-17-8-26z" />
<glyph unicode="&#xe05e;" glyph-name="management" d="M183 487c-6 6-15 6-21 0-5-5-5-14 0-20l26-26c-94-4-171-79-179-172l2 4c6 11 18 17 30 17 0 0 0 0 0 0 17 67 75 118 146 122l-25-25c-5-6-5-15 0-20 3-3 7-5 11-5 3 0 7 2 10 5l50 50c3 2 4 6 4 10s-1 8-4 10c0 0-50 50-50 50zM503 239c-1-16-15-27-31-28-13-72-74-127-148-132l25 25c5 6 5 15 0 20-6 6-15 6-21 0l-50-50c-6-5-6-15 0-20l50-50c3-3 7-5 10-5 4 0 8 2 11 5 5 5 5 14 0 20l-26 26c100 5 180 88 180 189zM390 512c-31-1-57-28-53-61 2-29 23-60 53-61 0 0 0 0 1 0 30 1 50 32 53 61 3 32-23 60-53 61-1 0-1 0-1 0zM353 390c-35-9-65-9-65-55v-62c0-19 12-25 27-25h152c14 0 25 13 25 25v62c0 47-33 47-64 55-10-10-24-35-38-35-15 0-29 26-37 35zM122 282c-30 0-56-28-53-61 3-29 23-60 53-61 0 0 0 0 1 0 30 1 50 32 53 61 3 32-22 61-53 61-1 0-1 0-1 0zM85 160c-34-8-65-8-65-55v-62c0-18 12-25 27-25h153c14 0 24 13 24 25v62c0 47-33 48-64 55-10-9-24-35-38-35s-28 26-37 35z" />
<glyph unicode="&#xe05f;" glyph-name="manager" d="M2 11c0 0-18 61 77 104 95 42 110 47 115 57 4 10 16 19 1 41-17 25-75 80-68 155 6 67 47 134 132 134s132-84 135-141c3-55-46-128-61-150-17-23-7-33 0-40 7-6 92-41 112-52 19-10 67-43 67-108 1-2-510 0-510 0zM256 161l-61-118h123z" />
<glyph unicode="&#xe060;" glyph-name="map-process" d="M202 408h-180v41h222v-123h-42zM403 187c-11-1-21-1-32 0-12 2-21 13-21 25 1 5-2 9-6 11-4 1-10 0-12-3-9-9-23-10-33-2-8 6-16 14-23 22-7 10-6 24 3 32 3 3 5 8 3 12s-6 7-10 7h-1c-7 0-15 3-20 10h-207c-24 0-44-20-44-44v-154c0-24 19-44 44-44h335c24 0 44 20 44 44v102c-2-9-10-17-20-18zM511 313c-1-3-4-6-7-6h-2c-11 0-21-6-25-17-5-10-2-23 7-31 2-2 3-7 0-9-6-7-12-14-20-20-3-2-7-2-9 1-7 8-20 11-31 7-10-5-17-15-16-27 0-3-3-6-7-7-9-1-19-1-28 0-3 1-6 4-6 7 1 12-6 23-17 28-10 4-23 1-31-8-3-2-7-3-9 0-7 6-14 13-20 20-2 3-2 7 1 9 9 8 11 20 7 31-5 11-15 17-26 17-3 0-7 2-8 6-1 9-1 19 0 28 1 4 4 6 7 6 13 0 23 7 27 17 5 11 2 23-7 31-2 3-3 7 0 10 6 7 13 13 20 19 3 3 7 3 9-1 7-8 20-11 31-7 10 5 17 15 17 27 0 3 2 7 6 7 9 1 19 1 28 0 4 0 6-4 6-7 0-12 6-23 17-27 10-4 24-1 31 7 3 2 7 3 9 0 8-5 14-12 20-20 2-3 2-7-1-9-11-10-12-27-2-39 5-5 13-9 21-9 3 0 7-2 8-6 2-9 2-18 0-28zM429 328c0 23-18 41-41 41s-42-18-42-41c0-23 19-42 42-42s41 19 41 42z" />
<glyph unicode="&#xe061;" glyph-name="maternity-leave" d="M147 229h2l157 143h-85v126h-74c-81 0-147-60-147-134 0-75 66-135 147-135zM466 463l-349-318 31-27 66 60 66-60 30 27-66 61 26 23h104c27 0 50 21 50 46v94l60 54h28v40zM406 68c0-30-24-53-53-53s-52 23-52 53c0 29 23 52 52 52s53-23 53-52zM72 120c-30 0-53-23-53-52 0-30 23-53 53-53 29 0 52 23 52 53 0 29-23 52-52 52z" />
<glyph unicode="&#xe062;" glyph-name="menu-2" d="M0 457h512v-109h-512zM0 311h512v-110h-512zM0 164h512v-109h-512z" />
<glyph unicode="&#xe063;" glyph-name="message-bubble" d="M449 461h-378c-33 0-71-29-71-58v-228c0-26 32-45 63-48l-20-76 130 76h276c32 0 63 20 63 49v227c0 29-31 58-63 58zM129 269c-19 0-34 15-34 34s16 33 34 33c19 0 34-15 34-33 0-19-15-34-34-34zM256 269c-19 0-34 15-34 34s16 33 34 33c19 0 34-15 34-33 0-19-15-34-34-34zM383 269c-19 0-34 15-34 34 0 18 16 33 34 33 19 0 34-15 34-33 0-19-15-34-34-34z" />
<glyph unicode="&#xe064;" glyph-name="moon" d="M451 116c-25-8-51-13-77-13-134 0-243 110-243 244 0 54 17 106 50 149 2 2 2 4 0 6-1 2-4 3-6 2-105-34-175-131-175-242 0-141 115-255 255-255 80 0 154 37 202 100 2 2 2 5 0 7-1 2-3 2-6 2zM326 361l37 27 37-27-14 44 37 27h-46l-14 44-14-44h-46l37-27zM512 352h-19l-6 18-6-18h-19l16-11-6-18 15 11 16-11-6 18z" />
<glyph unicode="&#xe065;" glyph-name="navicon" d="M0 64v42c0 6 2 11 6 15s9 7 16 7h469c6 0 11-2 15-6s6-9 6-15v-42c0-6-2-11-6-15s-9-6-15-6h-469c-6 0-11 2-15 6-5 3-7 8-7 14zM0 234v43c0 6 2 11 6 15s9 6 15 6h469c6 0 11-2 15-6s6-9 6-15v-43c0-5-2-10-6-14s-9-6-15-6h-468c-6 0-11 2-15 6-5 4-7 9-7 14zM0 406v42c0 6 2 11 6 15s9 7 16 7h469c6 0 11-3 15-7s6-9 6-14v-43c0-6-2-11-6-15-5-5-9-7-16-7h-468c-6 0-11 2-15 6s-7 9-7 16z" />
<glyph unicode="&#xe066;" glyph-name="network-people" d="M399 252c-10 0-19-1-29-4-4 20-14 39-27 53 16 20 26 45 26 73 0 62-51 112-113 112s-113-50-113-113c0-27 10-52 26-72-13-15-23-33-27-53-9 2-19 3-29 3-62 1-113-50-113-112s51-113 113-113c53 0 97 36 109 85 11-3 22-5 34-5 11 0 23 3 34 5 12-49 56-85 109-85 62 0 113 50 113 113 0 62-51 113-113 113zM256 479c57 0 105-47 105-106 0-57-47-105-105-105-57 0-105 47-105 105s47 106 105 106zM113 33c-57 0-105 47-105 106 0 57 47 105 105 105 57 0 106-47 106-105-1-59-49-106-106-106zM256 121c-11 0-20 2-30 5 0 4 1 8 1 11 0 47-28 87-69 105 4 17 11 33 23 46 20-19 46-29 75-29s56 11 76 29c11-13 19-29 23-46-41-18-69-58-69-105 0-4 0-7 1-11-11-3-21-5-31-5zM399 33c-57 0-106 47-106 106 0 57 47 105 106 105 57 0 105-47 105-105-1-59-48-106-105-106zM188 317c0 0-5 16 21 28 26 11 30 13 31 15 2 3 4 5 0 11-5 7-20 22-19 42 2 18 12 35 36 35 23 0 35-22 36-37 1-16-12-35-17-41-3-5-2-9 0-11 3-2 26-11 30-14 5-3 19-11 19-29 1 1-137 1-137 1zM255 481c-59 0-107-48-107-107s49-106 107-106c58 0 106 47 106 105 0 59-48 108-106 108zM332 83c0 0-5 16 21 28 26 11 29 13 30 15 3 3 5 5 0 11-4 7-19 22-18 41 2 19 12 36 35 36s36-23 37-38c1-15-13-34-17-40s-2-9 0-11c2-2 25-11 30-14s18-12 18-29c2 0-136 1-136 1zM399 246c-60 0-107-48-107-107 0-58 48-106 107-106 58 0 106 47 106 105 0 59-48 108-106 108zM46 83c0 0-5 16 21 28 26 11 30 13 31 15 2 3 4 5 0 11-5 7-20 22-19 41 2 19 13 36 36 36s35-23 36-38c1-15-12-34-16-40s-2-9 0-11c2-2 25-11 29-14 5-3 19-12 19-29 1 0-137 1-137 1zM113 246c-59 0-106-48-106-108 0-59 48-106 106-106 59 0 107 48 107 106 0 59-48 108-107 108z" />
<glyph unicode="&#xe067;" glyph-name="new" d="M512 308h-205v204h-102v-204h-205v-104h205v-204h102v204h205z" />
<glyph unicode="&#xe068;" glyph-name="new-multi-doc" d="M465 329c0 9-9 18-19 18 0 0-252 0-252 0-17 0-21 9-21 17s6 16 22 16c0 0 204 0 204 0 7 0 12 5 12 11s-5 11-12 11h-255c-17 0-21 10-21 17 0 8 7 17 22 17 0 0 206 0 206 0 6 0 11 4 11 10 0 7-5 11-11 11h-257c-17 0-20 9-20 17s6 16 21 16c0 0 207 0 207 0 6 0 12 6 12 11 0 6-6 11-12 11h-214c-23 0-41-20-41-42v-319c0-23 18-41 41-41h8v-14c0-23 19-41 41-41h9v-14c0-23 19-41 41-41h236c22 0 41 18 41 41 1 0 1 288 1 288z" />
<glyph unicode="&#xe069;" glyph-name="newfield" d="M501 343l-47 82-151-87v174h-94v-174l-151 87-47-82 150-87-150-87 47-82 151 87v-174h94v174l151-87 47 82-150 87z" />
<glyph unicode="&#xe06a;" glyph-name="news" d="M69 348l-42-37 42-36zM416 249v193h-319v-193l160-139zM155 393h205c8 0 15-6 15-14 0-7-6-14-14-14h-206c-8 0-14 7-14 14 0 8 6 14 14 14zM155 325h205c8 0 15-6 15-14 0-7-6-14-14-14h-206c-8 0-14 7-14 14s6 14 14 14zM141 243c0 7 7 14 15 14h205c8 0 14-6 14-14 0-7-6-14-14-14h-206c-8 0-14 6-14 14zM444 348v-74l42 37zM19 280v-261l140 139zM332 139l-66-59c-5-5-13-5-18 0l-68 59-141-139h434zM257 512l-48-41h95zM354 157l139-138v260z" />
<glyph unicode="&#xe06b;" glyph-name="no-file-uploaded" d="M439 347c5 15 7 30 6 46-4 65-59 118-123 119-52 0-99-32-117-81-19 15-44 23-68 21-37-5-67-29-79-64-5-15-7-32-4-48-33-16-54-50-54-87 0-54 40-93 96-93h11v160h216l83-83v-77h10c56 0 97 39 97 93 0 44-31 83-74 94zM298 298h-170v-298h256v214h-86zM170 203h97v-22h-97zM342 53h-172v22h171v-22zM342 139v-22h-172v22z" />
<glyph unicode="&#xe06c;" glyph-name="no-results" d="M333 353c-2 2-6 4-10 4h-151c-18 0-32-14-32-32v-229c0-18 14-33 32-33h163c18 0 33 15 33 33v211c0 3-2 8-4 10zM324 120h-140c-4 0-7 4-7 8s3 8 7 8h140c4 0 7-4 7-8s-3-8-7-8zM324 186h-140c-4 0-7 3-7 8 0 4 3 7 7 7h140c4 0 7-3 7-7 0-5-3-8-7-8zM324 251h-140c-4 0-7 4-7 8s3 8 7 8h140c4 0 7-4 7-8s-3-8-7-8zM348 303h-27c-4 0-7 3-7 7v31c0 4 2 5 4 2l32-34c3-4 2-6-2-6zM260 397h3v6h5v3h-5v6h-3v-6h-5v-3h5zM134 385h-2v-6h-6v-3h6v-6h2v6h6v3h-6zM80 318h-3v-5h-5v-3h5v-6h3v6h6v3h-6zM44 396c-15 0-28-13-28-28 0-6 1-11 4-15l-20-19 10-10 20 20c4-3 9-5 15-5 15 0 28 13 28 29 0 15-14 28-29 28zM44 347c-12 0-21 9-21 21 0 11 9 21 21 21s21-10 21-21c0-12-9-21-21-21zM448 376l10 10-20 20c3 4 4 9 4 14 0 16-12 29-28 29-15 0-28-13-28-29 0-15 13-28 28-28 5 0 10 2 15 4zM414 399c-12 0-21 9-21 21s9 21 21 21c11 0 21-9 21-21s-10-21-21-21zM512 151l-20 19c3 5 4 10 4 15 0 15-13 28-28 28s-28-13-28-28c0-16 13-28 28-28 5 0 10 1 14 4l20-20zM468 163c-12 0-21 10-21 21 0 12 9 21 21 21s21-9 21-21c0-11-10-21-21-21zM392 333c0-5-4-9-9-9-4 0-8 4-8 9s4 9 8 9c5 0 9-4 9-9zM425 319h-2v-6h-6v-3h6v-6h2v6h6v3h-6zM403 382h-3v-6h-5v-2h5v-6h3v6h5v2h-5zM401 270c0-5-4-9-9-9s-9 4-9 9c0 5 4 9 9 9s9-4 9-9zM114 342c0-5-4-9-9-9-4 0-8 4-8 9s4 9 8 9c5 0 9-4 9-9zM116 285c0-5-4-9-8-9-5 0-9 4-9 9 0 4 4 8 9 8 4 0 8-4 8-8zM211 396c0-5-3-8-8-8s-9 3-9 8c0 5 4 9 9 9s8-4 8-9zM340 385c0-5-4-9-9-9s-8 4-8 9c0 5 3 9 8 9s9-4 9-9z" />
<glyph unicode="&#xe06d;" glyph-name="ok" d="M61 346l149-150 241 242 61-62-302-302-210 210z" />
<glyph unicode="&#xe06e;" glyph-name="organization" d="M256 502l-256-137v-42h512v42zM43 294h85v-178h-85zM213 294h85v-180h-85zM384 294h85v-180h-85zM0 90h512v-80h-512z" />
<glyph unicode="&#xe06f;" glyph-name="overdue" d="M364 364c-8 8-24 23-50 34-19 8-39 12-58 12v-154c52 7 103 14 155 20-5 20-16 56-47 88zM256 512c-141 0-256-115-256-256s115-256 256-256c141 0 256 115 256 256s-115 256-256 256zM256 51c-113 0-205 92-205 205s92 205 205 205c113 0 205-92 205-205s-92-205-205-205z" />
<glyph unicode="&#xe070;" glyph-name="overtime2" d="M512 36h-391v168c12-1 24-1 36 1v-133h320v229h-207c5 15 8 31 8 47 0 18-4 37-10 53h117v-43c0-19 15-34 34-34 18 0 34 15 34 34 0 3 0 8 0 12s0 9 0 14v18h59zM394 103h-40v42h40zM338 103h-40v42h40c0 0 0-42 0-42zM281 103h-40v42h40zM225 103h-41v42h41c0 0 0-42 0-42zM452 159h-41v42h41zM394 159h-40v42h40zM338 159h-41v42h41zM281 159h-40v42h40zM225 159h-41v42h41zM452 215h-41v40h41zM394 215h-39v40h40zM338 215h-41v40h41zM281 215h-39v36c1 2 2 3 3 4h37zM419 337c-9 0-16 7-17 16 0 0 0 1 0 1v62c0 9 7 17 16 17 10 1 17-7 17-16 0 0 0-1 0-1v-63c1-8-6-16-15-17-1 1-1 1-1 1zM125 226c-69 0-125 56-125 125 0 68 56 125 125 125s125-57 125-125c0-69-56-125-125-125zM125 453c-56 0-101-46-101-102s45-101 101-101c56 0 101 45 101 101s-45 102-101 102zM191 365h-53v53h-26v-53h-54v-27h54v-53h26v53h53z" />
<glyph unicode="&#xe071;" glyph-name="overtime3" d="M54 238c14 0 27-5 37-15l18-17 17 16c21 21 55 21 76 0s21-54 0-75c-21-21-55-21-76 0l-18 16-17-16c-21-21-54-21-75 0s-21 54 0 75c10 10 23 16 38 16zM148 168c8-9 23-9 32 0s9 23 0 32c-4 4-10 7-16 7s-12-3-16-7l-17-16zM38 168c9-9 23-9 32 0l16 16-17 16c-8 9-23 9-32 0-8-8-8-23 1-32zM265 337v-106l94-56 22 34-77 46v82zM298 469c-73 0-142-37-180-99l-57 56v-166h167l-68 67c28 51 81 82 138 82 86-1 154-70 155-155 0-86-69-155-155-155-31 0-62 9-88 27-5 3-31-16-35-44 36-25 79-40 123-40 119 0 214 96 214 214 0 117-95 212-212 212-1 1-1 1-2 1z" />
<glyph unicode="&#xe072;" glyph-name="parental-leave" d="M195 426c0-20-17-36-37-36s-36 16-36 36c0 20 16 36 36 36s37-16 37-36zM390 295c-3 19-11 36-16 54 0 1 0 2 0 4 0 27-3 54-7 81-2 13-18 21-30 17-5-1-9-4-12-7-9 3-19 5-29 5-19 0-19-30 0-30 9 0 17-1 25-5 0-1 0-3 0-4-4-1-7-4-10-8-16-24-49-15-73-13-13 9-31 9-44-1-14-13-16-34-4-49 29-33 28-87 28-138 0-7 0-15 0-23 0-10 4-18 10-24-3-44-14-88-30-129-11-25 30-36 41-11 16 42 28 88 31 134 10 7 17 17 17 30 0 7 0 14 0 22 0 44 1 97-20 144 21 0 40 2 57 12-4-14-12-28-19-41-10-17 16-31 25-15 6 9 11 19 16 29 1-1 3-1 4-1 5-13 9-26 11-41 3-18 31-10 29 8zM373 484c0-16-13-28-28-28-16 0-29 12-29 28 0 15 13 28 29 28 15 0 28-13 28-28z" />
<glyph unicode="&#xe073;" glyph-name="parking" d="M419 221h-144c-14 0-25 10-26 24-10-1-20-1-31-1-75 0-136 7-136 17l29 55c3 6 14 13 21 13h117v37h-116c-21 0-46-15-55-34l-34-65-13 4c-13 4-25-3-30-15-4-12 4-26 16-29l3-1c-1-4-2-9-2-13v-160c0-14 12-25 26-25h37c14 0 25 11 25 25v34c31-4 70-5 113-5 42 0 81 2 112 5v-34c0-14 12-25 25-25h38c14 0 25 11 25 25v160c1 3 0 5 0 8zM134 176c-2-20-22-19-42-17-2 0-4 0-6 0-23 2-40 9-39 30 2 27 16 27 43 22 13-2 46-13 44-35zM251 111h-65c-8 0-14 6-14 13 0 8 7 14 14 14h65c8 0 14-6 14-14 0-6-6-13-14-13zM352 159h-3c-22-2-44-4-46 16-2 22 30 33 44 36 26 5 41 5 43-22 2-21-16-27-38-30zM404 398c-2 0-8 1-16 1h-11v-32h13c9 0 14 0 18 1 3 1 5 3 7 6 1 2 2 5 2 8 0 5-1 8-3 11-3 3-6 4-10 5zM486 483h-185c-14 0-26-11-26-25v-186c0-14 12-25 26-25h185c15 0 26 11 26 25v186c0 14-11 25-26 25zM437 366c-2-5-5-9-9-12-5-2-8-4-12-5-6-1-14-1-24-1h-15v-43h-22v113h36c14 0 23-1 27-2 7-1 12-5 17-11 4-6 6-13 6-22 0-7-1-13-4-17z" />
<glyph unicode="&#xe074;" glyph-name="payment" d="M492 230c4 6 6 14 4 21l-60 230c-3 13-17 21-30 18l-388-102c-13-4-21-18-17-30l60-230c4-14 18-21 31-18l136 36v-77c0-43 72-66 142-66s142 23 142 66v117c0 13-8 25-20 35zM448 309l6-24-77-20-6 24zM403 460l12-45-120-32-12 46zM349 283l6-23c-28-1-56-7-78-15l-5 18zM81 187l-6 24 77 20 6-24zM174 237l76 20 6-22c-2-1-4-3-5-4l-71-19zM486 80c0-25-51-46-116-46-64 0-116 21-116 46v28c0 1 0 2 0 3 4-24 54-43 116-43s111 19 115 43c0-1 0-2 0-3v-28zM486 136c0-25-51-46-116-46-64 0-116 21-116 46v28c0 1 0 2 0 2 4-23 54-42 116-42s111 19 115 42c0-1 0-1 0-2v-28zM370 150c-64 0-116 20-116 45s52 46 116 46c64 0 116-21 116-46s-52-45-116-45z" />
<glyph unicode="&#xe075;" glyph-name="payroll" d="M320 0c-101 0-184 82-184 184 0 101 83 184 184 184s184-83 184-184c0-102-83-184-184-184zM320 333c-82 0-150-67-150-149 0-83 68-150 150-150s150 67 150 150c0 82-68 149-150 149zM357 251l-5-26c-6 5-14 8-24 8-11 0-19-4-26-11-4-4-6-10-8-16h54l-3-15h-53c0-2 0-4 0-6s0-4 0-7h50l-4-15h-44c2-7 4-12 8-16 7-8 15-11 25-11 12 0 23 3 30 11v-30c-8-4-19-6-29-6-19 0-35 7-47 20-8 8-14 20-16 32h-15l3 15h10c0 2 0 3 0 5 0 3 0 6 0 8h-13l3 15h12c3 13 8 23 17 32 12 13 28 20 48 20 10-1 19-3 27-7zM318 307c-67 0-122-55-122-123s54-123 122-123c69 0 123 55 123 123s-55 123-123 123zM167 82h-159v430h444v-200h-45v154h-353v-339h113zM81 436h281v-31h-281zM82 379h121v-31h-121z" />
<glyph unicode="&#xe076;" glyph-name="pdf" d="M443 430c-5 5-9 9-14 14-5 6-10 10-14 15-34 34-54 53-75 53h-157c-44 0-79-36-79-78v-142h39v142c0 21 18 39 40 39h143c14-3 14-21 14-38v-60c0-11 9-20 20-20h60c20 0 39 0 39-20v-256c0-22-18-40-39-40h-237c-21 0-39 18-39 40v62h-40v-63c0-43 36-78 79-78h236c43 0 78 35 78 78v276c1 22-18 42-54 76zM96 240c-1 0-3 1-5 1s-3 1-5 1h-14v-23h14c2 0 3 0 5 0s4 1 5 2c2 0 2 2 4 3 0 2 1 4 1 6s0 4-1 6c-2 2-2 3-4 4zM174 234c-1 2-4 4-7 5-3 2-7 2-11 2h-12v-48h15c2 0 5 0 7 1s4 2 7 4c2 2 3 4 4 7s1 7 1 11c0 4 0 7-1 11 1 2-1 5-3 7zM292 293h-260c-9 0-18-8-18-18v-117c0-10 8-18 18-18h260c10 0 18 8 18 18v117c-1 10-8 18-18 18zM117 220c-1-3-3-5-5-8-2-2-6-4-9-5-4-2-8-2-13-2h-18v-29h-18v79h36c5 0 9 0 12-2 4-1 7-3 9-5s4-5 5-8c1-3 2-7 2-9 0-4 0-7-1-11zM198 200c-2-5-4-9-7-13-3-3-7-6-11-8s-10-3-16-3h-34v79h34c5 0 10 0 14-2 4-1 9-4 11-7 4-3 6-7 8-12s3-11 3-17c0-7-1-12-2-17zM263 223v-14h-33v-32h-18v78h56v-14h-38v-18z" />
<glyph unicode="&#xe077;" glyph-name="pending" d="M364 364c-29 30-70 46-108 46v-154l-108-108c59-58 157-58 218 0 59 59 59 157-2 216zM256 512c-141 0-256-115-256-256s115-256 256-256c141 0 256 115 256 256s-115 256-256 256zM256 51c-113 0-205 92-205 205s92 205 205 205c113 0 205-92 205-205s-92-205-205-205z" />
<glyph unicode="&#xe078;" glyph-name="people" d="M122 235h-66c-19 0-34-14-34-34v-89c0-18 14-34 34-34v-45c0-18 14-34 34-34 19 0 33 15 33 34v45c19 0 34 15 34 34v89c-1 19-16 34-35 34zM90 256c31 0 56 25 56 56 0 32-24 57-56 57s-56-25-56-57c0-31 24-56 56-56zM289 235h-67c-18 0-34-14-34-34v-89c0-18 15-34 34-34v-45c0-18 15-34 34-34s34 15 34 34v45c18 0 34 15 34 34v89c-2 19-17 34-35 34zM200 312c0-31 24-56 56-56s56 25 56 56c0 32-24 57-56 57-30-1-56-25-56-57zM456 235h-67c-18 0-34-14-34-34v-89c0-18 15-34 34-34v-45c0-18 14-34 34-34 18 0 34 15 34 34v45c18 0 33 15 33 34v89c-1 19-15 34-34 34zM367 312c0-31 25-56 56-56 32 0 57 25 57 56 0 32-25 57-57 57-32-1-56-25-56-57zM389 456c0 31-24 56-56 56-31 0-57-25-57-56 0-32 25-57 57-57 32 1 56 26 56 57zM234 456c0 31-24 56-56 56s-56-25-56-56c0-32 24-57 56-57 31 1 56 26 56 57z" />
<glyph unicode="&#xe079;" glyph-name="percentage-discount" d="M222 313c20 22 31 51 31 81 0 59-42 118-122 118-37 0-69-13-91-37-20-21-30-50-30-81 0-58 41-118 121-118 37 0 69 13 91 37zM131 457c44 0 64-33 64-63 0-16-6-32-16-43-11-13-27-19-47-19-45 0-65 33-65 63 0 31 20 62 64 62zM422 466c-7 0-17-4-22-10l-360-400c-5-5-1-12 6-12h47c7 0 17 4 22 9l358 400c4 6 4 14-8 14zM382 231c-36 0-67-12-89-36-19-21-29-49-29-79 0-58 41-116 118-116 37 0 68 12 90 36 20 21 30 50 30 80 0 57-41 115-120 115zM383 53c-43 0-63 33-63 64 0 16 6 31 16 43 11 13 28 19 47 19 43 0 63-33 63-63 0-17-5-32-15-43-12-13-28-20-48-20z" />
<glyph unicode="&#xe07a;" glyph-name="person" d="M2 11c0 0-18 61 77 104 96 42 110 47 115 57 4 10 16 19 1 41-17 25-75 80-68 155 6 67 47 134 132 134s132-84 135-141c3-55-46-128-61-150-17-23-7-33 0-40 7-6 92-41 112-52 19-10 67-43 67-108 1-2-510 0-510 0z" />
<glyph unicode="&#xe07b;" glyph-name="person-2" d="M255 512c-58-1-109-55-102-119 5-56 44-116 102-117 1 0 2 0 2 0 58 1 97 61 103 117 6 64-44 118-103 119 0 0-1 0-2 0zM184 276c-66-16-126-17-126-106v-121c0-36 24-48 52-49h295c27 0 48 26 48 49v121c0 90-65 91-125 106-19-19-46-67-74-68-26 0-53 51-70 68z" />
<glyph unicode="&#xe07c;" glyph-name="phone" d="M375 205c-34-35-34-68-68-68s-68 33-102 68c-35 34-68 68-68 102 0 35 34 35 68 68 34 34-68 137-103 137-34 0-102-102-102-102 0-68 70-207 137-273 66-66 205-137 273-137 0 0 102 68 102 102 0 35-102 137-137 103z" />
<glyph unicode="&#xe07d;" glyph-name="portal" d="M0 512h223v-224h-223c0 1 0 224 0 224zM0 223h223v-223h-223c0 0 0 223 0 223zM289 512h223v-224h-223c0 1 0 224 0 224zM289 223h223v-223h-223c0 0 0 223 0 223z" />
<glyph unicode="&#xe07e;" glyph-name="process" d="M487 53h-190c-13 0-25 12-25 25v86c0 14 12 25 25 25h190c14 0 25-11 25-25v-86c0-13-11-25-25-25zM374 240h-238v-36h-33v69h136v36h33v-36h135v-69h-33zM349 324h-187c-14 0-25 11-25 25v85c0 14 11 25 25 25h187c14 0 25-11 25-25v-85c0-14-11-25-25-25zM237 164v-86c0-14-12-25-26-25h-186c-14 0-25 11-25 25v86c0 14 11 25 25 25h187c14 0 25-11 25-25z" />
<glyph unicode="&#xe07f;" glyph-name="process-info" d="M27 492h268v-149h-50v99h-218zM459 20h-406c-29 0-53 24-53 54v185c0 29 24 53 53 53h406c29 0 53-24 53-53v-186c0-29-24-53-53-53zM279 146c2 5 7 10 15 16 12 10 19 18 23 24 4 7 6 13 6 20 0 17-8 30-22 40-11 7-26 11-43 11-24 0-40-5-51-16s-18-24-19-42l48-5c1 9 3 16 7 20 3 3 8 5 14 5s9-1 12-3c3-3 4-7 4-11s-3-9-9-15c-13-10-21-17-24-21-4-4-7-9-9-13-2-5-2-12-2-20v-4h46c0 6 1 11 4 14zM227 75h50v44h-50z" />
<glyph unicode="&#xe080;" glyph-name="process-new" d="M245 442h-218v50h267v-149h-50v99zM512 259v-186c0-29-24-53-53-53h-406c-29 0-53 24-53 54v185c0 29 24 53 53 53h406c29 0 53-24 53-53zM345 193h-59v60h-45v-60h-63v-48h63v-58h45v58h59z" />
<glyph unicode="&#xe081;" glyph-name="products" d="M223 450h71c-12-8-22-20-27-35l-83-243c-1-1-1-2-1-3v241c0 22 18 40 40 40zM14 256c-17 14-19 40-4 56l39 46c1-2 1-4 2-5l81-199c0 1-118 102-118 102zM154 410l-1-230-75 184c-8 21 2 44 22 52l61 25c-5-9-7-20-7-31zM510 332l-84-243c-5-16-21-27-37-27-4 0-9 0-13 2l-139 48c-21 7-33 30-26 50l84 243c6 16 21 27 38 27 4 0 9 0 13-2l139-48c21-7 32-29 25-50z" />
<glyph unicode="&#xe082;" glyph-name="question" d="M336 249l33 33c18 22 33 52 33 85-1 80-66 145-146 145s-145-65-145-145h73c0 41 33 73 74 73s74-32 74-73c0-22-7-42-22-53l-43-47c-28-26-44-63-44-102v-18h74c-4 55 11 76 39 102zM219 74h74v-74h-74z" />
<glyph unicode="&#xe083;" glyph-name="recovery" d="M417 334h-68v-78h-77v-68h77v-77h68v77h78v68h-78zM238 290h78v78h135v-78h39c41 66 21 153-45 194-63 40-145 24-189-36-45 63-133 79-197 34-63-45-78-133-33-197 2-3 4-6 6-9l224-271 60 72v78h-78z" />
<glyph unicode="&#xe084;" glyph-name="redo" d="M256 358v82c0 9 3 17 9 23s15 9 23 9c8 0 16-3 22-9l202-199-202-198c-6-7-14-10-22-10s-17 3-23 10c-6 6-9 14-9 22v80c-88-2-184-18-256-128v32c-1 148 112 271 256 286z" />
<glyph unicode="&#xe085;" glyph-name="refresh-3" d="M512 470v-150c0-11-11-22-22-22h-148c-19 0-28 23-15 36l45 47c-33 31-72 45-116 45-60 0-115-29-145-81-3-4-9-16-18-39-1-5-5-8-11-8h-66c-5 0-11 5-11 11v2c31 120 128 201 251 201 64 0 130-27 176-71l44 43c13 13 36 4 36-14zM504 203v-3c-28-119-127-200-250-200-65 0-128 27-174 71l-44-43c-13-13-36-4-36 15v149c0 11 11 22 22 22h149c18 0 28-23 15-36l-46-47c32-28 74-45 117-45 59 0 114 29 145 81 2 4 8 16 17 39 2 5 5 8 11 8h64c5 0 10-6 10-11z" />
<glyph unicode="&#xe086;" glyph-name="reimbursement" d="M474 254c-14 92-84 165-174 183 0 0 9 49 2 57-8 7-19 7-27 0l-63-59c-1-1-2-2-2-2s0 0 0-1v0c0-1-1-1-1-2 0 0 0-1-1-2 0-1-1-1-1-2s0-2 0-3c0 0 0 0 0-1 0-2 0-3 0-4 0-2 0-3 1-4 0-1 1-1 1-2 0 0 1-2 2-2 0 0 0-1 0-1l57-69c3-4 7-6 12-6h2c10 0 18 7 19 17 0 5-5 50-5 50 98-23 160-121 139-220-22-99-121-162-220-139s-161 120-139 219c10 40 32 75 64 102 4 3-15 35-24 29-60-49-90-127-79-205 16-107 108-186 217-187 12 0 23 1 34 3 121 19 204 131 186 251zM255 0c-112 1-207 82-224 194-12 78 19 159 82 209 3 3 11 7 22-8 2-3 19-23 9-30-48-40-72-103-63-165 14-97 103-164 200-151 96 13 164 103 151 199 0 2 0 3 0 5-12 70-62 126-129 145 2-15 4-39 3-43 0-6-4-12-9-17-10-8-26-7-35 4l-57 70c-1 1-2 2-2 3 0 0-1 1-1 1 0 3-1 5-1 7s0 5 0 6v1c0 2 0 3 0 4s1 2 1 2c0 2 0 2 1 3s1 2 2 2l2 3-1-1c1 1 2 2 2 3l63 59c10 10 25 10 35 0 7-8 4-36 1-56 90-21 159-95 173-187 20-124-65-239-189-259-13-1-24-3-36-3zM120 393c-59-48-88-124-76-198 16-104 106-182 211-183 11 0 21 1 33 3 117 18 197 127 179 244-13 89-81 160-169 178l-6 2 1 6c5 23 7 47 3 51-4 5-12 5-16 0l-65-63c0 0-1-1-1-1 0-1 0-2 0-3s0-3 0-3c0-1 0-2 0-3 1 0 1-2 2-2v-2l56-68c2-2 5-4 9-4h1c6 0 11 4 11 11 0 3-2 28-4 49l-1 9 9-2c102-23 167-124 144-227-17-77-79-135-156-147-104-16-201 56-216 159-10 66 14 132 65 174-3 8-9 14-14 20zM312 298l-7-34c-9 7-20 11-31 10-12 0-25-6-33-15-6-6-9-14-10-22h69l-5-19h-67v-13h63l-3-18h-57c0-9 4-16 9-23 8-9 21-14 33-14 14 0 28 4 39 13v-38c-12-5-25-7-38-7-23 0-44 9-59 25-11 12-19 28-21 43h-19l4 19h12v13h-17l4 19h15c2 15 9 30 21 42 16 17 38 26 61 25 12 2 26 0 37-6z" />
<glyph unicode="&#xe087;" glyph-name="remove" d="M352 464v33h-192v-33h-160v-64h512v64zM418 368v-289h-322v289h-64v-353h450v353zM160 369h65v-258h-65zM288 369h65v-258h-65z" />
<glyph unicode="&#xe088;" glyph-name="remove-2" d="M0 464h512v-64h-512zM160 497h192v-59h-192zM32 368h64v-352h-64zM94 79h386v-64h-386zM418 368h64v-352h-64zM160 369h65v-258h-65zM288 369h65v-258h-65z" />
<glyph unicode="&#xe089;" glyph-name="rocking-chair" d="M476 104c-10 9-24 9-33 1-11-9-24-17-36-25l-33 111h13c22 0 24 16 28 49 1 7 2 14 3 24 3 27 19 161 26 210 2 18-10 34-30 37h-1c-20 4-39-8-43-26l-14-111h-301c-8 0-24-4-24-19 0-19 10-22 22-25h23l12-67c-10-8-16-19-16-31v-1c0-22 20-39 45-39h22l-33-111c-12 8-24 16-36 25-9 8-23 8-33-1-4-4-6-9-6-15 0-7 2-11 7-16 59-47 137-74 217-74 81 0 159 27 218 75 5 4 8 9 8 15 1 4-1 10-5 14zM135 273l-11 59h227l-7-59zM189 192h137l39-132c-34-12-71-19-106-19-37 0-73 7-106 19zM216 392c-32 0-59 26-59 59 0 32 26 58 59 58 32 0 59-26 59-58 0-33-26-59-59-59zM216 498c-26 0-48-21-48-48s21-48 48-48c26 0 48 21 48 48s-21 48-48 48zM229 472l-2-8c-2 1-4 2-7 2-4 0-6-1-9-4-1-1-1-3-2-5h16l-1-5h-17c0-1 0-1 0-1 0-1 0-2 0-3h16l-1-5h-14c1-3 1-4 2-5 2-3 6-4 9-4 4 0 6 1 9 4v-9c-3-2-6-2-9-2-7 0-11 2-16 6-2 3-4 7-5 10h-4l1 6h4c0 1 0 1 0 1 0 1 0 2 0 3h-4l1 5h3c1 4 3 7 5 10 4 4 10 6 16 6 3 0 6 0 9-2zM216 489c-22 0-39-17-39-39s18-39 39-39c22 0 39 18 39 39 0 23-17 39-39 39z" />
<glyph unicode="&#xe08a;" glyph-name="rotate-right" d="M0 256c0 35 7 68 20 99 14 32 32 59 55 82s50 41 82 55c32 14 64 20 99 20 33 0 65-6 95-18 30-13 58-30 81-53l44 43c6 7 14 9 23 5s13-10 13-19v-150c0-6-2-11-6-15s-9-6-15-6h-149c-10 0-16 5-20 13-4 9-2 17 5 23l46 46c-33 31-72 46-116 46-24 0-46-5-67-13-21-10-38-21-54-37-15-15-27-33-36-54s-13-43-13-66c0-23 4-45 13-66s21-39 36-54c16-16 33-28 54-37s43-13 67-13c26 0 51 6 74 17 24 12 44 28 60 50 2 2 4 3 8 4 3 0 6-1 8-3l46-46c2-2 3-5 3-7 0-3-1-5-3-8-24-31-54-54-88-70s-71-24-109-24c-35 0-68 7-99 20-32 14-59 32-82 55s-41 50-55 82c-14 32-20 64-20 99z" />
<glyph unicode="&#xe08b;" glyph-name="salary" d="M432 336h46v114c0 12-11 23-23 23h-30c5-7 7-15 7-23zM478 176h-46v-114c0-8-2-15-7-23h30c12 0 23 11 23 23zM478 324h-136c-21 0-48-15-59-34v0c-11-19-11-49 0-68v0c11-19 38-34 59-34h136c19 0 35 15 35 34v68c-1 19-16 34-35 34zM353 222c-19 0-35 15-35 34s16 34 35 34c19 0 34-15 34-34s-15-34-34-34zM375 256c0-13-10-23-22-23-13 0-23 11-23 23s10 23 23 23c12 0 22-10 22-23zM410 176v-114c0-12-11-23-23-23h-364c-13 0-23 11-23 23v388c0 12 10 23 23 23h364c13 0 23-11 23-23v-114h-68c-26 0-56-18-69-40v0c-12-22-12-57 0-79v0c13-22 43-40 69-40zM168 355c-28 0-51-9-68-27-11-13-19-27-22-45h-17l-4-22h18c0-3-1-7-1-11 0-3 0-5 0-7h-13l-4-21h20c4-19 12-34 23-46 17-18 39-28 66-28 16 0 29 4 41 9v42c-10-11-24-16-41-16-14 0-26 5-35 16-5 5-9 13-11 23h62l4 21h-70c0 3 0 6 0 9s0 7 0 9h73l5 21h-75c2 9 5 16 11 22 9 11 21 16 36 16s26-4 34-12l8 38c-12 6-25 9-40 9z" />
<glyph unicode="&#xe08c;" glyph-name="save-disquette" d="M440 512h-38v-184h-292v184h-109v-512h510v440zM438 71h-366v184h366zM291 512h74v-146h-74z" />
<glyph unicode="&#xe08d;" glyph-name="search" d="M300 512c117 0 212-95 212-212 0-118-95-213-212-213-40 0-78 11-111 30l-102-103c-19-19-52-19-72 0-20 20-20 53 0 73l103 103c-20 32-31 70-31 110 0 117 95 212 213 212zM301 430c-72 0-131-58-131-130s59-130 131-130c71 0 129 59 129 131 0 71-58 129-129 129z" />
<glyph unicode="&#xe08e;" glyph-name="search-x" d="M251 512c99 0 179-80 179-178s-80-178-179-178c-33 0-65 9-92 25l-86-85c-17-17-43-17-60 0-17 16-17 43 0 60l86 87c-17 27-26 58-26 92 1 97 81 177 178 177zM252 443c-59 0-109-49-109-109 0-61 48-109 109-109 60 0 109 49 109 109 0 61-48 109-109 109zM512 24l-57 56 56 56-24 25-56-56-56 56-25-25 56-56-57-57 26-23 56 56 56-56z" />
<glyph unicode="&#xe08f;" glyph-name="send" d="M111 337h-41c-8 0-14-6-14-13v-10c0-8 6-14 14-14h41c8 0 14 6 14 14v10c0 7-6 13-14 13zM111 276h-70c-7 0-13-6-13-13v-10c0-8 6-14 13-14h70c8 0 14 6 14 14v10c0 7-6 13-14 13zM111 215h-97c-8 0-14-6-14-14v-10c0-7 6-13 14-13h97c8 0 14 6 14 13v10c0 8-6 14-14 14zM150 154c0-17 13-30 30-30h302c17 0 30 13 30 30v204c0 17-13 30-30 30h-302c-17 0-30-13-30-30zM261 255l-70 70c-5 6-5 15 0 21 6 6 15 6 21 0l111-110c4-5 11-5 16 0l111 110c5 6 14 6 21 0 5-6 5-15 0-21l-70-70 69-69c6-5 6-14 0-21-6-5-15-5-21 0l-69 70c0 0-22-22-26-26-6-6-14-10-24-10-9 0-18 4-24 10-4 4-25 25-25 25l-69-68c-6-6-15-6-21 0s-6 15 0 21c0-1 70 68 70 68z" />
<glyph unicode="&#xe090;" glyph-name="send-message" d="M0 307l119-119 291 222-222-291 119-119 205 512z" />
<glyph unicode="&#xe091;" glyph-name="settings" d="M324 512c-8 0-13-5-16-10 0 0-20-28-27-39-3-6-11-8-15-8-9 1-17 0-25 0h-2c-3 0-15 0-19 8-9 10-30 39-30 39-4 6-12 10-23 5l-41-17c-7-4-9-13-7-22 0 0 4-34 6-47 1-10-3-16-4-19-7-6-13-12-19-20-3-1-8-4-16-4-13 2-48 5-48 5-8 1-18-3-21-11l-14-40c-5-11 1-19 7-23 0 0 29-20 39-27 7-4 9-14 9-19 0-7 0-14 1-22 0-1 0-2 0-2 0-2 0-15-8-20-10-8-39-30-39-30-6-4-10-12-5-24l18-39c4-8 12-10 20-8 0 0 36 4 48 6 10 1 15-3 18-4 5-6 12-11 19-17 2-3 9-11 7-20-2-13-6-48-6-48-1-8 1-16 13-20l40-16c9-3 16 2 21 9 0 0 21 29 29 40 6 7 12 8 15 9 9 0 17 1 26 2 3-1 10-3 16-10 7-11 31-37 31-37 4-6 13-10 21-7l39 17c12 5 12 13 12 22 0 0-6 35-9 47-3 9 5 19 6 20l2 1c4 5 8 10 13 14l1 1c2 2 11 12 21 9 12-1 46-5 46-5 8-1 16 0 22 11l15 41c4 8-2 16-8 20 0 0-28 23-38 30-7 6-9 12-10 15 0 9-1 18-1 26 1 4 2 11 9 16 11 8 38 32 38 32 6 4 11 12 7 20l-18 40c-4 11-14 13-21 12 0 0-36-6-48-9-8-3-17 6-20 7l-2 2c-5 6-11 12-17 16-2 3-5 9-4 17 1 13 4 49 4 49 1 8-1 17-10 20l-40 15c-5 0-6 1-8 1zM250 390c75 3 138-56 141-130 2-75-56-138-130-141-75-2-137 56-140 132-3 56 30 105 78 127 15 8 32 12 51 12zM335 258c2-44-32-80-76-83-43-1-81 33-83 76-1 34 18 63 46 76 10 5 20 6 31 6 42 4 81-30 82-75z" />
<glyph unicode="&#xe092;" glyph-name="show-more" d="M259 384c35 0 64 29 64 64s-29 64-64 64c-36 0-64-29-64-64s28-64 64-64zM259 320c-36 0-64-29-64-64s28-64 64-64c35 0 64 29 64 64s-29 64-64 64zM259 128c-36 0-64-29-64-64s28-64 64-64c35 0 64 29 64 64s-29 64-64 64z" />
<glyph unicode="&#xe093;" glyph-name="speedometer" d="M469 120h-97l1 1v1l99 3v-3c0-1-1-1-1-2-1 0-1 0-2 0zM470 167l-94 19v1c0 1 0 1 0 1v4c0 1 0 1 0 2v0l-1 3c0 1 0 3 1 3l80 23c1 0 2-1 3-2v-2l1-1v-2l1-1c0-1 0-2 0-2l1-1v-3l1-1v-2l1-2v-2c1-3 1-5 2-8l1-5c0-2 0-3 0-4l1-2c0-3 1-7 1-10l1-2v-1zM447 244c1 1 2 2 2 3l-1 2-1 3-2 3-2 5c0 0 0 1-1 2l-1 2c0 1-1 2-3 4l-2 4-2 3-1 2-3 5c-2 3-5 6-7 9l-2 3-2 2-3 5c-2 2-3 3-4 5-1 1-2 1-2 2l-4 4c-1 1-2 2-2 2l-5 4c-1 2-2 3-4 4-1 2-2 3-4 4l-3 4c-1 1-3 2-4 3l-3 3-3 2-2 2c-1 1-2 1-3 2l-2 2c-1 1-3 1-4 0l-43-52c-1-1 0-3 0-3l1-1c1-1 1-1 2-2l1-2 3-2 2-2c0-1 1-2 2-3l2-2c1-1 2-2 3-3s1-2 2-3l3-3c0-1 1-1 1-2l1-1 1-2c0 0 1-1 1-2s1-2 2-4l2-3v-1l1-1 1-2c1-3 2-5 3-7l2-4 1-1v-2l2-3 1-3v-1c0-1 1-1 1-2l2-4 1-3v-2c1-1 2-2 3-1zM310 303l-2 1-1 1h-1l-2 2-2 1-3 3c-1 0-1 0-1 0-18 11-37 19-58 24-1 0-2 0-2 0l-3 1h-2l-4 1c-1 0-2 2-2 3l2 51c0 1 1 2 3 2h13c2 0 3 0 4 0l5-1h5l3-1c1 0 1 0 2 0l4-1c15-3 31-7 46-12h1c1-1 3-2 5-2 1-1 3-2 5-2l5-2c1-1 3-2 4-2l4-2 3-3 3-2h1l1-1 2-1c1 0 2-2 1-3l-35-54c-1-2-3-2-4-1zM183 337c1 0 2 0 2 0h2l4 1h5c0 0 1 0 1 0h10c1 0 2 1 2 2l-3 48c0 2-1 3-2 2h-2l-3-1h-3l-4-1c-1 0-2 0-2 0l-2-1-10-2h-2c-1 0-2-1-3-1l-5-1-5-2c-1 0-2 0-2-1l-3-1-2-1c-1 0-2 0-3-1l-5-2c-3 0-4-1-6-2l-3-1-2-1-3-1c-1 0-1-1-2-1l-5-2c-2-2-3-2-5-3-1-1-3-2-4-3l-4-2c-2-1-3-2-4-3l-4-2-3-2-2-2c-1 0-2-1-2-1l-3-2c-1-1-1-2 0-3l20-30c1-1 2-1 3 0l2 1c1 0 1 0 2 1l3 1 2 1 3 2c1 0 2 1 3 1l4 2c1 0 2 1 3 1 2 1 3 1 4 2l5 1c0 1 1 1 2 1h2l4 2c1 0 3 1 4 1l5 1c0 0 1 0 2 0l4 1c0 0 1 1 2 1h4zM46 299l-3-4c0-1-1-2-1-3-1-2-2-3-3-5l-4-4v-1l-1-1-1-3c-2-3-4-6-5-9l-2-5-6-12c0-2-1-3-1-4l-3-9-1-2c-1-1 0-3 1-3l19-7c1-1 3 0 3 1l2 4 2 2 1 3c1 1 1 2 2 3l2 4 2 3 4 8c2 3 4 5 6 8l1 2 1 1v1l3 3c1 1 2 3 3 4 1 0 1 1 2 2l3 3c0 0 1 1 2 1l3 3c1 1 2 2 3 3s2 2 3 3l3 3c1 1 2 2 3 3l5 4 2 1c0 0 0 1 1 1l2 2c1 1 2 3 1 4l-21 25c-1 1-3 1-4 0l-1-1-2-1c0-1 0-1-1-2l-5-5-2-3c-1-1-2-2-3-3l-3-3c-1-1-2-3-3-4-1-2-2-3-3-4l-3-4c-2-2-2-3-3-3zM8 211l-1-2v-2c0-1-1-2-1-3v-4c0 0 0-1-1-2v-2c-1-2-1-5-1-8l-1-5c0-2 0-3 0-5-1-4-1-7-1-10v-6c0-1 0-2 0-2v-17l1-5v-2l1-5v-5c0-1 1-3 1-4v-1c0-1 1-2 3-2h6c2 0 3 1 3 3 0 0 0 0 0 1s0 2 0 4v4c0 2 0 3 0 5v20l1 2 1 5v2c0 3 1 6 1 9 1 2 1 3 1 5l1 4c1 3 2 6 2 8l1 1c0 1 0 1 0 2l1 3c1 1 1 2 1 2l1 3 1 2c0 1 0 2-2 3l-16 4c-2 2-3 2-3 0zM189 173c-4-21 9-41 29-45 4 0 6-1 9 0l171 6 65 2 40 2c3 0 6 3 6 6 0 1 0 1-1 2 0 3-2 4-5 5l-41 8-61 11-169 33c-20 4-39-9-43-30zM245 169c3-10-3-20-13-22-10-3-20 3-23 13-2 10 3 20 14 22 9 3 19-3 22-13z" />
<glyph unicode="&#xe094;" glyph-name="star" d="M482 338l-140 2-56 144c-11 27-49 27-59 0l-57-144-140-2c-29-1-41-38-18-56l113-99-38-135c-8-28 23-51 47-36l122 67 122-67c24-15 55 8 47 36l-39 135 114 99c23 18 11 55-18 56z" />
<glyph unicode="&#xe095;" glyph-name="subway" d="M256 512c-119 0-216-13-216-108v-256c0-51 43-94 95-94l-41-41v-13h324v13l-41 41c52 0 95 43 95 94v256c0 95-97 108-216 108zM135 108c-22 0-41 19-41 40 0 22 19 41 41 41 21 0 40-19 40-41s-19-40-40-40zM229 269h-135v135h135zM377 108c-21 0-40 19-40 40 0 22 19 41 40 41 22 0 41-19 41-41s-19-40-41-40zM418 269h-135v135h135z" />
<glyph unicode="&#xe096;" glyph-name="sun" d="M400 256c0-79-65-144-144-144s-144 65-144 144c0 79 65 144 144 144s144-65 144-144zM246 417h20c7 0 12 5 12 12v71c0 7-5 12-12 12h-20c-7 0-12-5-12-12v-71c0-7 5-12 12-12zM417 266v-20c0-7 5-12 12-12h71c7 0 12 5 12 12v20c0 7-5 12-12 12h-71c-7 0-12-5-12-12zM266 0c7 0 12 5 12 12v71c0 7-5 12-12 12h-20c-7 0-12-5-12-12v-71c0-7 5-12 12-12zM12 234h71c7 0 12 5 12 12v20c0 7-5 12-12 12h-71c-7 0-12-5-12-12v-20c0-7 5-12 12-12zM377 362c4-4 12-4 16 0l51 51c5 5 5 12 0 17l-14 14c-5 5-12 5-17 0l-51-51c-4-4-4-12 0-16zM430 68l14 14c5 5 5 12 0 16l-51 51c-4 5-12 5-16 0l-15-14c-4-5-4-12 0-17l51-50c5-5 12-5 17 0zM99 68l51 50c4 5 4 12 0 17l-15 14c-4 5-12 5-16 0l-51-51c-5-4-5-11 0-16l14-14c5-5 12-5 17 0zM119 362c4-4 12-4 16 0l15 15c4 4 4 12 0 16l-51 51c-5 5-12 5-17 0l-14-14c-5-5-5-12 0-17z" />
<glyph unicode="&#xe097;" glyph-name="tag" d="M0 328v141c0 12 4 22 13 30s19 13 30 13h141c12 0 25-3 39-9 15-5 26-13 35-22l241-241c8-9 12-19 12-31 0-11-4-22-12-30l-166-167c-8-8-19-12-30-12-12 0-22 4-31 12l-241 242c-9 9-16 20-22 35-6 14-9 27-9 39zM65 404c0-12 4-22 13-31 9-8 18-13 31-13 12 0 22 5 30 13 9 9 13 19 13 31s-4 22-13 31c-8 8-18 12-30 12s-22-4-31-12c-9-9-13-19-13-31z" />
<glyph unicode="&#xe098;" glyph-name="tags" d="M0 313v112c0 10 4 18 10 25 7 6 15 10 24 10h112c10 0 20-3 32-7 11-5 21-11 28-18l193-192c7-7 10-16 10-25 0-10-3-17-10-24l-133-132c-7-7-15-10-24-10-10 0-18 3-24 10l-193 193c-7 7-13 16-18 27-4 11-7 22-7 31zM52 374c0-10 3-18 10-25 7-6 15-10 25-10 9 0 17 4 24 10 7 7 10 15 10 25 0 9-3 17-10 24s-15 11-24 11c-10 0-18-4-25-11-7-6-10-15-10-24zM190 460h60c10 0 20-2 32-7 12-4 21-11 28-17l193-193c6-7 10-15 10-24 0-10-4-18-10-24l-133-133c-8-7-16-10-25-10-7 0-12 1-16 4-4 2-8 6-14 12l127 127c7 6 10 14 10 24 0 9-3 17-10 24l-193 193c-7 6-16 13-28 17-11 5-22 7-31 7z" />
<glyph unicode="&#xe099;" glyph-name="taxi" d="M489 284h-1l-52 122c-4 8-12 13-21 13h-64v35c0 13-10 23-23 23h-145c-13 0-23-10-23-23v-35h-63c-9 0-17-5-21-13l-52-122h-1c-13 0-23-10-23-23v-138c0-13 10-23 23-23h9v-43c0-12 10-23 23-23h55c13 0 23 11 23 23v43h247v-43c0-12 11-23 23-23h56c13 0 23 11 23 23v43h8c13 0 24 10 24 23v139c-2 12-12 22-25 22zM113 374h286l39-90h-364zM99 147c-24 0-45 20-45 46 0 24 20 45 45 45s45-20 45-45c0-26-20-46-45-46zM412 147c-25 0-45 20-45 46 0 24 20 45 45 45 24 0 45-20 45-45-1-26-21-46-45-46z" />
<glyph unicode="&#xe09a;" glyph-name="text" d="M314 512h51l62-350c3-15 6-24 8-30 3-5 7-9 11-11 5-2 14-3 27-3l-6-25h-153l7 25h17c14 0 23 2 29 7 5 5 8 11 8 19 0 4-1 11-2 20l-15 85h-160l-55-95c-4-8-6-14-6-20 0-5 2-9 6-12 4-2 13-4 26-4h14l-6-25h-140l7 25c13 1 23 2 28 4 6 2 11 5 16 10 4 5 11 15 22 32zM354 278l-31 186-107-186zM35 36h442v-36h-442z" />
<glyph unicode="&#xe09b;" glyph-name="th-list" d="M0 82v55c0 8 3 15 8 20s12 8 20 8h91c8 0 15-3 20-8s8-12 8-20v-55c0-7-3-14-8-19s-12-8-20-8h-91c-8 0-15 2-20 8-5 5-8 12-8 19zM0 228v56c0 7 3 14 8 19s12 8 20 8h91c8 0 15-2 20-8 5-5 8-12 8-19v-55c0-8-3-14-8-20-5-5-12-8-20-8h-91c-8 0-15 3-20 8-5 6-8 12-8 19zM0 375v55c0 7 3 14 8 19 6 5 12 8 20 8h91c8 0 15-2 20-8s8-12 8-19v-55c0-8-3-15-8-20-6-5-12-8-20-8h-91c-8 0-15 3-20 8-5 6-8 12-8 20zM183 82v55c0 8 2 15 8 20 5 5 12 8 19 8h275c8 0 14-3 19-8s9-12 9-20v-55c0-7-3-14-9-19-5-5-11-8-19-8h-275c-7 0-14 2-19 8-6 5-8 12-8 19zM183 228v56c0 7 2 14 8 19 5 5 12 8 19 8h275c8 0 14-2 19-8 5-5 9-12 9-19v-55c0-8-3-14-9-20-5-5-11-8-19-8h-275c-7 0-14 3-19 8-6 6-8 12-8 19zM183 375v55c0 7 2 14 8 19s12 8 19 8h275c8 0 14-2 19-8 5-5 9-12 9-19v-55c0-8-3-15-9-20-5-5-11-8-19-8h-275c-7 0-14 3-19 8-5 6-8 12-8 20z" />
<glyph unicode="&#xe09c;" glyph-name="time-compensation" d="M484 0h-353c-14 0-26 11-26 25v193c17-3 34-3 51 0v-167h303v227h-210c17 24 26 53 26 82 0 15-2 30-6 43h89v-75h101v76h25c14 0 25-11 25-25v-353c0-15-11-26-25-26zM408 101h-51v51h51c0 0 0-51 0-51zM332 101h-50v51h50zM257 101h-51v51h51c0 0 0-51 0-51zM408 177h-51v50h51c0 0 0-50 0-50zM332 177h-50v50h50zM257 177h-51v50h51zM433 353h-51v51h51c0 0 0-51 0-51zM63 466c36 21 80 22 116 2l11 44 48-81-81-47 13 52c-27 17-61 18-90 2-41-25-55-78-31-120 24-41 77-55 119-32 33 18 50 55 42 92v3l29 17 1-5c14-53-9-108-56-135-58-33-131-13-165 45-33 56-14 129 43 162 0 1 1 1 1 1zM90 427v-76l67-40 16 24-56 33v59z" />
<glyph unicode="&#xe09d;" glyph-name="travel" d="M504 129l-117 294c-1 3-4 7-7 9-4 3-7 4-11 4h-96c3 0 5-1 7-2 2-2 3-4 3-6l4-55c0-2 0-4-2-6-1-2-3-3-6-3h-47c-2 0-4 1-6 3-1 1-2 4-2 6l4 55c0 2 1 4 3 6 2 1 5 2 7 2h-95c-4 0-7-1-11-4-3-2-6-6-7-9l-118-294c-5-12-7-23-7-33 0-14 4-20 13-20h198c-3 0-5 1-6 2-2 2-3 4-2 6l5 73c0 2 1 4 3 6 3 1 5 2 7 2h76c3 0 5-1 7-2 2-2 3-4 3-6l6-73c0-2-1-4-2-6-2-1-4-2-6-2h198c8 0 13 6 13 20-2 10-4 21-9 33zM298 228c0-2-1-4-2-6-2-1-4-2-6-2h-68c-2 0-4 1-6 2-2 2-3 4-2 6v1l6 90c0 3 1 5 3 6 2 2 4 3 7 3h52c2 0 4-1 6-3 2-1 3-4 3-6l7-90z" />
<glyph unicode="&#xe09e;" glyph-name="tree" d="M245 75v42h128c12 0 21 10 21 22 0 5-2 11-6 15l-80 80h34c11 0 20 10 20 22 0 6-2 11-6 15l-80 81h34c12 0 21 9 21 22 0 6-3 11-6 15l-113 116c-8 9-21 9-30 0l-112-115c-4-4-6-10-6-16 0-12 10-22 21-22h33l-80-81c-4-4-6-9-6-15 0-12 10-22 21-22h34l-81-80c-4-4-6-9-6-15 0-12 10-22 21-22h139v-42c0-12-10-22-22-22h-111c-15 0-27-12-27-26 0-15 12-27 27-27h458c15 0 27 12 27 27 0 14-12 26-27 26h-218c-12 0-22 10-22 22z" />
<glyph unicode="&#xe09f;" glyph-name="triangle-down" d="M32 400h449c28 0 42-34 22-54l-225-224c-14-14-30-14-44 0l-225 225c-20 20-5 53 23 53z" />
<glyph unicode="&#xe0a0;" glyph-name="triangle-left" d="M128 256l256 256v-512z" />
<glyph unicode="&#xe0a1;" glyph-name="triangle-right" d="M128 0v512l256-256z" />
<glyph unicode="&#xe0a2;" glyph-name="triangle-up" d="M32 112h449c28 0 42 34 22 54l-225 224c-14 14-30 14-44 0l-225-225c-20-20-5-53 23-53z" />
<glyph unicode="&#xe0a3;" glyph-name="undo" d="M512 72v-32c-72 110-167 125-255 128v-80c0-8-4-16-10-22-6-7-14-10-22-10s-17 3-23 10l-202 199 202 198c6 7 14 10 22 10s17-3 23-10c6-6 9-14 9-22v-82c144-16 256-139 256-287z" />
<glyph unicode="&#xe0a4;" glyph-name="user" d="M1 45c0 0-15 53 68 90 82 37 94 42 99 50 5 9 14 16 1 36-14 22-64 69-58 133 5 58 41 114 114 114s114-72 117-120c3-49-39-111-53-130-14-18-6-28 0-33s80-36 96-45c15-9 58-37 58-93-1-5-442-2-442-2zM342 461h170l-86-86z" />
<glyph unicode="&#xe0a5;" glyph-name="user-profile" d="M1 34c0 0-14 50 64 84 77 35 89 40 93 47 3 8 12 16 1 34-13 20-60 65-55 125 5 55 38 108 107 108s107-68 110-114c2-46-37-104-50-122s-6-27 0-32c6-5 75-33 90-42 16-8 55-34 55-88 0-1-415 0-415 0zM512 377v21l-25 8-6 14 11 24-15 15-2-1-21-11-15 6-9 25h-21l-1-3-7-22-14-6-23 12-15-15 1-3 11-21-6-14-25-9v-21l3-1 22-7 6-15-11-24 15-15 2 2 21 11 14-6 10-26h21l1 3 7 23 14 6 24-12 15 15-2 3-11 21 6 15zM421 358c-16 0-29 13-29 30 0 16 12 29 29 29 16 0 29-13 29-29 0-17-13-30-29-30z" />
<glyph unicode="&#xe0a6;" glyph-name="varia" d="M126 258c0 0 4-1 7-1h243c3 0 5 0 6 1 0 1-1 3-2 5l-134 232c-1 1-1 2-2 3-1-1-1-2-2-3l-113-230c-4-4-4-6-3-7zM377 330c-3 0-5 0-8 0l32-55c14-24 2-42-24-42h-129c-3-12-5-24-5-36 0-74 61-134 134-134 74 0 135 60 135 134-1 73-61 133-135 133zM223 233h-90c-26 0-39 19-27 44l3 5h-84c-14 0-25-11-25-24v-220c0-13 11-24 25-24h219c14 0 24 11 24 24v44c-30 30-48 70-48 114-1 13 0 25 3 37z" />
<glyph unicode="&#xe0a7;" glyph-name="view" d="M256 306c-27 0-48-22-48-48 0-27 21-49 48-49s48 22 48 49c0 26-21 48-48 48zM256 395c-127 0-256-139-256-139s129-139 256-139c127 0 256 139 256 139s-129 139-256 139zM256 159c-54 0-98 44-98 99 0 54 44 98 98 98s98-44 98-98c0-55-44-99-98-99z" />
<glyph unicode="&#xe0a8;" glyph-name="view-eye" d="M192 256c0-35 29-64 64-64s64 29 64 64v1c-7-8-16-12-27-12-20 0-37 17-37 38 0 14 9 27 21 33-7 3-14 4-21 4-35 0-64-29-64-64zM498 292c-40 51-137 134-242 134s-202-83-242-134c-9-11-13-24-14-36 1-12 5-25 14-36 40-51 137-134 242-134s202 83 242 134c9 11 13 24 14 36-1 12-5 25-14 36zM256 150c-59 0-106 47-106 106s47 106 106 106c59 0 106-47 106-106s-47-106-106-106z" />
<glyph unicode="&#xe0a9;" glyph-name="wallet-33" d="M120 408l204 56-11 22c-7 14-25 20-39 13l-182-91zM387 462c-2 0-5 0-8-1l-194-53h238l-8 33c-4 13-15 21-28 21zM454 388h-425c-10 0-18-4-23-11-2-3-4-6-5-10 0-2-1-5-1-8v-320c0-16 13-29 29-29h425c16 0 28 13 28 29v80h-170c-27 0-49 22-49 49v64c0 13 5 25 14 34 8 7 18 13 29 14 2 0 4 1 6 1h170v78c0 16-12 29-28 29zM503 253c-3 3-6 5-10 7-4 0-7 1-10 1h-171c-16 0-29-13-29-29v-64c0-15 13-28 29-28h171c3 0 6 0 10 1 3 1 7 4 10 6 5 6 9 13 9 21v64c0 9-4 16-9 21zM372 195c0-8-7-15-15-15h-9c-8 0-14 7-14 15v9c0 5 2 9 5 12 3 2 6 3 9 3h10c8 0 14-7 14-15v-9z" />
<glyph unicode="&#xe0aa;" glyph-name="warning-3" d="M255 486c-22 0-42-13-54-33-62-111-127-221-191-331-26-47 1-96 47-96 26 0 338 0 397 0 48 0 74 49 48 95l-191 330c-13 23-32 35-56 35zM258 361c35 0 45-34 42-54l-17-108c-1-19-8-37-27-37s-28 18-29 37l-14 108c-2 23 11 54 45 54zM256 146c20 0 37-17 37-37 0-21-17-37-37-37s-37 16-37 37c0 20 17 37 37 37z" />
<glyph unicode="&#xe0ab;" glyph-name="window" d="M287 161l31-31c10-10 27-10 37 0s10 27 0 37l-31 31 31 31c0 0-117 50-122 52-3 1-5 1-8 1-13 0-23-10-23-22 0-3 1-6 2-8 2-4 52-121 52-121zM0 59c0-24 19-43 42-43h427c24 0 42 19 42 43v394c0 24-18 43-42 43h-427c-23 0-42-19-42-43zM77 347h358c13 0 24-11 24-24v-230c0-13-10-24-24-24h-358c-13 0-24 10-24 24v230c0 13 11 24 24 24zM53 416c0 15 12 26 27 26s26-11 26-26c0-15-11-27-26-27s-27 12-27 27zM150 416c0 15 11 26 26 26s27-11 27-26c0-15-12-27-27-27s-26 12-26 27zM245 416c0 15 12 26 27 26s26-11 26-26c0-15-11-27-26-27s-27 12-27 27z" />
<glyph unicode="&#xe0ac;" glyph-name="wip" d="M441 485c0 0-52-27-53-28l-31-55-86-86-69 69c12 34 2 72-23 97-27 26-67 35-103 21-2-1-4-3-5-6 0-2 1-5 3-8l55-55-37-37-55 56c-2 2-5 3-8 2-3 0-5-2-6-5-14-35-6-76 22-102 25-26 63-35 96-24l69-69-10-10-24 25c-2 2-14-1-15-4l-11-34-89-53c-1-1-2-1-2-2l-46-53c-19-22-17-55 3-75l31-31c10-11 24-16 39-16 12 0 26 5 36 13l54 47c1 1 2 2 2 3l52 87 34 11c3 1 6 12 4 14l-25 25 10 9 73-72c-12-34-2-72 23-97 19-18 43-28 68-28 12 0 23 2 35 6 2 2 4 4 5 7 0 3-1 5-3 7l-55 56 37 37 55-55c2-2 5-3 8-3 3 1 5 3 6 5 14 36 5 76-22 103-25 25-63 34-96 23l-73 73 86 86 55 31c2 1 28 53 28 53" />
<glyph unicode="&#xe0ad;" glyph-name="woman-profile" d="M512 74c-13 26-35 49-72 53l-14 1c0 0-42 8-74 24 0 0-24 15-24 15-6 6-10 11-12 17v8l15-1c34-5 67 18 67 18-17 5-12 16-2 41s-10 52-10 52c15 3 14 33 0 63-15 29-26 82-26 82-30 72-90 65-90 65l-5-2h-20l-4 2c0 0-60 6-90-66 0 0-11-52-26-81-14-30-15-60 0-63 0 0-20-27-10-52 9-24 14-36-3-41 0 0 34-23 67-18l16 1v-8c-2-6-7-11-12-17 0 0-24-15-24-15-33-16-75-24-75-24l-13-1c-36-4-58-27-71-52v-75h4l253 1 255-1z" />
<glyph unicode="&#xe0ae;" glyph-name="work-wear" d="M421 155c-11 12-25 19-42 19h-37l-25 23c-17-15-39-23-63-23-22 0-42 7-59 21l-22-21h-38c-20 0-35-7-47-21-35-40-29-126-26-153h390c1 27 5 115-31 155zM153 338c-7-6-12-15-12-26 0-16 11-29 24-32 3-24 13-46 28-61 3-3 7-7 10-10 4-3 9-6 14-9 11-5 23-9 36-9s26 3 36 9c5 3 10 6 14 9s7 6 10 10c15 15 25 36 27 61 1 0 1 0 2 0 15 0 27 14 27 31 0 11-4 20-12 26h-204zM360 399c-8 30-32 61-63 77v-78c0-1 0-1 0-1-1-3-1-6-3-9-3-8-11-13-20-13h-36c-9 0-16 4-20 11-1 2-2 5-3 8 0 2 0 2 0 4v78c-30-16-54-46-63-77l-2-6h-17v-37h246v37h-17zM238 384h36c5 0 10 3 12 7 1 2 1 4 1 7v96c0 3 0 5-1 7-2 6-8 11-16 11h-32c-8 0-13-5-14-12 0 0 0-1 0-1v-101c0-3 1-5 2-7 3-5 7-7 12-7z" />
<glyph unicode="&#xe0b1;" glyph-name="zoom-in" d="M512 71l-141 141c17 30 27 64 27 101 0 110-89 199-199 199-109 0-199-89-199-199s89-199 199-199c37 0 71 9 101 27l141-141zM50 313c0 82 67 149 149 149s148-67 149-149c0-82-67-149-149-149s-149 67-149 149zM302 333h-79v80h-48v-80h-79v-47h79v-79h48v79h79z" />
<glyph unicode="&#xe0b2;" glyph-name="zoom-out" d="M512 71l-141 141c17 30 27 64 27 101 0 110-89 199-199 199-109 0-199-89-199-199s89-199 199-199c37 0 71 9 101 27l141-141zM50 313c0 82 67 149 149 149s148-67 149-149c0-82-67-149-149-149s-149 67-149 149zM96 333h206v-47h-206z" />
<glyph unicode="&#xe0b3;" glyph-name="year-overview" d="M269 499c-90 0-169-48-210-123l-59 59v-166h166l-71 71c33 64 97 108 174 108 105 0 192-87 192-192s-87-192-192-192c-85 0-154 54-182 128h-54c28-102 123-179 236-179 135 0 243 110 243 243s-110 243-243 243zM230 371v-130l121-72 20 33-102 62v107z" />
<glyph unicode="&#xe0b4;" glyph-name="file" d="M150 369c-18 0-18-27 0-27 71 0 141 0 212 0 18 0 18 27 0 27-71 0-141 0-212 0zM362 304c-71 0-141 0-212 0-18 0-18-28 0-28 71 0 141 0 212 0 18 0 18 28 0 28zM362 242c-71 0-141 0-212 0-18 0-18-27 0-27 71 0 141 0 212 0 18 0 18 27 0 27zM362 181c-71 0-141 0-212 0-18 0-18-27 0-27 71 0 141 0 212 0 18 0 18 27 0 27zM362 119c-71 0-141 0-212 0-18 0-18-27 0-27 71 0 141 0 212 0 18 0 18 27 0 27zM58 512v-512h396v441l-74 71zM420 34h-328v444h270v-54h58z" />
<glyph unicode="&#xe0b5;" glyph-name="multiple-files" d="M114 280c-13 0-13-20 0-20 52 0 104 0 156 0 14 0 14 20 0 20-52 0-103 0-156 0zM271 228c-52 0-104 0-156 0-14 0-14-20 0-20 51 0 104 0 156 0 13 0 13 20 0 20zM114 177c-13 0-13-21 0-21 52 0 104 0 156 0 14 0 14 21 0 21-52 0-103 0-156 0zM271 124c-52 0-104 0-156 0-14 0-14-21 0-21 51 0 104 0 156 0 13 1 13 21 0 21zM271 72c-52 0-105 0-156 0-14 0-14-20 0-20 51 0 104 0 156 0 13 0 13 20 0 20zM48 377v-377h291v325l-54 52c0 0-237 0-237 0zM314 25h-241v327h199v-40h42zM109 448v-44h25v19h199v-40h42v-287h-11v-25h36v324l-54 53zM410 513h-237v-44h25v18h199v-40h42v-287h-11v-25h36v325z" />
<glyph unicode="&#xe0b6;" glyph-name="calendar-euro" d="M81 507h54v-53h-54zM298 507h53v-53h-53zM108 317h53v-53h-53zM108 238h53v-54h-53zM188 317h55v-53h-53v53zM190 238h53v-54h-53zM269 319h56v-53h-54v53zM261 111v16h-208v245h326v-118c9 1 18 3 27 2 9 1 18-1 27-2v253h-54v-82h-110v82h-106v-82h-110v82h-53v-431h265c-2 12-4 23-4 35zM324 231v7h-53v-54h11c8 19 24 35 42 47zM406 217c-58 0-106-48-106-106s47-106 106-106c59 0 106 48 106 106 1 58-47 106-104 106-1 0-1 0-2 0zM441 56c-2-2-2-2-4-2h-17c-12 0-24 4-34 11s-17 16-21 28h-10v15h10v8h-8v14h10c4 11 11 22 21 29 9 6 21 9 32 10 6 0 12-1 17-2 1 0 2-1 2-2v-2l-4-12c0-1-1-3-2-3h-13c-6 0-12-2-18-6-6-3-10-8-12-14h41v-2l-2-10c0-1-1-2-3-2h-40v-9h40v-2l-2-8v-2h-34c2-6 6-12 12-16 5-4 12-6 18-6h13c1 0 2-1 2-2z" />
<glyph unicode="&#xe0b7;" glyph-name="buy-leave" d="M346 339h20v-166h-20zM492 339h20v-166h-20zM346 193h166v-20h-166zM364 308h136v-20h-136zM409 339h41v-35h-41zM378 339h19v-20h-19zM460 339h20v-20h-20zM387 266h20v-20h-20zM387 234h20v-20h-20zM417 266h20v-20h-20zM419 234h20v-20h-20zM449 266h20v-20h-20zM449 236h20v-20h-20zM92 348c-51-1-91-42-92-92 1-50 41-91 92-92 50 1 91 41 91 92 0 50-40 91-91 92 0 0 0 0 0 0zM121 209l-1-1h-15c-10-1-21 3-28 10-8 6-14 15-17 25h-10v11h6v7h-6v12h8c2 10 8 18 16 23 8 6 18 9 28 8 5 1 10 0 14-1 3 1 3 1 3 0v-2l-3-12c0-1-1-1-2-1h-10c-6 0-11-2-16-5s-8-7-10-12h34c1 0 1-1 1-2v-1l-1-8c0-1-1-2-2-2h-35v-7h34c1 0 1-1 1-2v-1l-1-8v-2h-30c1-6 5-10 10-13 5-4 10-5 16-5h13c1 0 2-1 2-2zM312 256l-48 48v-30h-48v-36h48v-30z" />
<glyph unicode="&#xe0b8;" glyph-name="sell-leave" d="M0 339h20v-166h-20zM146 339h20v-166h-20zM0 193h166v-20h-166zM18 308h137v-20h-137zM61 339h42v-36h-42zM32 339h20v-20h-20zM115 339h20v-20h-20zM41 266h20v-20h-20zM41 234h20v-20h-20zM72 266h20v-20h-20zM73 234h20v-20h-20zM103 266h20v-20h-20zM103 234h20v-20h-20zM420 348c-50-1-91-41-91-92s41-92 91-92c51 0 92 41 92 92-1 50-41 91-92 92zM449 209l-2-1h-14c-11-1-21 3-29 10-7 6-13 15-16 25h-9v11h7v7h-7v12h8c3 10 8 18 16 23 9 6 18 9 29 8 4 1 9 0 13-1 1 0 1-1 1-2v-1l-3-12c0-1-1-2-2-2h-9c-7 0-12-1-17-5-4-2-8-7-9-12h33c1 0 1 0 1-1v-2l-1-8c0-1-1-1-2-1h-35v-7h34c1 0 1-1 1-2v-1l-1-5v-2h-28c1-6 5-10 9-13 5-4 11-5 17-5h13c1 0 2-1 2-2zM296 256l-48 48v-30h-48v-36h48v-30z" />
<glyph unicode="&#xe0b9;" glyph-name="document-new-2" d="M501 147h-81v82c0 4-2 7-7 7h-45c-4 0-7-2-7-7v-82h-80c-5 0-7-1-7-6v-45c0-5 1-7 7-7h81v-81c0-5 2-7 7-7h43c4 0 6 2 6 7v82h82c4 0 6 1 6 6v45c2 3 0 6-5 6zM314 37h-265v331h126v107h200l2-193h43v230h-291l-123-104v-408h308z" />
<glyph unicode="&#xe0ba;" glyph-name="full-payout-ikb" d="M261 297c10 0 17 7 17 17 0 9-7 17-17 17-9 0-17-8-17-17 0-10 8-17 17-17zM439 297c9 0 17 7 17 17 0 9-8 17-17 17-10 0-17-8-17-17 0-10 7-17 17-17zM485 417h-266c-16 0-28-12-28-28v-93c4 0 8 0 12 0 5 0 8 0 12 0v63c2-1 4-1 7-1 15 0 28 13 28 28 0 3 0 5-1 7h207c0-1 0-3 0-5 0-15 12-28 28-28 1 0 3 0 5 0v-86c-2 1-3 1-5 1-16 0-28-13-28-29 0-1 0-3 0-5h-149c0-1 0-1 0-2s0-1 0-1v-21h177c16 0 28 12 28 28v144c0 16-12 28-27 28zM28 280c16-5 36-8 57-8 11 0 23 1 32 2 6 4 13 8 22 12 10 4 20 6 32 8v90c0 8-5 20-29 29-15 6-35 9-56 9-22 0-42-3-57-8-24-10-29-22-29-30v-186c0-9 5-21 28-29 16-6 36-9 57-9 5 0 9 0 14 0v19c-5-1-9-1-14-1-19 0-37 3-50 8s-17 10-17 12v11c3-1 7-3 10-4 16-5 36-8 57-8 5 0 9 0 14 0v19c-5 0-9 0-14 0-19 0-37 2-50 7-13 6-17 10-17 12v12c3-2 7-3 10-4 16-6 36-9 57-9 5 0 9 0 14 0v5c0 4 0 10 3 15-6 0-11 0-17 0-19 0-37 3-50 8s-17 10-17 11v12c4-2 7-3 10-5zM35 395c13 5 31 8 50 8 20 0 37-3 50-8s16-9 16-11v-1c0-1-3-6-16-11s-31-8-50-8c-19 0-37 3-50 8s-17 10-17 11c1 2 4 7 17 12zM19 359c3-2 6-3 10-4 15-6 35-9 57-9 21 0 41 3 56 9 4 1 7 2 10 4v-12c0-2-3-6-16-11-13-6-31-8-50-8s-37 2-50 8c-13 5-17 9-17 11zM19 322c3-2 6-3 10-5 15-5 35-8 57-8 21 0 41 3 56 8 4 2 7 3 10 5v-12c0-2-3-6-16-12-13-5-31-7-50-7s-37 2-50 7c-13 6-17 10-17 12zM260 268c-15 6-35 9-57 9-21 0-41-3-56-9-24-9-29-21-29-29v-112c0-8 6-20 29-29 15-5 35-8 56-8 22 0 42 3 57 8 24 9 29 21 29 29v112c0 8-5 20-29 29zM153 250c13 5 31 8 50 8s37-3 50-8c13-5 16-10 16-12v0c0-2-4-6-16-11-13-6-31-8-50-8-20 0-37 2-50 8-14 5-17 9-17 11 0 1 4 7 17 12zM254 116c-14-5-32-7-51-7s-37 2-50 7c-13 6-16 10-16 12v12c2-2 6-3 10-4 15-6 35-9 56-9 22 0 42 3 57 9 4 1 7 2 10 4v-12c0-2-3-6-16-12zM270 165c0-2-3-7-16-11-13-5-31-8-50-8s-37 3-50 8c-14 5-17 9-17 11v12c3-2 7-3 10-4 15-6 35-9 57-9s41 3 57 9c3 1 7 2 10 4zM270 202c0-1-3-6-16-11s-31-8-50-8c-19 0-37 3-50 8-14 5-17 10-17 11v12c3-1 7-3 10-4 15-6 35-9 57-9s41 3 57 9c3 2 7 3 10 4zM351 378c-34 0-61-27-61-61s27-62 61-62c33 0 61 28 61 62s-28 61-61 61zM373 344c-5 3-10 6-15 6-6 0-12-2-16-5-2-2-4-4-6-7s-3-7-4-10h37l-2-7h-36c0 0 0-1 0-2 0-3 0-5 0-5h35l-2-7h-32c2-9 5-15 11-18 4-3 9-4 13-4 7 0 12 1 16 5v-11c-5-2-10-3-15-3-16 0-27 6-33 20-1 3-2 7-3 11h-8l1 7h6c0 1 0 3 0 5 0 1 0 2 0 2h-7l1 7h6c2 12 9 21 18 26 5 3 12 5 19 5s13-2 17-5z" />
<glyph unicode="&#xe0bb;" glyph-name="payslips-to-dpd" d="M329 0h-307l-22 176c0 4 1 7 3 9s3 3 5 4h324c5 0 8-1 11-4 3-2 4-4 5-6v-5zM29 274c8 6 14 10 18 10h79c1-1 3-1 5-2s5-5 10-11c4-6 7-14 9-23h164c9 1 14-1 16-7l10-29-328 2zM511 380l-12 70c-1 8-5 14-11 18l-73 41c-5 3-10 4-17 2-6-3-11-7-14-13l-88-152c-3-6-4-12-3-18 1-7 4-12 9-15l117-67c5-3 10-3 17-1 6 2 11 6 14 13l58 99c4 8 5 15 3 23zM447 447l29-17c4-2 5-5 3-9l-2-4c-3-4-6-5-10-3l-29 17zM368 450l2 3c1 1 2 2 3 1l4-3 2 3-4 3c-1 1-2 2-1 3l2 3c0 1 1 1 2 1l6-4v1c5 5 10 7 16 7 5 1 9 0 13-2 6-2 11-6 15-11 1 0 1-1 1-1 1-1 1-2 0-4-1 0-2 0-3-1s-1-2-2-2c-1 0-2 0-3 0 0 1-1 1-1 1-1 1-1 1-1 1-1 1-1 1-3 3-4 3-8 5-12 6-3 0-6-1-10-3v0l11-7c1 0 1-1 1-2l-2-4c-1-1-2-1-3 0l-12 7-2-3 13-7c1-1 1-2 0-3l-2-4c-1-1-1-1-2 0l-12 6c-1-5 0-9 3-12s6-5 10-7c0 0 1 0 2-1 0 0 1 0 1 0 1 0 1 0 2 0 0 0 1 0 1 0 2-1 2-2 2-3s0-3 0-6c0-1-1-2-3-2-1 0-1 0-3 0-1 1-2 1-3 1-6 2-12 5-16 10-6 6-8 13-7 22 0 0 1 1 1 1 0 1 0 2 0 2v2l-5 3c-1 0-1 0-1 1 0 0 0 0 0 1zM449 286c-2-4-5-5-9-3l-117 68c-4 2-5 5-3 9l3 4c2 4 5 5 9 3l117-68c4-2 5-5 3-9zM470 322c-2-4-5-5-9-2l-117 67c-4 2-5 6-2 10l2 4c2 4 6 5 9 3l117-68c4-2 5-5 3-9zM483 356l-66 38 10 16 64-37c5-3 5-6 3-10l-2-4c-2-4-5-5-9-3zM201 335l-1-4-18 8c0 0-1 0-1 0-1 0-1 0-2-1 0 0 0-1-1-1 0-1 0-1 0-2l17-58c0-1 0-1 0-1 0-1 1-1 1-1 1 0 1 0 1 0 1 0 1 0 2 0l54 27c1 0 1 1 1 1 1 1 1 1 1 2 0 0 0 1-1 1 0 1 0 1-1 1l-18 8c1 5 2 10 5 15 3 9 10 17 18 23s17 9 27 10c1 0 2 0 2 0 1 1 1 1 1 2s0 1 0 2-1 1-2 1c-54 24-79-19-85-33z" />
<glyph unicode="&#xe0bc;" glyph-name="folder-person" d="M505 336c-5 5-11 8-19 8h-460c-8 0-15-3-19-8-5-5-8-13-7-20l25-264c1-13 12-23 25-23h411c14 0 25 10 26 23l24 264c2 7-1 14-6 20zM342 83h-172c-14 0-26 12-26 26 0 35 29 63 64 63h18c-19 11-32 31-32 54 0 35 28 62 62 62s62-27 62-62c0-23-13-43-32-54h18c34 0 63-28 64-61 0-1 0-2 0-2 0-15-12-26-26-26zM462 392c0-11-8-19-19-19h-374c-11 0-19 8-19 19s8 20 19 20h374c11 0 19-9 19-20zM411 464c0-11-9-20-19-20h-272c-10 0-19 9-19 20s9 19 19 19h272c10 0 19-8 19-19z" />
<glyph unicode="&#xe0bd;" glyph-name="clock" d="M329 137l-105 106v141h64v-115l87-86zM256 512c-141 0-256-115-256-256s115-256 256-256c141 0 256 115 256 256s-115 256-256 256zM256 64c-106 0-192 86-192 192s86 192 192 192c106 0 192-86 192-192s-86-192-192-192z" />
<glyph unicode="&#xe0be;" glyph-name="coworkers" d="M1 67c0 0-13 46 60 79 73 32 83 37 87 44 3 8 11 15 1 31-12 19-56 61-52 117 4 53 35 101 100 101s100-64 104-107c2-43-35-98-47-114-11-17-6-25 0-30 7-4 71-31 84-39 15-8 52-32 52-82-1-2-389 0-389 0zM512 117c0 0-7 50-46 70-39 19-77 24-88 37-11 14-11 27-3 34 14 14 47 37 47 87s-35 101-88 101c-52 0-47-18-47-18s39-30 44-81c2-24-3-65-47-136-14-22 110-33 131-93l97-1" />
<glyph unicode="&#xe0bf;" glyph-name="house" d="M503 311l-64 52v83c0 10-8 18-17 18h-40c-10 0-17-8-17-18v-22l-86 69c-6 6-14 8-23 8s-17-3-23-8l-224-182c-10-9-10-16-8-19 1-4 5-10 18-10h31v-240c0-17 14-31 31-31h97c17 0 30 13 30 31v98c0 9 8 17 16 17h65c8 0 15-8 15-17v-98c0-17 15-31 32-31h95c17 0 31 14 31 31v240h31c13 0 17 6 18 10 2 3 2 10-8 19z" />
<glyph unicode="&#xe0c0;" glyph-name="grid-view" d="M183 512h-146c-21 0-37-15-37-34v-151c0-19 16-34 37-34h146c20 0 36 15 36 34v151c0 19-16 34-36 34zM183 219h-146c-21 0-37-15-37-34v-151c0-19 16-34 37-34h146c20 0 36 15 36 34v151c0 19-16 34-36 34zM475 512h-146c-20 0-36-15-36-34v-151c0-19 16-34 36-34h146c21 0 37 15 37 34v151c0 19-16 34-37 34zM475 219h-146c-20 0-36-15-36-34v-151c0-19 16-34 36-34h146c21 0 37 15 37 34v151c0 19-16 34-37 34z" />
<glyph unicode="&#xe0c1;" glyph-name="list-view" d="M480 496h-448c-18 0-32-14-32-32v-13c0-17 14-32 32-32h448c18 0 32 15 32 32v13c0 18-14 32-32 32zM480 368h-448c-18 0-32-14-32-32v-13c0-17 14-32 32-32h448c18 0 32 15 32 32v13c0 18-14 32-32 32zM480 240h-448c-18 0-32-14-32-32v-13c0-17 14-32 32-32h448c18 0 32 15 32 32v13c0 18-14 32-32 32zM480 112h-448c-18 0-32-14-32-32v-13c0-17 14-32 32-32h448c18 0 32 15 32 32v13c0 18-14 32-32 32z" />
<glyph unicode="&#xe900;" glyph-name="filled-star" d="M496.128 322.048h-160.768c-3.072 0-6.656 3.072-6.656 3.072l-57.856 167.424c-3.072 9.728-9.728 12.8-15.872 12.8s-12.8-3.072-15.872-12.8l-55.296-167.424c0-3.072-3.072-3.072-6.656-3.072h-160.768c-15.872 0-22.528-22.528-9.728-32.256l132.096-93.184c3.072-3.072 3.072-3.072 3.072-6.656l-51.2-160.768c-3.072-12.8 6.656-22.528 15.872-22.528 3.072 0 6.656 0 9.728 3.072l135.168 99.84h6.144l135.168-99.84c3.072-3.072 6.656-3.072 9.728-3.072 9.728 0 19.456 9.728 15.872 22.528l-50.688 160.768c0 3.072 0 6.656 3.072 6.656l132.096 93.184c15.872 9.728 9.728 32.256-6.656 32.256z" />
<glyph unicode="&#xe901;" glyph-name="hollow-star" d="M256 435.712l38.912-119.808c6.656-16.384 22.528-29.184 38.912-29.184h110.080l-90.624-64.512c-16.384-9.728-19.456-29.184-16.384-45.056l35.84-113.152-94.208 67.584c-6.656 6.656-16.384 6.656-22.528 6.656-9.728 0-16.384-3.072-22.528-6.656l-93.696-68.096 35.84 113.152c3.072 19.456-3.072 38.912-16.384 48.64l-90.624 64.512h110.080c16.384 0 32.256 9.728 38.912 29.184l38.4 116.736zM256 506.88c-6.656 0-12.8-3.072-16.384-12.8l-54.784-168.448c0-3.072-3.072-3.072-6.656-3.072h-161.792c-16.384 0-22.528-22.528-9.728-32.256l132.608-93.696c3.072-3.072 3.072-3.072 3.072-6.656l-51.2-161.792c-3.584-13.312 6.144-23.040 15.872-23.040 3.072 0 6.656 0 9.728 3.072l135.68 100.352h6.656l135.68-100.352c3.072-3.072 6.656-3.072 9.728-3.072 9.728 0 19.456 9.728 16.384 22.528l-51.712 161.792c0 3.072 0 6.656 3.072 6.656l132.608 93.696c12.8 9.728 6.656 32.256-9.728 32.256h-161.28c-3.072 0-6.656 3.072-6.656 3.072l-54.784 168.448c-3.584 9.728-9.728 13.312-16.384 13.312v0z" />
<glyph unicode="&#xe902;" glyph-name="list-star" d="M496.128 202.752h-180.224c-9.728 0-15.872 6.656-15.872 15.872v3.072c0 9.728 6.656 15.872 15.872 15.872h180.224c9.728 0 15.872-6.656 15.872-15.872v-3.072c0-9.216-6.656-15.872-15.872-15.872zM496.128 119.296h-180.224c-9.728 0-15.872 6.656-15.872 15.872v3.072c0 9.728 6.656 15.872 15.872 15.872h180.224c9.728 0 15.872-6.656 15.872-15.872v-3.072c0-9.728-6.656-15.872-15.872-15.872zM496.128 35.84h-180.224c-9.728 0-15.872 6.656-15.872 15.872v3.072c0 9.728 6.656 15.872 15.872 15.872h180.224c9.728 0 15.872-6.656 15.872-15.872v-3.072c0-9.728-6.656-15.872-15.872-15.872zM496.128 322.048h-164.352c-3.072 0-6.656 3.072-6.656 3.072l-54.272 167.424c-3.072 9.728-9.728 12.8-15.872 12.8-6.656 0-12.8-3.072-15.872-12.8l-55.296-167.424c0-3.072-3.072-3.072-6.656-3.072h-160.768c-15.872 0-22.528-22.528-9.728-32.256l132.096-93.184c3.072-3.072 3.072-3.072 3.072-6.656l-51.2-160.768c-3.072-12.8 6.656-22.528 15.872-22.528 3.072 0 6.656 0 9.728 3.072l135.168 99.84c3.072 3.072 6.656 9.728 6.656 12.8 0 9.728-6.656 15.872-15.872 15.872-3.072 0-6.656 0-9.728-3.072v0l-93.696-67.584 35.328 112.64c3.072 15.872-3.072 35.328-15.872 45.056l-90.112 64.512h109.568c15.872 0 32.256 9.728 38.4 29.184l38.4 115.712 38.4-119.296c6.656-15.872 22.528-29.184 38.4-29.184h164.864c9.728 0 15.872 6.656 15.872 15.872 0 10.24-6.656 19.968-15.872 19.968z" />
</font>
</defs>
</svg>
